/* XPM */
static char * sol_xpm[] = {
"64 64 13 1",
" 	c #72751B",
".	c #7F8226",
"+	c #787B21",
"@	c #656C17",
"#	c #BD9842",
"$	c #9CA8AD",
"%	c #A2783C",
"&	c #A2814F",
"*	c #636917",
"=	c #C6A740",
"-	c #B3B0A9",
";	c #7F8124",
">	c #686F16",
"                                                                ",
"                                                                ",
"                                                                ",
"                                                                ",
"                                                                ",
"                                                                ",
"                                                                ",
"                                                      ..        ",
"                                                       .+    .  ",
"                         .                             +++ +.   ",
"                    ..+  ++                         .++@++++@   ",
"                     .++ @+  .                       ++##@++@   ",
"                     @++$$ ++@                       @#%%#+@    ",
"                    .+@+&$ ++@                        *##* ==   ",
"                    @--@** @@                       == **  %=   ",
"                    -&&-@--                        =%%=    **   ",
"                    *--*-&-                        *==*         ",
"                     ** --*                         **          ",
"                        **                                      ",
"                                                                ",
"                                                                ",
"                                                                ",
"                                                                ",
"                                         ..                     ",
"                                   +   ++.                      ",
"                                    .. ++@                      ",
"     ..                             .++@@                       ",
"      .++   ..                      @++                         ",
"      @++  +.                        @                          ",
"       @@ +++                                                   ",
"          ++@                                                   ",
"          @@                                                    ",
"                                                                ",
"                                                                ",
"                                                                ",
"                                                                ",
"             +.                                                 ",
"              ..                                                ",
"              +++                                               ",
"              @++@++..                                          ",
"               $$+++                                            ",
"              $&$++@                                            ",
"              $$*+@                                             ",
"              **                                                ",
"                                                                ",
"                                                 ;              ",
"                           .                    ++  ;++         ",
"                          .                  ;  +> +;;          ",
"                         ++                   ;+> ++;>          ",
"                         ++@                 >++  ++>+;         ",
"                         @@+.                 >+  --++>         ",
"                           ++                  > -&&->          ",
"                           @@                    *--*           ",
"                                               -& **            ",
"      ..     .                                 --               ",
"       .++ +.                                  **               ",
"    +..@+@++@                                                   ",
"     .++$$++@  --                                               ",
"     @+$&&$@   &-                    +;;                        ",
"      @*$$*--  **                     ;++                       ",
"        **-&-                         >++                       ",
"          --*                          >>                       ",
"          **                                                    ",
"                                                                "};
