/* XPM */
static char * collectible_xpm[] = {
"64 64 335 2",
"  	c #72751B",
". 	c #7F8226",
"+ 	c #787B21",
"@ 	c #656C17",
"# 	c #BD9842",
"$ 	c #9CA8AD",
"% 	c #A2783C",
"& 	c #A2814F",
"* 	c #636917",
"= 	c #C6A740",
"- 	c #B3B0A9",
"; 	c #765339",
"> 	c #755238",
", 	c #735035",
"' 	c #755338",
") 	c #77553A",
"! 	c #A28366",
"~ 	c #A28367",
"{ 	c #9F8063",
"] 	c #735037",
"^ 	c #A18165",
"/ 	c #A18266",
"( 	c #654128",
"_ 	c #6F4B31",
": 	c #714B32",
"< 	c #704A30",
"[ 	c #9B7C5F",
"} 	c #6F4B32",
"| 	c #724F37",
"1 	c #644027",
"2 	c #714D34",
"3 	c #744F35",
"4 	c #79543A",
"5 	c #795339",
"6 	c #6C472D",
"7 	c #9C7C60",
"8 	c #6D492F",
"9 	c #725036",
"0 	c #9A7A5D",
"a 	c #714D33",
"b 	c #734E34",
"c 	c #98775B",
"d 	c #6C482E",
"e 	c #5F3B22",
"f 	c #8B6347",
"g 	c #7B543A",
"h 	c #7B553A",
"i 	c #522B14",
"j 	c #643F26",
"k 	c #845D42",
"l 	c #835C41",
"m 	c #59331B",
"n 	c #522C14",
"o 	c #664228",
"p 	c #805A3F",
"q 	c #6F492F",
"r 	c #6C462C",
"s 	c #6B452B",
"t 	c #674128",
"u 	c #684229",
"v 	c #6B462C",
"w 	c #532C15",
"x 	c #6A452B",
"y 	c #835D40",
"z 	c #8F684B",
"A 	c #8F694C",
"B 	c #8A6448",
"C 	c #845E42",
"D 	c #755036",
"E 	c #6C472E",
"F 	c #542D15",
"G 	c #835D41",
"H 	c #8E684C",
"I 	c #8F694D",
"J 	c #8B6549",
"K 	c #855F43",
"L 	c #755037",
"M 	c #69442C",
"N 	c #835D43",
"O 	c #8F684C",
"P 	c #865F44",
"Q 	c #765138",
"R 	c #6E4930",
"S 	c #563018",
"T 	c #6B442B",
"U 	c #896245",
"V 	c #8E684B",
"W 	c #8E694C",
"X 	c #8C664A",
"Y 	c #845F42",
"Z 	c #795439",
"` 	c #68422A",
" .	c #764E36",
"..	c #573119",
"+.	c #6C452D",
"@.	c #8A6346",
"#.	c #8B6446",
"$.	c #8C6548",
"%.	c #775036",
"&.	c #765036",
"*.	c #765037",
"=.	c #643E26",
"-.	c #815C40",
";.	c #7C543B",
">.	c #784F36",
",.	c #573018",
"'.	c #8A6446",
").	c #8C6447",
"!.	c #8D6548",
"~.	c #977053",
"{.	c #926C4E",
"].	c #8C6547",
"^.	c #865F43",
"/.	c #805B3F",
"(.	c #795037",
"_.	c #714830",
":.	c #573019",
"<.	c #734D32",
"[.	c #795237",
"}.	c #8F674B",
"|.	c #977153",
"1.	c #9A7557",
"2.	c #967051",
"3.	c #926B4D",
"4.	c #8D6749",
"5.	c #8D6549",
"6.	c #825D40",
"7.	c #623C23",
"8.	c #5F3920",
"9.	c #734C33",
"0.	c #946E50",
"a.	c #966F52",
"b.	c #876143",
"c.	c #9B7558",
"d.	c #8E6749",
"e.	c #6D472C",
"f.	c #7B5339",
"g.	c #764E34",
"h.	c #57321A",
"i.	c #744E34",
"j.	c #956F51",
"k.	c #967052",
"l.	c #9C7858",
"m.	c #9D795A",
"n.	c #886244",
"o.	c #825C3F",
"p.	c #7D573B",
"q.	c #795338",
"r.	c #8D6648",
"s.	c #825C40",
"t.	c #774F35",
"u.	c #5B341C",
"v.	c #6D472D",
"w.	c #957051",
"x.	c #9C7758",
"y.	c #9E7A5B",
"z.	c #A27E5E",
"A.	c #A27F5E",
"B.	c #9E7A5A",
"C.	c #997455",
"D.	c #956F50",
"E.	c #946F4F",
"F.	c #8B6548",
"G.	c #7A5138",
"H.	c #714931",
"I.	c #59331A",
"J.	c #714B30",
"K.	c #A17E5E",
"L.	c #A07D5C",
"M.	c #987454",
"N.	c #8B6447",
"O.	c #8C6546",
"P.	c #7D563B",
"Q.	c #714930",
"R.	c #6F492E",
"S.	c #957052",
"T.	c #9E785A",
"U.	c #9E7B5B",
"V.	c #A48060",
"W.	c #987354",
"X.	c #987353",
"Y.	c #956F4F",
"Z.	c #7E573C",
"`.	c #724A30",
" +	c #5C351D",
".+	c #6C462D",
"++	c #A17E5D",
"@+	c #A37F60",
"#+	c #A07C5C",
"$+	c #987253",
"%+	c #946E4F",
"&+	c #926B4C",
"*+	c #8B6547",
"=+	c #7F593C",
"-+	c #734B31",
";+	c #5C361E",
">+	c #643E25",
",+	c #734D33",
"'+	c #744E33",
")+	c #A17D5D",
"!+	c #A37F5F",
"~+	c #A47F60",
"{+	c #A27D5E",
"]+	c #9F7C5C",
"^+	c #977252",
"/+	c #926C4D",
"(+	c #7E573B",
"_+	c #633D23",
":+	c #643E23",
"<+	c #58321A",
"[+	c #643F25",
"}+	c #8A6447",
"|+	c #8D684A",
"1+	c #8C6649",
"2+	c #A48160",
"3+	c #A07D5D",
"4+	c #9F7B5C",
"5+	c #946E4E",
"6+	c #724C30",
"7+	c #704A2E",
"8+	c #724B30",
"9+	c #7A5237",
"0+	c #784F35",
"a+	c #653E25",
"b+	c #8C6448",
"c+	c #8D6649",
"d+	c #997355",
"e+	c #9A7456",
"f+	c #876142",
"g+	c #7A5436",
"h+	c #795335",
"i+	c #8D6647",
"j+	c #845E41",
"k+	c #815B3E",
"l+	c #7A5137",
"m+	c #764E35",
"n+	c #552F16",
"o+	c #9F795B",
"p+	c #9F7A5B",
"q+	c #9A7455",
"r+	c #997454",
"s+	c #8F6849",
"t+	c #8D6646",
"u+	c #815C3E",
"v+	c #623C22",
"w+	c #795036",
"x+	c #552F18",
"y+	c #532D15",
"z+	c #633D25",
"A+	c #8A6245",
"B+	c #90694C",
"C+	c #7F593D",
"D+	c #866144",
"E+	c #9F7A5A",
"F+	c #8D6748",
"G+	c #674027",
"H+	c #825D3F",
"I+	c #633D24",
"J+	c #7F5A3C",
"K+	c #5C371E",
"L+	c #714F31",
"M+	c #532D14",
"N+	c #926B4E",
"O+	c #7E583D",
"P+	c #936D4F",
"Q+	c #9E795A",
"R+	c #785237",
"S+	c #946D4E",
"T+	c #6D482E",
"U+	c #6C452A",
"V+	c #8C6445",
"W+	c #664027",
"X+	c #7F5A3D",
"Y+	c #70482F",
"Z+	c #704E31",
"`+	c #563119",
" @	c #5E381F",
".@	c #754E34",
"+@	c #916B4D",
"@@	c #815B3F",
"#@	c #916B4C",
"$@	c #906A4B",
"%@	c #8A6345",
"&@	c #6F482E",
"*@	c #8B6445",
"=@	c #8B6245",
"-@	c #725434",
";@	c #542E16",
">@	c #532E15",
",@	c #5D371F",
"'@	c #886144",
")@	c #754F34",
"!@	c #775135",
"~@	c #8F694A",
"{@	c #8E6849",
"]@	c #8E6649",
"^@	c #8A6244",
"/@	c #7E583C",
"(@	c #623D23",
"_@	c #613B21",
":@	c #5D371E",
"<@	c #6F5132",
"[@	c #7C563B",
"}@	c #7D563C",
"|@	c #7C553B",
"1@	c #724C32",
"2@	c #6E472D",
"3@	c #6B442A",
"4@	c #674126",
"5@	c #684026",
"6@	c #6B4E2B",
"7@	c #6C4F2F",
"8@	c #512B14",
"9@	c #6B4B2F",
"0@	c #7A5339",
"a@	c #795239",
"b@	c #775238",
"c@	c #6B4E2D",
"d@	c #6A4D2B",
"e@	c #6B4E2C",
"f@	c #512B13",
"g@	c #7F8124",
"h@	c #6A482F",
"i@	c #6A492F",
"j@	c #7A533A",
"k@	c #775138",
"l@	c #765137",
"m@	c #6C4F30",
"n@	c #6B4D2D",
"o@	c #502A14",
"p@	c #532D17",
"q@	c #542E17",
"r@	c #6B4B30",
"s@	c #4F2913",
"t@	c #686F16",
"                                                                                                                                ",
"                                                                                                                                ",
"                                                                                                                                ",
"                                                                                                                                ",
"                                                                                                                                ",
"                                                                                                                                ",
"                                                                                                                                ",
"                                                                                                            . .                 ",
"                                                                                                              . +         .     ",
"                                                  .                                                           + + +   + .       ",
"                                        . . +     + +                                                   . + + @ + + + + @       ",
"                                          . + +   @ +     .                                               + + # # @ + + @       ",
"                                          @ + + $ $   + + @                                               @ # % % # + @         ",
"                                        . + @ + & $   + + @                                                 * # # *   = =       ",
"                                        @ - - @ * *   @ @                                               = =   * *     % =       ",
"                                        - & & - @ - -       ; > > > ,                                 = % % =         * *       ",
"                                        * - - * - & -   ' ) ! ! ~ ! { , >                             * = = *                   ",
"                                          * *   - - * ] ^ / ( ( _ : < [ [ }                             * *                     ",
"                                                * *   | ^ 1 2 3 4 4 5 6 7 8                                                     ",
"                                                      9 ^ 0 a b 5 5 5 c c d                                                     ",
"                                                      e f f c c c c c g h i                                                     ",
"                                                        j j f f f k l m n                                                       ",
"                                                        o p q r s t u v w                                                       ",
"                                                        x y z A B C D E F         . .                                           ",
"                                                        x G H I J K L E F     + + .                                             ",
"                                                        M N H O J P Q R S .   + + @                                             ",
"          . .                                         T U < V W X Y Z `  ...+ @ @                                               ",
"            . + +       . .                         +.@.#.$.%.&.*.t =.-.;.>.,.                                                  ",
"            @ + +     + .                         < '.).!.~.~.~.{.$.].^./.(._.:.                                                ",
"              @ @   + + +                         <.[.}.|.1.1.1.2.3.4.5.6.-.7.8.                                                ",
"                    + + @                       9.0.a.b.b.c.c.c.a.3.d.4.<.e.f.g.h.                                              ",
"                    @ @                         i.j.k.l.m.n.n.n.o.p.q.<.r.G s.t.u.                                              ",
"                                              v.w.a.x.y.z.A.A.A.B.C.D.E.F.].s.G.H.I.                                            ",
"                                              J.j.|.B.K.z.A.A.A.L.M.D.D.N.O.s.P.Q.u.                                            ",
"                                              R.S.T.U.K.z.V.V.A.K.W.X.Y.r.].o.Z.`. +                                            ",
"                                              .+k.T.++@+@+V.V.V.z.#+$+%+&+*+#.=+-+;+                                            ",
"                          + .               >+,+'+m.)+!+!+~+~+~+{+]+^+%+/+#.@.(+_+:+<+                                          ",
"                            . .             [+).4.}+|+1+2+@+@+!+3+4+W.5+3.6+7+8+9+0+..                                          ",
"                            + + +           a+b+c+d+e+e+n.n.b.b.b.f+p.g+h+i+j+k+l+m+n+                                          ",
"                            @ + + @ + + . . a+<.$./.C.e+o+p+p+p+q+q+r+s+r.t+u+v+w+x+y+                                          ",
"                              $ $ + + +     z+A+<.B+C+C.D+B.E+B.q.r+s+F+G+H+I+J+K+L+M+                                          ",
"                            $ & $ + + @     _+U @.3.N+O+P+j+Q+R+S+T+r.U+V+W+X+(+Y+Z+`+                                          ",
"                            $ $ * + @          @.@N.+@3./+{.@@#@$@%@&@*@=@C+(+-@;@>@                                            ",
"                            * *               ,@'@)@)@!@~@{@c+]@d.%@%@^@/@(@_@:@<@n                                             ",
"                                                <+[@}@|@)@)@1@6+2@3@4@5@4@6@6@7@8@                                              ",
"                                                  :.9@g g g 0@5 5 a@b@b@c@d@e@f@                  g@                            ",
"                                                    x+h@i@j@j@k@k@l@b@m@n@d@o@                  + +     g@+ +                   ",
"                                                    . p@q@i@r@r@r@9@m@m@o@s@              g@    + t@  + g@g@                    ",
"                                                  + +     8@8@8@8@8@8@s@                    g@+ t@  + + g@t@                    ",
"                                                  + + @                                   t@+ +     + + t@+ g@                  ",
"                                                  @ @ + .                                   t@+     - - + + t@                  ",
"                                                      + +                                     t@  - & & - t@                    ",
"                                                      @ @                                         * - - *                       ",
"                                                                                              - &   * *                         ",
"            . .           .                                                                   - -                               ",
"              . + +   + .                                                                     * *                               ",
"        + . . @ + @ + + @                                                                                                       ",
"          . + + $ $ + + @     - -                                                                                               ",
"          @ + $ & & $ @       & -                                         + g@g@                                                ",
"            @ * $ $ * - -     * *                                           g@+ +                                               ",
"                * * - & -                                                   t@+ +                                               ",
"                    - - *                                                     t@t@                                              ",
"                    * *                                                                                                         ",
"                                                                                                                                "};
