/* XPM */
static char * scale_xpm[] = {
"64 64 275 2",
"  	c #72751B",
". 	c #73761F",
"+ 	c #737623",
"@ 	c #75782A",
"# 	c #7B7D3D",
"$ 	c #81844E",
"% 	c #868858",
"& 	c #87895A",
"* 	c #868859",
"= 	c #868942",
"- 	c #818431",
"; 	c #8D8F67",
"> 	c #A0A186",
", 	c #AAAC97",
"' 	c #AEAF9C",
") 	c #AFB09D",
"! 	c #AFB09C",
"~ 	c #797C25",
"{ 	c #7F8226",
"] 	c #BCBDAF",
"^ 	c #CBCCC4",
"/ 	c #CFD0C9",
"( 	c #CECEC8",
"_ 	c #CDCEC7",
": 	c #CFCFC8",
"< 	c #868850",
"[ 	c #787B21",
"} 	c #DBDBD9",
"| 	c #DADAD9",
"1 	c #D3D3D2",
"2 	c #CFCFCE",
"3 	c #CECECD",
"4 	c #CCCDC4",
"5 	c #ADAE97",
"6 	c #7D8157",
"7 	c #797C28",
"8 	c #656C17",
"9 	c #CCCCCC",
"0 	c #B9B9B9",
"a 	c #ADADAD",
"b 	c #AAAAAA",
"c 	c #ABABAB",
"d 	c #ACACAC",
"e 	c #AEAEAE",
"f 	c #D0D0CA",
"g 	c #B0B19C",
"h 	c #C2A469",
"i 	c #BD9945",
"j 	c #919191",
"k 	c #757575",
"l 	c #717171",
"m 	c #777777",
"n 	c #767676",
"o 	c #747474",
"p 	c #727272",
"q 	c #707070",
"r 	c #6D6D6D",
"s 	c #CDCDC8",
"t 	c #D0BEA2",
"u 	c #AC8B66",
"v 	c #A37940",
"w 	c #BD9842",
"x 	c #4F4F4F",
"y 	c #5C5C5C",
"z 	c #7B7B7B",
"A 	c #7C7C7C",
"B 	c #737373",
"C 	c #626262",
"D 	c #484848",
"E 	c #313131",
"F 	c #2B2B2B",
"G 	c #2C2C2C",
"H 	c #2D2D2D",
"I 	c #2A2A2A",
"J 	c #202020",
"K 	c #373737",
"L 	c #AAAC9C",
"M 	c #C2A368",
"N 	c #636917",
"O 	c #C6A740",
"P 	c #828282",
"Q 	c #A2A2A2",
"R 	c #B0B0B0",
"S 	c #858585",
"T 	c #565656",
"U 	c #1D1D1D",
"V 	c #000000",
"W 	c #010101",
"X 	c #020202",
"Y 	c #D1D0CE",
"Z 	c #DCD6C9",
"` 	c #7C8058",
" .	c #656B20",
"..	c #A2783C",
"+.	c #C7C7C7",
"@.	c #D5D5D5",
"#.	c #D7D7D7",
"$.	c #C8C8C8",
"%.	c #A5A5A5",
"&.	c #6E6E6E",
"*.	c #2F2F2F",
"=.	c #121212",
"-.	c #171717",
";.	c #181818",
">.	c #131313",
",.	c #D0CFCE",
"'.	c #D5CEC9",
").	c #D5C5A1",
"!.	c #E4E4E4",
"~.	c #E6E6E6",
"{.	c #B1B1B1",
"].	c #323232",
"^.	c #070707",
"/.	c #090909",
"(.	c #080808",
"_.	c #0B0B0B",
":.	c #1B1B1B",
"<.	c #1C1C1C",
"[.	c #E7E7E7",
"}.	c #B2B2B2",
"|.	c #787878",
"1.	c #333333",
"2.	c #030303",
"3.	c #101010",
"4.	c #141414",
"5.	c #191919",
"6.	c #CECFCE",
"7.	c #CCCCC7",
"8.	c #D6D6D6",
"9.	c #3E3E3E",
"0.	c #353535",
"a.	c #4A4A4A",
"b.	c #515151",
"c.	c #525252",
"d.	c #4E4E4E",
"e.	c #424242",
"f.	c #1A1A1A",
"g.	c #545454",
"h.	c #6A6A6A",
"i.	c #878787",
"j.	c #929292",
"k.	c #949494",
"l.	c #939393",
"m.	c #8B8B8B",
"n.	c #AFAFAF",
"o.	c #7A7A7A",
"p.	c #686868",
"q.	c #909090",
"r.	c #B4B4B4",
"s.	c #C3C3C3",
"t.	c #C6C6C6",
"u.	c #C4C4C4",
"v.	c #C5C5C5",
"w.	c #BABABA",
"x.	c #9C9C9C",
"y.	c #A4A4A4",
"z.	c #CDCDCD",
"A.	c #DDDDDD",
"B.	c #E0E0E0",
"C.	c #DEDEDE",
"D.	c #DFDFDF",
"E.	c #D2D2D2",
"F.	c #393939",
"G.	c #111111",
"H.	c #D4D4D4",
"I.	c #E5E5E5",
"J.	c #D9D9D9",
"K.	c #B7B7B7",
"L.	c #7F7F7F",
"M.	c #3A3A3A",
"N.	c #151515",
"O.	c #161616",
"P.	c #A9A9A9",
"Q.	c #D3D3D3",
"R.	c #B6B6B6",
"S.	c #3C3C3C",
"T.	c #252525",
"U.	c #272727",
"V.	c #222222",
"W.	c #A8A8A8",
"X.	c #E3E3E3",
"Y.	c #D8D8D8",
"Z.	c #B5B5B5",
"`.	c #4B4B4B",
" +	c #646464",
".+	c #6F6F6F",
"++	c #6B6B6B",
"@+	c #434343",
"#+	c #242424",
"$+	c #5D5D5D",
"%+	c #797979",
"&+	c #9B9B9B",
"*+	c #8C8C8C",
"=+	c #808080",
"-+	c #6C6C6C",
";+	c #969696",
">+	c #BFBFBF",
",+	c #D1D1D1",
"'+	c #CACACA",
")+	c #8B8D5B",
"!+	c #CECECE",
"~+	c #E1E1E1",
"{+	c #DADADA",
"]+	c #404040",
"^+	c #292929",
"/+	c #D0D0D0",
"(+	c #DCDCDC",
"_+	c #BCBCBC",
":+	c #868686",
"<+	c #414141",
"[+	c #676E20",
"}+	c #7D8258",
"|+	c #CECFC7",
"1+	c #A3A3A3",
"2+	c #CFCFCF",
"3+	c #E2E2E2",
"4+	c #DBDBDB",
"5+	c #BBBBBB",
"6+	c #CCCDC7",
"7+	c #CDCECD",
"8+	c #3F3F3F",
"9+	c #B1B29D",
"0+	c #A7A7A7",
"a+	c #7D7D7D",
"b+	c #A1A1A1",
"c+	c #838383",
"d+	c #3B3B3B",
"e+	c #CFCFC7",
"f+	c #7E7E7E",
"g+	c #888888",
"h+	c #343434",
"i+	c #D2D2D1",
"j+	c #989898",
"k+	c #959595",
"l+	c #9E9E9E",
"m+	c #696969",
"n+	c #B4B49E",
"o+	c #D9D9D8",
"p+	c #CBCBCB",
"q+	c #BEBEBE",
"r+	c #C9C9C9",
"s+	c #ABAD9C",
"t+	c #D4D4D3",
"u+	c #D8D9D7",
"v+	c #DEDEDD",
"w+	c #E0E0DF",
"x+	c #D7D8D6",
"y+	c #DDDEDC",
"z+	c #D7D7D5",
"A+	c #DCDCDB",
"B+	c #D5D5D4",
"C+	c #CFD0CF",
"D+	c #D1D1D0",
"E+	c #D4D3D3",
"F+	c #DEDDDD",
"G+	c #CACBC4",
"H+	c #CECFC8",
"I+	c #D8D8D6",
"J+	c #D9D9D7",
"K+	c #C9CAC4",
"L+	c #AEAF9B",
"M+	c #ADAE9B",
"N+	c #ACAD99",
"O+	c #ADAE9A",
"P+	c #CBC9C6",
"Q+	c #C2B4A4",
"R+	c #A9AB9C",
"S+	c #90935D",
"T+	c #BAB7B1",
"U+	c #80832C",
"V+	c #9CA8AD",
"W+	c #B3B0A9",
"X+	c #A2814F",
"Y+	c #7F8124",
"Z+	c #686F16",
"                                                                                                                                ",
"                                                                                                                                ",
"                                                                                                                                ",
"                                                                                                                                ",
"                                                                                                                                ",
"                                                                                                                                ",
"                  . . + + + + + + + + + + + + + + + + + + + + + + + + + + + + + + + + + + + + + + + + + + . .                   ",
"                @ # $ % & & * * * * * * * * * * * * * * * * * * * * * * * * * * * * * * * * * * * * & & % $ = -                 ",
"              . # ; > , ' ) ! ! ! ! ! ! ! ! ! ! ! ! ! ! ! ! ! ! ! ! ! ! ! ! ! ! ! ! ! ! ! ! ! ! ! ! ) ' , > ; = ~         {     ",
"              . $ > ] ^ / ( _ _ _ _ _ _ _ _ _ _ _ : _ _ _ _ _ _ _ _ _ _ _ _ _ _ _ _ _ _ _ _ _ _ _ _ ( / ^ ] > < ~ [   [ {       ",
"              + % , ^ } | 1 2 3 3 3 3 3 3 3 3 2 2 2 2 2 2 2 2 2 2 2 2 2 2 2 2 2 2 2 2 2 2 2 2 2 2 2 1 | } 4 5 6 7 [ [ [ 8       ",
"              + & ' / | 9 0 a b b b b b b b b c d a a a a a a a a a a a a a a a a a a a a a a d c e 0 9 | f g h i 8 [ [ 8       ",
"              + & ) ( 1 0 j k l k m m m m m n o p q q q q q q q q q q q q q q q q q q q q q q q r o j 0 1 s t u v w [ 8         ",
"              + * ! _ 2 a k x y p z A z A z B C D E F G H H H H H H H H H H H H H H H H H H H I J K o e 2 _ L M i N   O O       ",
"              + * ! _ 3 b l y P Q e R e R e Q S T U V W X X X X X X X X X X X X X X X X X X X W V J r c Y Z ! `  .    ..O       ",
"              + * ! _ 3 b k p Q +.@.#.@.#.@.$.%.&.*.V =.-.;.;.;.;.-.-.-.-.-.-.-.-.-.-.-.-.-.-.>.W I q d ,.'.).* +     N N       ",
"              + * ! _ 3 b m z e @.!.~.!.~.!.@.{.m ].V ^./.(.(.(.(._.=.;.:.<.<.<.<.<.<.<.<.<.<.-.X H q a Y Z L * +               ",
"              + * ! _ 3 b m A R #.~.[.~.[.~.#.}.|.1.2.3.>.>.>.4.>.=.4.5.<.<.<.<.<.<.<.<.<.<.<.-.X H q a 6.7.! * +               ",
"              + * ! _ 3 b m z e @.!.~.!.~.!.8.{.m 9.0.a.b.c.c.c.c.d.e.E J f.:.<.<.<.<.<.<.<.<.-.X H q a 2 _ ! * +               ",
"              + * ! _ 3 b m z e @.!.~.!.~.!.@.R |.g.h.i.j.k.l.k.l.m.k c.I 4.f.<.<.<.<.<.<.<.<.-.X H q a 2 _ ! * +               ",
"              + * ! _ 3 b m z e @.!.~.!.~.!.@.n.o.p.q.r.s.t.u.v.u.w.x.r 1.(.-.<.<.<.<.<.<.<.<.-.X H q a 2 _ ! * +               ",
"              + * ! _ 3 b m z e @.!.~.!.~.!.@.e z o y.z.A.B.C.B.D.E.{.z F.V G.-.-.-.-.-.;.5.:.-.X H q a 2 _ ! * +               ",
"              + * ! _ 3 b m z e @.!.~.!.~.!.@.e z m b H.I.[.~.[.~.J.K.L.M.V W X X X X X 2._.N.O.X H q a 2 _ ! * +               ",
"              + * ! _ 3 b m z e @.!.~.!.~.!.@.e z m P.Q.!.[.I.~.I.J.R.L.S.=.T.G H G H G F U.V.5.X G q a 2 _ ! * +               ",
"              + * ! _ 3 b m z e @.!.~.!.~.!.@.e z n W.E.X.~.!.~.!.Y.Z.L.a.`. +.+q .+q q ++y @+#+W G q a 2 _ ! * +               ",
"              + * ! _ 3 b m z e @.!.~.!.~.!.@.e z n W.E.X.~.!.~.!.Y.Z.L.$+%+&+b a c d d y.*+ +E V F q a 2 _ ! * +               ",
"          { { + * ! _ 3 b m z e @.!.~.!.~.!.@.e z n W.E.X.~.!.~.!.Y.r.=+-+;+>+,+H.Q.H.H.'+a z S.V I q a 2 _ ! * +               ",
"            { 7 )+! _ 3 b m z e @.!.~.!.~.!.@.e z n W.E.X.~.!.~.!.Y.r.=+p Q !+~+I.!.!.!.{+w.S ]+V ^+q a 2 _ ! * +               ",
"            8 7 )+! _ 3 b m z e @.!.~.!.~.!.@.e z n W.E.X.~.!.~.!.Y.r.=+B y./+!.[.~.[.[.(+_+:+<+V ^+q a 2 _ ! * +               ",
"              [+}+! |+3 b m z e @.!.~.!.~.!.@.e z n W.E.X.~.!.~.!.Y.r.=+p 1+2+3+~.I.I.I.4+5+:+<+V ^+q a 2 _ ! * +               ",
"              + * ! |+3 b m z e @.!.~.!.~.!.@.e z n W.E.X.~.!.~.!.Y.r.=+p 1+2+3+~.!.I.I.{+5+S <+V ^+q a 2 _ ! * +               ",
"              + * ! 6+7+b m z e @.!.~.!.~.!.@.e z n W.E.X.~.!.~.!.Y.r.=+p 1+2+3+~.!.I.I.{+5+S <+V ^+q a 2 _ ! * +               ",
"              + * ! _ 3 b m z e @.!.~.!.~.!.@.e z n W.E.X.~.!.~.!.Y.r.=+p 1+2+3+~.!.I.I.{+5+S <+V ^+q a 2 _ ! * +               ",
"              + * ! _ 3 b m z e @.!.~.!.~.!.@.e z n W.E.X.~.!.~.!.Y.r.=+p 1+2+3+~.!.I.I.{+5+S <+V ^+q a 2 _ ! * +               ",
"              + * ! _ 3 b m z e @.!.~.!.~.!.@.e z n W.E.X.~.!.~.!.Y.r.=+p 1+2+3+~.!.I.I.{+5+S <+V ^+q a 2 _ ! * +               ",
"              + * ! _ 3 b m z e @.!.~.!.~.!.@.e z n W.E.X.~.!.~.!.Y.r.=+p 1+2+3+~.!.I.I.{+5+S <+V ^+q a 2 _ ! * +               ",
"              + * ! _ 3 b m z e @.!.~.!.~.!.@.e z n W.E.X.~.!.~.!.Y.r.=+p 1+2+3+~.!.I.I.{+5+S <+V ^+q a 2 _ ! * +               ",
"              + * ! _ 3 b m z e @.!.~.!.~.!.@.e z n W.E.X.~.!.~.!.Y.r.=+p 1+2+3+~.!.I.I.{+5+S <+V ^+q a 2 _ ! * +               ",
"              + * ! _ 3 b m z e @.!.~.!.~.!.@.e z n W.E.X.~.!.~.!.Y.r.=+p 1+2+3+~.!.I.I.{+5+S <+V ^+q a 2 _ ! * +               ",
"              + * ! _ 3 b m z e @.!.~.!.~.!.@.e z n W.E.X.~.!.~.!.Y.r.=+p 1+2+3+~.!.I.I.{+5+S <+V ^+q a 2 _ ! * +               ",
"              + * ! _ 3 b m z e @.!.~.!.~.!.@.e z n W.E.X.~.!.~.!.Y.r.=+p 1+2+3+~.!.I.I.{+5+S <+V ^+q a 2 _ ! * +               ",
"              + * ! _ 3 b m z e @.!.~.!.~.!.@.e z n W.E.X.~.!.~.!.Y.r.=+p 1+2+3+~.!.I.I.{+5+S <+V ^+q a 2 _ ! * +               ",
"              + * ! _ 3 b m z e @.!.~.!.~.!.@.e z n W.E.X.~.!.~.!.Y.r.=+p 1+2+3+~.!.I.I.{+5+S <+V ^+q a 2 _ ! * +               ",
"              + * ! _ 3 b m z e @.!.~.!.~.!.@.e z n W.E.X.~.!.~.!.Y.r.=+p 1+2+3+~.!.I.I.{+5+S <+V ^+q a 2 _ ! * +               ",
"              + * ! _ 3 b m z e @.!.~.!.~.!.@.e z n W.E.X.~.!.~.!.Y.r.=+p 1+2+3+~.!.I.I.{+5+S <+V ^+q a 2 _ ! * +               ",
"              + * ! _ 3 b m z e @.!.~.!.~.!.@.e z n W.E.X.~.!.~.!.Y.r.=+p 1+2+3+~.!.I.I.{+5+S <+V ^+q a 2 _ ! * +               ",
"              + * ! _ 3 b m o.e @.!.~.!.~.!.@.e o.k W.E.X.~.!.~.!.Y.r.L.p Q 2+3+~.!.I.I.{+5+S 8+V U.q d 2 |+9+* +               ",
"              + * ! _ 3 P.o |.a @.!.~.!.~.!.@.a |.B 0+E.X.~.!.~.I.#.}.a+.+b+!+3+~.!.I.I.{+w.c+d+V :.r c 2 e+! * +               ",
"              + * ! _ 2 c o.f+n.@.!.~.!.~.!.@.n.f+%+b Q.X.~.!.~.!.Y.Z.c+n y./+3+~.!.I.I.{+5+g+D 4.h+o e 2 6+! * +               ",
"              + & ) ( i+K.;+j+w.Y.!.I.!.I.!.Y.w.j+k+K.8.!.~.!.I.!.{+>+&+l.}.Q.3+~.!.I.I.(+u.l+o.m+p j 0 1 : n+& +               ",
"              + & ' / o+p+5+_+z.A.!.I.!.I.!.A.z._+5+p+4+!.I.!.I.!.C.2+q+w.r+{+X.I.!.I.!.D.E.>+R b a 0 9 | f s+& +               ",
"              + % , ^ } o+1 t+u+v+w+w+w+w+w+v+u+t+1 x+y+w+w+w+w+w+v+o+t+1 z+A+w+w+w+w+w+v+| B+C+3 D+E+| F+G+, % +               ",
"              . $ > ] ^ / ( _ H+H+H+H+H+H+H+H+H+_ _ H+s s H+H+H+H+H+H+_ _ H+H+H+H+H+H+H+H+H+_ _ _ 7.I+J+K+] > $ .               ",
"              . # ; > , ' ' L+M+N+N+N+N+N+N+N+M+L+L+M+N+N+N+N+N+N+N+M+L+L+M+O+N+N+N+N+N+N+M+L+P+Q+! L R+, > ; # .               ",
"            { { @ # $ % & S+* * % % % % % % % * * * * % % % % % % % * * * * * % % % % % % * * T+T+* & & % $ # @                 ",
"              { [ ~ . 7 U++ + + + + + + + + + + + + + + + + + + + + + + + + + + + + + + + + +  . .+ + + + . .                   ",
"        [ { { 8 [ 8 [ [ 8                                                                                                       ",
"          { [ [ V+V+[ [ 8     W+W+                                                                                              ",
"          8 [ V+X+X+V+8       X+W+                                        [ Y+Y+                                                ",
"            8 N V+V+N W+W+    N N                                           Y+[ [                                               ",
"                N N W+X+W+                                                  Z+[ [                                               ",
"                    W+W+N                                                     Z+Z+                                              ",
"                    N N                                                                                                         ",
"                                                                                                                                "};
