/* XPM */
static char * wall_up2_xpm[] = {
"64 64 183 2",
"  	c #72751B",
". 	c #E6E6E6",
"+ 	c #D8D8D8",
"@ 	c #595959",
"# 	c #909090",
"$ 	c #C4C4C4",
"% 	c #454545",
"& 	c #A2A2A2",
"* 	c #090909",
"= 	c #171717",
"- 	c #949494",
"; 	c #D9D9D9",
"> 	c #B2B2B2",
", 	c #313131",
"' 	c #000000",
") 	c #757575",
"! 	c #535353",
"~ 	c #373737",
"{ 	c #9A9A9A",
"] 	c #DCDCDC",
"^ 	c #2E2E2E",
"/ 	c #0A0A0A",
"( 	c #212121",
"_ 	c #DEDEDE",
": 	c #7F8226",
"< 	c #C0C0C0",
"[ 	c #050505",
"} 	c #252525",
"| 	c #494949",
"1 	c #070707",
"2 	c #0F0F0F",
"3 	c #7D7D7D",
"4 	c #787B21",
"5 	c #5F5F5F",
"6 	c #6D6D6D",
"7 	c #BBBBBB",
"8 	c #020202",
"9 	c #0D0D0D",
"0 	c #1B1B1B",
"a 	c #BFBFBF",
"b 	c #121212",
"c 	c #0E0E0E",
"d 	c #E5E5E5",
"e 	c #DDDDDD",
"f 	c #393939",
"g 	c #959595",
"h 	c #656C17",
"i 	c #0C0C0C",
"j 	c #616161",
"k 	c #5B5B5B",
"l 	c #B5B5B5",
"m 	c #C3C3C3",
"n 	c #6F6F6F",
"o 	c #B7B7B7",
"p 	c #BD9842",
"q 	c #101010",
"r 	c #131313",
"s 	c #080808",
"t 	c #C1C1C1",
"u 	c #6B6B6B",
"v 	c #282828",
"w 	c #464646",
"x 	c #010101",
"y 	c #585858",
"z 	c #1A1A1A",
"A 	c #060606",
"B 	c #B4B4B4",
"C 	c #A2783C",
"D 	c #BABABA",
"E 	c #838383",
"F 	c #676767",
"G 	c #383838",
"H 	c #323232",
"I 	c #828282",
"J 	c #ADADAD",
"K 	c #D5D5D5",
"L 	c #969696",
"M 	c #7C7C7C",
"N 	c #878787",
"O 	c #111111",
"P 	c #B9B9B9",
"Q 	c #040404",
"R 	c #3B3B3B",
"S 	c #292929",
"T 	c #CFCFCF",
"U 	c #979797",
"V 	c #656565",
"W 	c #444444",
"X 	c #303030",
"Y 	c #242424",
"Z 	c #1D1D1D",
"` 	c #1E1E1E",
" .	c #5A5A5A",
"..	c #8B8B8B",
"+.	c #AEAEAE",
"@.	c #DFDFDF",
"#.	c #AFAFAF",
"$.	c #484848",
"%.	c #0B0B0B",
"&.	c #030303",
"*.	c #3D3D3D",
"=.	c #CECECE",
"-.	c #B3B0A9",
";.	c #D7D7D7",
">.	c #808080",
",.	c #565656",
"'.	c #767676",
").	c #232323",
"!.	c #161616",
"~.	c #C7C7C7",
"{.	c #9F9F9F",
"].	c #151515",
"^.	c #7E7E7E",
"/.	c #343434",
"(.	c #202020",
"_.	c #4C4C4C",
":.	c #181818",
"<.	c #5E5E5E",
"[.	c #989898",
"}.	c #141414",
"|.	c #8E8E8E",
"1.	c #505050",
"2.	c #333333",
"3.	c #777777",
"4.	c #7F7F7F",
"5.	c #898989",
"6.	c #717171",
"7.	c #2B2B2B",
"8.	c #797979",
"9.	c #818181",
"0.	c #191919",
"a.	c #5D5D5D",
"b.	c #414141",
"c.	c #888888",
"d.	c #A5A5A5",
"e.	c #4B4B4B",
"f.	c #737373",
"g.	c #575757",
"h.	c #4A4A4A",
"i.	c #727272",
"j.	c #ACACAC",
"k.	c #939393",
"l.	c #2A2A2A",
"m.	c #2F2F2F",
"n.	c #8A8A8A",
"o.	c #606060",
"p.	c #2D2D2D",
"q.	c #999999",
"r.	c #ABABAB",
"s.	c #4E4E4E",
"t.	c #1F1F1F",
"u.	c #525252",
"v.	c #3A3A3A",
"w.	c #6A6A6A",
"x.	c #363636",
"y.	c #4F4F4F",
"z.	c #C5C5C5",
"A.	c #696969",
"B.	c #555555",
"C.	c #3C3C3C",
"D.	c #262626",
"E.	c #707070",
"F.	c #787878",
"G.	c #B3B3B3",
"H.	c #7A7A7A",
"I.	c #8F8F8F",
"J.	c #747474",
"K.	c #3F3F3F",
"L.	c #1C1C1C",
"M.	c #E1E1E1",
"N.	c #CCCCCC",
"O.	c #353535",
"P.	c #E8E8E8",
"Q.	c #A6A6A6",
"R.	c #C2C2C2",
"S.	c #A0A0A0",
"T.	c #272727",
"U.	c #E2E2E2",
"V.	c #9CA8AD",
"W.	c #A2814F",
"X.	c #636917",
"Y.	c #7F8124",
"Z.	c #686F16",
"                                                                                                                                ",
"                                                                                                                                ",
"                              .                                                                                                 ",
"                                    +                                                                                           ",
"                                                                                                                                ",
"                                      @ #                                               $ %                                     ",
"                                      & * = - ;                                     > , ' )                                     ",
"                                        ! ' ' ~ {                               ] ^ ' / ( _                 : :                 ",
"                                        < [ * ' }                               | 1 2 ' 3                     : 4         :     ",
"                                          5 * ' ' 6                           7 8 ' 9 0                       4 4 4   4 :       ",
"                                        : a ' b ' c d   e                     f [ / ' g                 : 4 4 h 4 4 4 4 h       ",
"                                          : 6 ' i * !     j k l   m n 5 a   o ' ' ' ,                     4 4 p p h 4 4 h       ",
"                                          h 4 q ' r s t u ' ' v   w x ' y   z 1 A ' B   d                 h p C C p 4 h         ",
"      D E F G H v ( ( v H G 5 I J K     : 4 h L j M N 7 1 * O [ P x Q ' R # ' O ' S             T U V W X } S Y Z ` ,  ...+.@.  ",
"#.$./ * %.' Q 8 ' ' ' ' 8 Q ' &.i 9 *...=.-.;.>., ' , ,.' ' ' '.).Q [ ' ..!.[ ' Y I ~.    {.W ].' x s ' ' 1 ' [ * * Q ' ' ' ' $.",
"^./.' ' * ' ' ' ' 8 8 ' ' ' [ ' * ' ' 2 (.W N _.:.&.<.0 ' i 9 [.' }.' (.|.' !.' 1.2.' 2.3.4.^ i ' ' 8 ' ' ' ' ' ' ' ' ' ' ' ].' ",
"r @ 5.6./.* ' x 8 8 8 8 x ' / ' x 8 ' x ' 9 / 7.8.|.$.' %.' 9.:.* ' ' U [ 1 ' 0.F ' %.' &.:.a.4.3 b.s ' &.[ Q 8 ' ' x 8 8 x ' ' ",
"Q x ' q _.c.9.# d.B B d.# 9.4.e.` 1 ' ' ' ' / ' ' c.&.' ].= f.9 / ' *.g.s ' ' ! /.' ' %.x &.' x z h.i.N - {.> o j.k.9.i.1.l.&.x ",
"' i 2 Q ' ' ' x Q A A Q x ' }.m.u n.a.Z 1 i ' ' o.p.' b ' q.} [ ' b U 8 q ' b r.3.s.t.' x ' [ ' ' / q 1 ' ' A 9 A ' ' ].R u.# 5 ",
"' ' ' ' ' ' ' ' ' ' ' ' ' ' ' x ' ' 7.) f.X / }.V 8 ' 9 v.6.' ' A <.1.s ' ' w.i '  .n F x.' * ' ' ' &.8 8 A ' ' 8 1 s A Q &.' v ",
"L y.` &.' &.&.x ' ' ' ' x &.&.&.A / 7.E d   z.k.v x ' ' { O x O * 5.1 ' %.].A.' b B.P   ;.[.C.D.2 &.' ' ' 8 %.' ' ' ' ' ' ' * 2.",
"    d B c.E.2.l.Z r r Z l.2.5 F.G.            >.1 ' ' e.H.' ' 1 B.B.2 ' %.I.J.L J.u           @.B c.o.K.S t.!.].L.S ~ ! 5.D M.  ",
"                                            ~.}.x ' %.N.- ' ' O d A.' x O.  O.8 ' ' >                                           ",
"                                P.          E q &.' y.    o.s.Q.  _ W  .R.  S.x q ' x.                                          ",
"                                          + s ' ' r e                 4       ~ ' / ' d.                                        ",
"                                          g.' &.' H.                    : :   7 ' x &.T.                                        ",
"          : :                           r.1 i ' v ;                     : 4 4 h _.' 8 Q 4.                                      ",
"            : 4 4       : :             % i ' X |.                      h 4 4   R.m./ ' (.U.                                    ",
"            h 4 4     4 :             G.s b ) U.                          h         {./.' J.                                    ",
"              h h   4 4 4                                                                                                       ",
"                    4 4 h                                                                                                       ",
"                    h h                                                                                                         ",
"                                                                                                                                ",
"                                                                                                                                ",
"                                                                                                                                ",
"                                                                                                                                ",
"                          4 :                                                                                                   ",
"                            : :                                                                                                 ",
"                            4 4 4                                                                                               ",
"                            h 4 4 h 4 4 : :                                                                                     ",
"                              V.V.4 4 4                                                                                         ",
"                            V.W.V.4 4 h                                                                                         ",
"                            V.V.X.4 h                                                                                           ",
"                            X.X.                                                                                                ",
"                                                                                                                                ",
"                                                                                                  Y.                            ",
"                                                      :                                         4 4     Y.4 4                   ",
"                                                    :                                     Y.    4 Z.  4 Y.Y.                    ",
"                                                  4 4                                       Y.4 Z.  4 4 Y.Z.                    ",
"                                                  4 4 h                                   Z.4 4     4 4 Z.4 Y.                  ",
"                                                  h h 4 :                                   Z.4     -.-.4 4 Z.                  ",
"                                                      4 4                                     Z.  -.W.W.-.Z.                    ",
"                                                      h h                                         X.-.-.X.                      ",
"                                                                                              -.W.  X.X.                        ",
"            : :           :                                                                   -.-.                              ",
"              : 4 4   4 :                                                                     X.X.                              ",
"        4 : : h 4 h 4 4 h                                                                                                       ",
"          : 4 4 V.V.4 4 h     -.-.                                                                                              ",
"          h 4 V.W.W.V.h       W.-.                                        4 Y.Y.                                                ",
"            h X.V.V.X.-.-.    X.X.                                          Y.4 4                                               ",
"                X.X.-.W.-.                                                  Z.4 4                                               ",
"                    -.-.X.                                                    Z.Z.                                              ",
"                    X.X.                                                                                                        ",
"                                                                                                                                "};
