/* XPM */
static char * wall_up1_xpm[] = {
"64 64 206 2",
"  	c #72751B",
". 	c #7F8226",
"+ 	c #787B21",
"@ 	c #656C17",
"# 	c #BD9842",
"$ 	c #9CA8AD",
"% 	c #A2783C",
"& 	c #A2814F",
"* 	c #636917",
"= 	c #C6A740",
"- 	c #B3B0A9",
"; 	c #B8B8B8",
"> 	c #7E7E7E",
", 	c #3B3B3B",
"' 	c #343434",
") 	c #E1E1E1",
"! 	c #BFBFBF",
"~ 	c #575757",
"{ 	c #101010",
"] 	c #000000",
"^ 	c #020202",
"/ 	c #070707",
"( 	c #050505",
"_ 	c #C2C2C2",
": 	c #595959",
"< 	c #1B1B1B",
"[ 	c #B9B9B9",
"} 	c #4F4F4F",
"| 	c #040404",
"1 	c #8C8E63",
"2 	c #ABABAB",
"3 	c #898989",
"4 	c #767676",
"5 	c #606060",
"6 	c #5A5A5A",
"7 	c #5F5F5F",
"8 	c #717171",
"9 	c #838383",
"0 	c #888888",
"a 	c #868686",
"b 	c #828282",
"c 	c #787878",
"d 	c #929292",
"e 	c #C0C0C0",
"f 	c #3E3E3E",
"g 	c #090909",
"h 	c #030303",
"i 	c #060606",
"j 	c #0E0E0E",
"k 	c #111111",
"l 	c #D9D9D4",
"m 	c #A7A7A7",
"n 	c #414141",
"o 	c #010101",
"p 	c #0C0C0C",
"q 	c #0A0A0A",
"r 	c #B1B29F",
"s 	c #5C5C5C",
"t 	c #0B0B0B",
"u 	c #080808",
"v 	c #E5E5E5",
"w 	c #232323",
"x 	c #202020",
"y 	c #464646",
"z 	c #959595",
"A 	c #747474",
"B 	c #656565",
"C 	c #4D4D4D",
"D 	c #242424",
"E 	c #1A1A1A",
"F 	c #141414",
"G 	c #151515",
"H 	c #171717",
"I 	c #B5B5B5",
"J 	c #494949",
"K 	c #919191",
"L 	c #818181",
"M 	c #323232",
"N 	c #CDCDCD",
"O 	c #E3E3E3",
"P 	c #D8D8D8",
"Q 	c #B2B2B2",
"R 	c #131313",
"S 	c #0F0F0F",
"T 	c #2E2E2E",
"U 	c #4E4E4E",
"V 	c #2A2A2A",
"W 	c #A8A8A8",
"X 	c #A4A4A4",
"Y 	c #D3D3D3",
"Z 	c #222222",
"` 	c #181818",
" .	c #5B5B5B",
"..	c #9B9B9B",
"+.	c #282828",
"@.	c #A3A3A3",
"#.	c #252525",
"$.	c #373737",
"%.	c #757575",
"&.	c #E3E4E2",
"*.	c #C6C6C6",
"=.	c #E3E3E2",
"-.	c #969696",
";.	c #404040",
">.	c #E7E7E7",
",.	c #E2E2E2",
"'.	c #2D2D2D",
").	c #E8E8E8",
"!.	c #3D3D3D",
"~.	c #0D0D0D",
"{.	c #6A6A6A",
"].	c #CDCDC5",
"^.	c #6F6F6F",
"/.	c #989898",
"(.	c #191919",
"_.	c #434343",
":.	c #3C3C3C",
"<.	c #2B2B2B",
"[.	c #5E5E5E",
"}.	c #646464",
"|.	c #ADADAD",
"1.	c #AFAFAF",
"2.	c #C8C8C8",
"3.	c #262626",
"4.	c #9A9A9A",
"5.	c #D9D9D9",
"6.	c #6E6E6E",
"7.	c #707070",
"8.	c #505050",
"9.	c #BBBBBB",
"0.	c #161616",
"a.	c #979797",
"b.	c #A0A185",
"c.	c #DEDEDE",
"d.	c #DBDBDB",
"e.	c #1F1F1F",
"f.	c #CECECE",
"g.	c #6C6C6C",
"h.	c #8E8E8E",
"i.	c #272727",
"j.	c #E6E6E6",
"k.	c #303030",
"l.	c #2F2F2F",
"m.	c #616161",
"n.	c #727272",
"o.	c #C4C4C4",
"p.	c #4C4C4C",
"q.	c #939393",
"r.	c #212121",
"s.	c #8A8A8A",
"t.	c #C5C5C5",
"u.	c #545454",
"v.	c #515151",
"w.	c #1C1C1C",
"x.	c #484848",
"y.	c #A1A1A1",
"z.	c #676767",
"A.	c #636363",
"B.	c #393939",
"C.	c #121212",
"D.	c #565656",
"E.	c #9E9E9E",
"F.	c #7C7C7C",
"G.	c #B3B3B3",
"H.	c #B7B7B7",
"I.	c #BABABA",
"J.	c #383838",
"K.	c #535353",
"L.	c #D0D0D0",
"M.	c #7F7F7F",
"N.	c #DDDDDD",
"O.	c #C3C3C3",
"P.	c #333333",
"Q.	c #2C2C2C",
"R.	c #4B4B4B",
"S.	c #C0C1B3",
"T.	c #B0B0B0",
"U.	c #7F8124",
"V.	c #CACACA",
"W.	c #9F9F9F",
"X.	c #3A3A3A",
"Y.	c #9C9C9C",
"Z.	c #292929",
"`.	c #686F16",
" +	c #A2A2A2",
".+	c #858585",
"++	c #5D5D5D",
"@+	c #ADAF9E",
"#+	c #D2D2D2",
"$+	c #BCBCBC",
"%+	c #353535",
"&+	c #444444",
"*+	c #BDBDBD",
"=+	c #424242",
"-+	c #CCCCCC",
";+	c #B1B1B1",
">+	c #8D8D8D",
",+	c #D5D5D5",
"'+	c #C9C9C9",
")+	c #1D1D1D",
"!+	c #DFDFDF",
"~+	c #808080",
"{+	c #8C8C8C",
"]+	c #E0E0E0",
"^+	c #666666",
"/+	c #797979",
"                                                                                                                                ",
"                                                                                                                                ",
"                                                                                                                                ",
"                                                                                                                                ",
"                                                                                                                                ",
"                                                                                                                                ",
"                                                                                                                                ",
"                                                                                                            . .                 ",
"                                                                                                              . +         .     ",
"                                                  .                                                           + + +   + .       ",
"                                        . . +     + +                                                   . + + @ + + + + @       ",
"                                          . + +   @ +     .                                               + + # # @ + + @       ",
"                                          @ + + $ $   + + @                                               @ # % % # + @         ",
"                                        . + @ + & $   + + @                                                 * # # *   = =       ",
"                                        @ - - @ * *   @ @                                               = =   * *     % ; > , ' ",
"                                        - & & - @ - -                                                 = % % )     ! ~ { ] ^ / ( ",
"                                        * - - * - & -                                                 * = = * _ : < ( ] ] ] ] ] ",
"                                          * *   - - *                                                   * * [ } ] ] | | ] ^ ] ] ",
"                                                * *                                             1 2 3 4 5 6 7 8 9 3 0 a b > c d ",
"                                                                                            e f ] g ] ] ] ] g g h ] ] i j k h i ",
"                                                                                    l   m n ] ( | h i ^ o p ] ] ] ] h ( ] ] q i ",
"                                                                                    r s t ] ] u ] ] ( ] ] / j t h ] ] ] h ^ ] ] ",
"                                                                              r   v w ] i h k ] ] x y > z A 8 8 B C ' D E F G H ",
"                                                                                I ] u ] ] | ] J K L M ] ] / N O                 ",
"                                                        P             +       Q R ] ( S ] T z U ] ] u ] V W                     ",
"                                                        X               . . Y Z ] ` ] ]  ...G ] / p ] +.@.                      ",
"          . .                                           #.)             . + $.u ] ] g %.a ( ] ( S ] #.e   &.                    ",
"            . + +       . .                           *.t K             =.-.^ ] k R s C k h t i ] ;.>.  ,.                      ",
"            @ + +     + .                             z ] '.            ).H ] ] u 4 !.~.u ] ] ] {.].                            ",
"              @ @   + + +                             ^.] ] *.      >.  /.] ^ , 9 (.u ] ] g j a                                 ",
"                    + + @                             _.i ] :.    1     <.] [.}.] q ] u t q |.    r                             ",
"                    @ @                               E ] h (.1.      2.3.4.' k { ] p ] +.5.                                    ",
"                                                      D o ] ] }         6.] ] ] ] { ] 7.                                        ",
"                                                      8.G ] p ] 9.  ).f q g h h ] 0.a.                                          ",
"                                            b.        c.T ] ] q <.d.e.o p ] o ] ;.f.                                            ",
"                                                        d / ` ] u g.#.o o ] j h.b.    r                                         ",
"                          + .                           v 5 ] S ] j a ] G i.0 l l     b.                                        ",
"                            . .                           j.k.] ] ] l.m.n n.] ].                                                ",
"                            + + +                         1 o.^ p ] ] p.q.k r.%.k M !.}.s.t.j.].                                ",
"                            @ + + @ + + . .             |.u.7.-.p q ~.o v.F w.7 | g ] k ] ] h x.y.c.                            ",
"                              $ $ + + +               ) M ] ] z.A.] w.] ^ c A.B.] p h ] ] C.D.E.1                               ",
"                            $ & $ + + @               2.] p ] ] %.F.] i | ] W z G.H.Q K Q I.                                    ",
"                            $ $ * + @         1         J.] / ] (.{.K.( h ] t W                                                 ",
"                            * *                 j.      L.k.] k ] o 5 M.] / ] E j.                                              ",
"                                                      N.|.O.P.] ] u R Q.b j x R.                                                ",
"                                                    S.3.] R ..D.] ] ] ~.D T.G.&.  ).              U.                            ",
"                                                    V.i ^ h ]  .a p o ] ( { W.                  + +     U.+ +                   ",
"                                                    V.] ^ ] j k X.Y.Z.] 0.] ] P b.        U.    + `.  + U.U.                    ",
"                                              ).  + +  +{ ] ] ] ] j .+++] w w.              U.+ `.  + + U.`.                    ",
"                                                  + + @+#+M ] ( o u ] , -.Y.l             `.+ +     + + `.+ U.                  ",
"                                S.    ].          @ $+%+0 [.A F i ] ] ( ] &+*+              `.+     - - + + `.                  ",
"                                          1     >.7.] g 3 ] F M.5 q t q ] ` ] =+-+            `.  - & & - `.                    ",
"                                              a R ] k ] :.:.] s.< F.X.] ] ] ] < ] &+d.            * - - *                       ",
"                                        r   }.^ ] q ] ] C F.C.c o ] #.E.x.] ] ] { h x         - &   * *                         ",
"            . .           .               #+0.] ] ] x %.V.V.g.x / { ] z.l ;+$.] S ] ] >+      - -                               ",
"              . + +   + .           b.    : ] g g p.,+      4.| ] ] ~.      ) X u ] R j ).    * *                               ",
"        + . . @ + @ + + @               ,+r.] ~ '+    b.  v U | ] )+$.!+          c S S Y.                                      ",
"          . + + $ $ + + @     - -       ~+' ;             r i ] F ] {+4.S.          ,+z.D                                       ",
"          @ + $ & & $ @       & -     ].O >.              b ] p ] :.v.i.  + U.U.        >.]+                                    ",
"            @ * $ $ * - -     * *                         =+] i ] {.D ^ #+  U.+ +                                               ",
"                * * - & -                               N.g ] ] p {+] ] -.  `.+ +                                               ",
"                    - - *                               t.] h ] ` 4 ] ] ^+    `.`.                                              ",
"                    * *                                 @.| ] g J.f ( / f                                                       ",
"                                                        /+] ] ~.{.F ^ ] w.                                                      "};
