/* XPM */
static char * wall_down_3_xpm[] = {
"64 64 216 2",
"  	c #72751B",
". 	c #D9D9D9",
"+ 	c #070707",
"@ 	c #000000",
"# 	c #080808",
"$ 	c #141414",
"% 	c #9A9A9A",
"& 	c #030303",
"* 	c #090909",
"= 	c #333333",
"- 	c #D4D4D4",
"; 	c #010101",
"> 	c #1D1D1D",
", 	c #A4A4A4",
"' 	c #050505",
") 	c #323232",
"! 	c #D6D6D6",
"~ 	c #171717",
"{ 	c #A0A0A0",
"] 	c #020202",
"^ 	c #060606",
"/ 	c #3F3F3F",
"( 	c #DCDCDC",
"_ 	c #0D0D0D",
": 	c #959595",
"< 	c #4E4E4E",
"[ 	c #E2E2E2",
"} 	c #838383",
"| 	c #5D5D5D",
"1 	c #161616",
"2 	c #181818",
"3 	c #6C6C6C",
"4 	c #757575",
"5 	c #2A2A2A",
"6 	c #3D3D3D",
"7 	c #474747",
"8 	c #9C9C9C",
"9 	c #616161",
"0 	c #6B6B6B",
"a 	c #232323",
"b 	c #C4C4C4",
"c 	c #7F8226",
"d 	c #CDCDC5",
"e 	c #A6A6A6",
"f 	c #848484",
"g 	c #E3E3E3",
"h 	c #D9D9D4",
"i 	c #787B21",
"j 	c #DEDEDE",
"k 	c #1B1B1B",
"l 	c #3B3B3B",
"m 	c #C1C1C1",
"n 	c #2E2E2E",
"o 	c #585858",
"p 	c #2D2D2D",
"q 	c #979797",
"r 	c #D7D7D7",
"s 	c #C8C8C8",
"t 	c #909264",
"u 	c #656C17",
"v 	c #BDBEB3",
"w 	c #D8D8D8",
"x 	c #313131",
"y 	c #7C7C7C",
"z 	c #696969",
"A 	c #969696",
"B 	c #AFAFAF",
"C 	c #383838",
"D 	c #828282",
"E 	c #BD9842",
"F 	c #9CA8AD",
"G 	c #1C1C1C",
"H 	c #797979",
"I 	c #4A4A4A",
"J 	c #404040",
"K 	c #C7C7C7",
"L 	c #565656",
"M 	c #A2783C",
"N 	c #A2814F",
"O 	c #DADADA",
"P 	c #373737",
"Q 	c #222222",
"R 	c #8A8A8A",
"S 	c #E4E4E4",
"T 	c #0C0C0C",
"U 	c #A7A7A7",
"V 	c #747474",
"W 	c #B1B29F",
"X 	c #636917",
"Y 	c #C6A740",
"Z 	c #B3B0A9",
"` 	c #8F8F8F",
" .	c #131313",
"..	c #A8A8A8",
"+.	c #0A0A0A",
"@.	c #1F1F1F",
"#.	c #727272",
"$.	c #D3D3D3",
"%.	c #E3E4E2",
"&.	c #808080",
"*.	c #040404",
"=.	c #DDDDDD",
"-.	c #3A3A3A",
";.	c #0B0B0B",
">.	c #494949",
",.	c #7F7F7F",
"'.	c #2F2F2F",
").	c #717171",
"!.	c #737373",
"~.	c #BFBFBF",
"{.	c #515151",
"].	c #0E0E0E",
"^.	c #4C4C4C",
"/.	c #212121",
"(.	c #818181",
"_.	c #444444",
":.	c #4B4B4B",
"<.	c #121212",
"[.	c #303030",
"}.	c #999C85",
"|.	c #B7B7B7",
"1.	c #353535",
"2.	c #1E1E1E",
"3.	c #5F5F5F",
"4.	c #8E8E8E",
"5.	c #636363",
"6.	c #E0E0E0",
"7.	c #C0C1B3",
"8.	c #AAAAAA",
"9.	c #3C3C3C",
"0.	c #151515",
"a.	c #767676",
"b.	c #8B8B8B",
"c.	c #E8E8E8",
"d.	c #8C8E63",
"e.	c #BABABA",
"f.	c #7E7E7E",
"g.	c #292929",
"h.	c #252525",
"i.	c #909090",
"j.	c #D2D2D2",
"k.	c #1A1A1A",
"l.	c #2C2C2C",
"m.	c #B3B3B3",
"n.	c #101010",
"o.	c #C5C5C5",
"p.	c #0F0F0F",
"q.	c #D0D0D0",
"r.	c #B4B4B4",
"s.	c #919191",
"t.	c #242424",
"u.	c #484848",
"v.	c #7B7B7B",
"w.	c #262626",
"x.	c #A3A3A3",
"y.	c #E6E6E6",
"z.	c #5C5C5C",
"A.	c #D5D5D5",
"B.	c #B2B2B2",
"C.	c #686868",
"D.	c #CECECE",
"E.	c #A1A1A1",
"F.	c #9B9B9B",
"G.	c #B5B5B5",
"H.	c #A5A5A5",
"I.	c #646464",
"J.	c #777777",
"K.	c #A0A185",
"L.	c #363636",
"M.	c #5A5A5A",
"N.	c #282828",
"O.	c #E5E5E5",
"P.	c #8D8D8D",
"Q.	c #2B2B2B",
"R.	c #111111",
"S.	c #878787",
"T.	c #A9A9A9",
"U.	c #414141",
"V.	c #666666",
"W.	c #989898",
"X.	c #595959",
"Y.	c #CACACA",
"Z.	c #898989",
"`.	c #393939",
" +	c #4F4F4F",
".+	c #191919",
"++	c #3E3E3E",
"@+	c #939393",
"#+	c #454545",
"$+	c #707070",
"%+	c #5B5B5B",
"&+	c #929292",
"*+	c #C6C6C6",
"=+	c #B1B1B1",
"-+	c #DBDBDB",
";+	c #ABABAB",
">+	c #272727",
",+	c #7F8124",
"'+	c #CDCDCD",
")+	c #464646",
"!+	c #676767",
"~+	c #7A7A7A",
"{+	c #686F16",
"]+	c #B6B6B6",
"^+	c #868686",
"/+	c #BCBCBC",
"(+	c #ACACAC",
"_+	c #555555",
":+	c #B0B0B0",
"<+	c #BDBDBD",
"[+	c #5E5E5E",
"}+	c #D1D1D1",
"|+	c #7D7D7D",
"1+	c #545454",
"2+	c #AEAEAE",
"3+	c #DFDFDF",
"                                                                        . + @ # $ % & @ * =                                     ",
"                                                                        - & @ ; > , ' @ + )                                     ",
"                                                                        ! + @ @ ~ { ] @ ^ /                                     ",
"                                                                        ( _ ; @ * : @ ; ^ <                                     ",
"                                                                        [ ~ @ * # } @ $ @ |                                     ",
"                                                                          1 @ @ 2 3 ] & ; 4                                     ",
"                                                                          5 _ @ 6 7 ^ @ * 8                                     ",
"                                                                          9 * @ 0 a & @ ] b                 c c                 ",
"                                                    d                     e @ ' f * @ @ + g           h       c i         c     ",
"                                                  c                       j @ k 3 @ @ + l                     i i i   i c       ",
"                                        c c i     i i     m                 n o p @ @ & q               r s t u i i i i u       ",
"                                          c i i   v i   w x y .             z A @ ] + @ [             B C D i E E u i i u       ",
"                                          u i i F F   i i , @ G H             I @ * @ J           K L @ @ u E M M E i u         ",
"                                        c i u i N F   i i O P @ @ Q R       S ' @ @ T U d     O 9 @ @ # V W X E E X   Y Y Y     ",
"                                        u Z Z u X X   u u   ` @ + @  .1 ..  z ; +.@ @.#.$.%.&._ @ _ @ *.=.Y   X X     M M Y     ",
"                                        Z N N Z u Z Z       O -.& @ ^ ;.@ >.,.'.@ @ ).k !.= @ @ *.@ @ V M M Y         X X       ",
"                                        X Z Z X Z N Z         ~.{.T ].@ @ # & ^.&./.(.& _.:.' <.@ [.4 }.Y Y X                   ",
"                                          X X   Z Z X             |.1.2.<.@ @ @ @ 3.: ;.@ 4.@ ] 5.6.    X X                     ",
"                                                X X       7.          8.9.G # ' @ + 0.a.5.b.Q $.  c.d.                          ",
"                                                                      g e.f.g.+.* ] @ ].h.K                 d                   ",
"                                                                    d <.# ] z a.+ *.^ @ * + i.                                  ",
"                                                                    j.k.@ T @ l.m.5 @ @ @ n.+ o.                                ",
"                                                                      (._ @ p.@ @ f V # ] @ @ $.                                ",
"                                                                    c.q.r.l.@ @ ^ + I s.@ ;.t.!                                 ",
"                                                                    u.@ ].v.w.k @ ^ @ 9.K x.y.                                  ",
"                                                                    ' n.; ^ #.z.@ @ 1 @ p A.  7.                                ",
"          c c                                                       B.<.@ @ @ C.H @ @ @ @ 2                                     ",
"            c i i       c c                             D.E.F.B.G.r.H.` _ p.& @ I.J.* @ ] +.b                                   ",
"            u i i     i c                         K.G.L # @ @ @ ^ @ L.| V @ ;.@ @ H M.@ @ N.O.                                  ",
"              u u   i i i                       7.P.Q.@ @ @ _ R.@ @ ).l.;.9 @ * @ <.v.S.o T.                                    ",
"                    i i u                               b f z.>.U.h.V.T @ W.X.*.^ @ $ m D.                                      ",
"                    u u                                         W   O.$ 4.x {.l.] @ @ P K.                                      ",
"                                                              d.    Y.Z.l.@ # Z.@ ^ R.@ M.                                      ",
"                                                          d         U T @ n.* _ I.*.@ ;.@ A                                     ",
"                                                                $.>.@ +.@ @ ;.Q [ `.@ @ 1 ; W                                   ",
"                                                            d ..p.# @ ; ] +.l K.  |.^ + @ R. +                                  ",
"                          i c                       7.      z.& @ <.@ @ <.V.g       z.@ ' +.@                                   ",
"                            c c                         r p + @ *.@ ] 9.y = (       e.n.] @ .+                                  ",
"                            i i i               K.    G.& ].@ +.^ @ V 9 ' )           X.@ @ ++                                  ",
"                            u i i u i i c c         V @ ' @ *.@ 0.@+h.@ @ %           m.; ' V.                                  ",
"                              F F i i i   7.      #+0.p.@ @ # 6 $+R.@ ^  .              ++@ q                                   ",
"                            F N F i i u       s n ^ & @ T + a.%+0.@ @ ;.&+y.            @+@ *+                                  ",
"                            F F X i u K.    r./ ' ] ; ] & &+3 ; @ +.$ w.d.  %.          r ) W                                   ",
"                            X X           { ) @ ^ @ @ /.=+:.; ' * & + -+                  4.                                    ",
"                                        8 Q @ ; @ + M.(.= @ @ ] @ h.e                                                           ",
"                                      ;+'.@ T -.(.)._._ @ & ^ @ >+T.    W                         ,+                            ",
"  '+q z )+l.k. .n.p.].p.<.k w.p M.!+~+y a.v.a.3.# 2.;.@ ^ @ @ L.B                               i i     ,+i i                   ",
"~ +.@ ; ' *.; @ + *.@ @ @ @ & ^ ] @ @ @ & + @ @ ^ ' @ @ ' * L =.                          ,+    i {+  i ,+,+                    ",
"+.& @ @ @ @ @ @ @ @ @ *.' ; @ @ # ' ;.* @ @ ; & @ <.+ @ L.]+                                ,+i {+  i i ,+{+                    ",
",.3 < n R.] ' n.].* ] @ @ & + # @ @ @ @ @ _ n.@ <.@ 7 m                 K.                {+i i     i i {+i ,+                  ",
"# .+P o #.^+% ;+/+(+q ^+f.,.f S.A D 4 !+_+%+!.&.:+r u i c                                   {+i     Z Z i i {+                  ",
"@ @ @ *.] @ @ ] @ @ @ ] ^ ^ ] @ @ @ J <+              i i                                     {+  Z N N Z {+                    ",
"@ @ @ @ ^ # *.@ @ @ @ # ' @ @ @ @ z .                 u u                                         X Z Z X                       ",
"2.<.] @ @ @ @ @ ' ; @ @ @ ^ x [+D.d.                                                          Z N   X X                         ",
"d }+U |+M.U.'.h.>+h.) 1+&.2+3+                                                                Z Z                               ",
"              c i i   i c                                                                     X X                               ",
"        i c c u i u i i u                                                                                                       ",
"          c i i F F i i u     Z Z                                                                                               ",
"          u i F N N F u       N Z                                         i ,+,+                                                ",
"            u X F F X Z Z     X X                                           ,+i i                                               ",
"                X X Z N Z                                                   {+i i                                               ",
"                    Z Z X                                                     {+{+                                              ",
"                    X X                                                                                                         ",
"                                                                                                                                "};
