/* XPM */
static char * exit_open_xpm[] = {
"64 64 677 2",
"  	c #72751B",
". 	c #7F8226",
"+ 	c #656C17",
"@ 	c #C6A740",
"# 	c #636917",
"$ 	c #787B21",
"% 	c #A2783C",
"& 	c #BD9842",
"* 	c #797C25",
"= 	c #797C28",
"- 	c #BD9945",
"; 	c #A37940",
"> 	c #656B20",
", 	c #737623",
"' 	c #73761F",
") 	c #818431",
"! 	c #868942",
"~ 	c #868850",
"{ 	c #7D8157",
"] 	c #C2A469",
"^ 	c #AC8B66",
"/ 	c #C2A368",
"( 	c #7C8058",
"_ 	c #868859",
": 	c #87895A",
"< 	c #868858",
"[ 	c #81844E",
"} 	c #7B7D3D",
"| 	c #75782A",
"1 	c #8D8F67",
"2 	c #A0A186",
"3 	c #ADAE97",
"4 	c #B0B19C",
"5 	c #D0BEA2",
"6 	c #AAAC9C",
"7 	c #AFB09C",
"8 	c #D5C5A1",
"9 	c #B1B29D",
"0 	c #B4B49E",
"a 	c #ABAD9C",
"b 	c #AAAC97",
"c 	c #6A492D",
"d 	c #6A482D",
"e 	c #69482C",
"f 	c #5B341C",
"g 	c #D0D0CA",
"h 	c #CDCDC8",
"i 	c #CDCEC7",
"j 	c #DCD6C9",
"k 	c #D5CEC9",
"l 	c #CCCCC7",
"m 	c #CECFC7",
"n 	c #CFCFC7",
"o 	c #CCCDC7",
"p 	c #CFCFC8",
"q 	c #CACBC4",
"r 	c #BCBDAF",
"s 	c #714F33",
"t 	c #714E33",
"u 	c #6B492E",
"v 	c #8C7554",
"w 	c #7D6345",
"x 	c #7D6344",
"y 	c #583319",
"z 	c #DADAD9",
"A 	c #D3D3D2",
"B 	c #CFCFCE",
"C 	c #D1D0CE",
"D 	c #D0CFCE",
"E 	c #CECFCE",
"F 	c #DEDDDD",
"G 	c #C9CAC4",
"H 	c #6C492E",
"I 	c #907755",
"J 	c #866C4C",
"K 	c #6B482E",
"L 	c #8D7654",
"M 	c #7E6445",
"N 	c #593219",
"O 	c #CCCCCC",
"P 	c #B9B9B9",
"Q 	c #AEAEAE",
"R 	c #ABABAB",
"S 	c #ACACAC",
"T 	c #ADADAD",
"U 	c #D9D9D7",
"V 	c #907856",
"W 	c #876D4C",
"X 	c #917A59",
"Y 	c #846B4B",
"Z 	c #6E5235",
"` 	c #919191",
" .	c #747474",
"..	c #6D6D6D",
"+.	c #707070",
"@.	c #D4D3D3",
"#.	c #D8D8D6",
"$.	c #6C492D",
"%.	c #7C6142",
"&.	c #8B7252",
"*.	c #704F32",
"=.	c #856C4C",
"-.	c #6D5135",
";.	c #373737",
">.	c #202020",
",.	c #2A2A2A",
"'.	c #2D2D2D",
").	c #2C2C2C",
"!.	c #2B2B2B",
"~.	c #292929",
"{.	c #272727",
"].	c #1B1B1B",
"^.	c #343434",
"/.	c #727272",
"(.	c #D1D1D0",
"_.	c #7D6143",
":.	c #927957",
"<.	c #8B7253",
"[.	c #6F4E31",
"}.	c #917A58",
"|.	c #6D5134",
"1.	c #593118",
"2.	c #000000",
"3.	c #010101",
"4.	c #020202",
"5.	c #141414",
"6.	c #696969",
"7.	c #AAAAAA",
"8.	c #CECECD",
"9.	c #6B472C",
"0.	c #7D6243",
"a.	c #9D8663",
"b.	c #907858",
"c.	c #8F7858",
"d.	c #6F4D30",
"e.	c #917A5B",
"f.	c #8B7153",
"g.	c #8A7252",
"h.	c #6C5133",
"i.	c #593119",
"j.	c #131313",
"k.	c #171717",
"l.	c #161616",
"m.	c #191919",
"n.	c #242424",
"o.	c #313131",
"p.	c #3C3C3C",
"q.	c #404040",
"r.	c #414141",
"s.	c #3F3F3F",
"t.	c #3B3B3B",
"u.	c #484848",
"v.	c #7A7A7A",
"w.	c #B0B0B0",
"x.	c #CFD0CF",
"y.	c #6B472D",
"z.	c #7E6343",
"A.	c #9D8763",
"B.	c #8F7758",
"C.	c #6E4B2F",
"D.	c #917A5C",
"E.	c #6C5033",
"F.	c #6B4F33",
"G.	c #573118",
"H.	c #1C1C1C",
"I.	c #151515",
"J.	c #222222",
"K.	c #434343",
"L.	c #646464",
"M.	c #7B7B7B",
"N.	c #858585",
"O.	c #868686",
"P.	c #838383",
"Q.	c #888888",
"R.	c #9E9E9E",
"S.	c #BFBFBF",
"T.	c #D5D5D4",
"U.	c #6B482C",
"V.	c #7E6243",
"W.	c #6C4A2E",
"X.	c #68462A",
"Y.	c #978165",
"Z.	c #8E7658",
"`.	c #8E7657",
" +	c #573117",
".+	c #0B0B0B",
"++	c #5C5C5C",
"@+	c #8C8C8C",
"#+	c #BABABA",
"$+	c #BCBCBC",
"%+	c #BBBBBB",
"&+	c #C4C4C4",
"*+	c #D2D2D2",
"=+	c #CECFC8",
"-+	c #9D8765",
";+	c #957D5D",
">+	c #6B492C",
",+	c #68452A",
"'+	c #978164",
")+	c #8E7557",
"!+	c #6B5032",
"~+	c #563016",
"{+	c #181818",
"]+	c #030303",
"^+	c #6B6B6B",
"/+	c #A4A4A4",
"(+	c #CACACA",
"_+	c #DADADA",
":+	c #DCDCDC",
"<+	c #DBDBDB",
"[+	c #DFDFDF",
"}+	c #DEDEDD",
"|+	c #6D4A2E",
"1+	c #7F6244",
"2+	c #9E8768",
"3+	c #6A472C",
"4+	c #8D7557",
"5+	c #8D7556",
"6+	c #6B4F32",
"7+	c #562F16",
"8+	c #D4D4D4",
"9+	c #E4E4E4",
"0+	c #E7E7E7",
"a+	c #E5E5E5",
"b+	c #E0E0DF",
"c+	c #6D482D",
"d+	c #7F6344",
"e+	c #9E8769",
"f+	c #947D5C",
"g+	c #674528",
"h+	c #664429",
"i+	c #6B4E32",
"j+	c #6B4E31",
"k+	c #562E16",
"l+	c #6C482D",
"m+	c #967F5E",
"n+	c #957D5C",
"o+	c #664127",
"p+	c #674328",
"q+	c #6A4F31",
"r+	c #6A4E31",
"s+	c #552E15",
"t+	c #6F6F6F",
"u+	c #D3D3D3",
"v+	c #E6E6E6",
"w+	c #7E6244",
"x+	c #9D8768",
"y+	c #947C5C",
"z+	c #644124",
"A+	c #644227",
"B+	c #8C7557",
"C+	c #6C4F33",
"D+	c #6C4F32",
"E+	c #552D15",
"F+	c #6C482C",
"G+	c #7F6345",
"H+	c #633D24",
"I+	c #686F16",
"J+	c #968063",
"K+	c #8A7052",
"L+	c #897051",
"M+	c #6B4E30",
"N+	c #542D15",
"O+	c #D1D1D1",
"P+	c #E1E1E1",
"Q+	c #E2E2E2",
"R+	c #E3E3E3",
"S+	c #7F6444",
"T+	c #7D6244",
"U+	c #9C8767",
"V+	c #8F7757",
"W+	c #623C22",
"X+	c #897150",
"Y+	c #6B4D30",
"Z+	c #1A1A1A",
"`+	c #111111",
" @	c #252525",
".@	c #9B9B9B",
"+@	c #CECECE",
"@@	c #D0D0D0",
"#@	c #CFCFCF",
"$@	c #DCDCDB",
"%@	c #6B472B",
"&@	c #7F6445",
"*@	c #6E4C2F",
"=@	c #7E6344",
"-@	c #9C8664",
";@	c #613B20",
">@	c #887050",
",@	c #886F4F",
"'@	c #6B5642",
")@	c #542C14",
"!@	c #080808",
"~@	c #121212",
"{@	c #4B4B4B",
"]@	c #797979",
"^@	c #969696",
"/@	c #A2A2A2",
"(@	c #A3A3A3",
"_@	c #A1A1A1",
":@	c #B2B2B2",
"<@	c #C9C9C9",
"[@	c #D7D7D5",
"}@	c #684428",
"|@	c #6D492C",
"1@	c #857664",
"2@	c #6F4C2F",
"3@	c #9C8662",
"4@	c #8B7251",
"5@	c #897050",
"6@	c #5E391E",
"7@	c #634025",
"8@	c #5E3A20",
"9@	c #5F391F",
"0@	c #59341B",
"a@	c #5E4834",
"b@	c #532C14",
"c@	c #333333",
"d@	c #393939",
"e@	c #3A3A3A",
"f@	c #4A4A4A",
"g@	c #5D5D5D",
"h@	c #6C6C6C",
"i@	c #737373",
"j@	c #767676",
"k@	c #939393",
"l@	c #654023",
"m@	c #684326",
"n@	c #796651",
"o@	c #6B462A",
"p@	c #674126",
"q@	c #694428",
"r@	c #664025",
"s@	c #5E381D",
"t@	c #623F24",
"u@	c #857460",
"v@	c #83725E",
"w@	c #6B5643",
"x@	c #694C30",
"y@	c #525252",
"z@	c #7F7F7F",
"A@	c #808080",
"B@	c #7D7D7D",
"C@	c #BEBEBE",
"D@	c #D4D4D3",
"E@	c #C8C8C1",
"F@	c #643E21",
"G@	c #785A3B",
"H@	c #613A1D",
"I@	c #857663",
"J@	c #8D7C67",
"K@	c #8C7B67",
"L@	c #897965",
"M@	c #5E361D",
"N@	c #623F25",
"O@	c #75604A",
"P@	c #75614C",
"Q@	c #75614B",
"R@	c #5F4734",
"S@	c #694C2E",
"T@	c #532B14",
"U@	c #424242",
"V@	c #757575",
"W@	c #9C9C9C",
"X@	c #B1B1B1",
"Y@	c #B7B7B7",
"Z@	c #B6B6B6",
"`@	c #B5B5B5",
" #	c #B4B4B4",
".#	c #D9D9D8",
"+#	c #61391D",
"@#	c #806544",
"##	c #61381D",
"$#	c #786651",
"%#	c #7D6852",
"&#	c #7D6953",
"*#	c #7C6852",
"=#	c #5C361C",
"-#	c #623E24",
";#	c #74604A",
">#	c #74614A",
",#	c #694C2F",
"'#	c #4E4E4E",
")#	c #8B8B8B",
"!#	c #D9D9D9",
"~#	c #D8D8D8",
"{#	c #D7D7D7",
"]#	c #DEDEDE",
"^#	c #60391D",
"/#	c #7A5E3F",
"(#	c #60381C",
"_#	c #613D24",
":#	c #552E16",
"<#	c #684C2F",
"[#	c #684C2E",
"}#	c #522B14",
"|#	c #765739",
"1#	c #5F371B",
"2#	c #5D361B",
"3#	c #5C361A",
"4#	c #5B341A",
"5#	c #603C22",
"6#	c #6E4D2F",
"7#	c #6E4C2D",
"8#	c #6C4C2E",
"9#	c #674A2E",
"0#	c #949494",
"a#	c #C5C5C5",
"b#	c #E0E0E0",
"c#	c #60391C",
"d#	c #7F6343",
"e#	c #866948",
"f#	c #795938",
"g#	c #785838",
"h#	c #5A3419",
"i#	c #5F3C22",
"j#	c #826949",
"k#	c #7C6243",
"l#	c #7B6142",
"m#	c #674B2E",
"n#	c #674B2D",
"o#	c #674A2D",
"p#	c #542D17",
"q#	c #7F6243",
"r#	c #7E6242",
"s#	c #7D6142",
"t#	c #8C7454",
"u#	c #83694A",
"v#	c #826849",
"w#	c #593319",
"x#	c #5F3B22",
"y#	c #664A2E",
"z#	c #664A2D",
"A#	c #512A13",
"B#	c #685240",
"C#	c #502913",
"D#	c #C6C6C6",
"E#	c #867664",
"F#	c #5F381B",
"G#	c #7D6141",
"H#	c #8D7454",
"I#	c #5E3A21",
"J#	c #82684A",
"K#	c #66492D",
"L#	c #65482C",
"M#	c #5B4432",
"N#	c #090909",
"O#	c #515151",
"P#	c #929292",
"Q#	c #C3C3C3",
"R#	c #DDDDDD",
"S#	c #786551",
"T#	c #5E361B",
"U#	c #7D5F40",
"V#	c #7C5F41",
"W#	c #8D7453",
"X#	c #816749",
"Y#	c #816748",
"Z#	c #583118",
"`#	c #5D3A21",
" $	c #81684A",
".$	c #775C3D",
"+$	c #775B3C",
"@$	c #66472B",
"#$	c #65472B",
"$$	c #070707",
"%$	c #101010",
"&$	c #878787",
"*$	c #CDCDCD",
"=$	c #D6D6D6",
"-$	c #DDDEDC",
";$	c #76644F",
">$	c #5D351A",
",$	c #7B5F3F",
"'$	c #7A5E3E",
")$	c #8C7353",
"!$	c #563018",
"~$	c #5D3920",
"{$	c #816949",
"]$	c #64472C",
"^$	c #644629",
"/$	c #353535",
"($	c #6A6A6A",
"_$	c #909090",
":$	c #A9A9A9",
"<$	c #A8A8A8",
"[$	c #A7A7A7",
"}$	c #CBCBCB",
"|$	c #D7D8D6",
"1$	c #75634E",
"2$	c #5C341A",
"3$	c #7A5D3D",
"4$	c #795C3C",
"5$	c #7B6041",
"6$	c #806747",
"7$	c #775B3D",
"8$	c #765B3C",
"9$	c #64462A",
"0$	c #644529",
"a$	c #5B4431",
"b$	c #1D1D1D",
"c$	c #2F2F2F",
"d$	c #323232",
"e$	c #3E3E3E",
"f$	c #545454",
"g$	c #686868",
"h$	c #777777",
"i$	c #959595",
"j$	c #5B3419",
"k$	c #74624D",
"l$	c #5A3319",
"m$	c #795B3B",
"n$	c #785B3C",
"o$	c #8A7152",
"p$	c #7A5F40",
"q$	c #5C3920",
"r$	c #806647",
"s$	c #634428",
"t$	c #624428",
"u$	c #53311C",
"v$	c #565656",
"w$	c #6E6E6E",
"x$	c #787878",
"y$	c #7E7E7E",
"z$	c #989898",
"A$	c #593218",
"B$	c #77593A",
"C$	c #775839",
"D$	c #886F50",
"E$	c #795E3F",
"F$	c #542E16",
"G$	c #5C3820",
"H$	c #7E6546",
"I$	c #634328",
"J$	c #624227",
"K$	c #624127",
"L$	c #626262",
"M$	c #A5A5A5",
"N$	c #AFAFAF",
"O$	c #D8D9D7",
"P$	c #765738",
"Q$	c #755638",
"R$	c #745537",
"S$	c #785D3F",
"T$	c #532C15",
"U$	c #5B381F",
"V$	c #7E6446",
"W$	c #614227",
"X$	c #614226",
"Y$	c #614126",
"Z$	c #C8C8C8",
"`$	c #D5D5D5",
" %	c #573017",
".%	c #745436",
"+%	c #735436",
"@%	c #866D4E",
"#%	c #785D3E",
"$%	c #522C15",
"%%	c #7E6545",
"&%	c #735839",
"*%	c #735739",
"=%	c #614125",
"-%	c #614225",
";%	c #725234",
">%	c #725334",
",%	c #715233",
"'%	c #74593B",
")%	c #74593A",
"!%	c #5A371E",
"~%	c #7C6343",
"{%	c #725739",
"]%	c #614026",
"^%	c #614025",
"/%	c #7C7C7C",
"(%	c #705031",
"_%	c #603D23",
":%	c #705032",
"<%	c #846B4A",
"[%	c #73583A",
"}%	c #512B14",
"|%	c #59341C",
"1%	c #603F26",
"2%	c #502A13",
"3%	c #603F24",
"4%	c #7A6B59",
"5%	c #5C381E",
"6%	c #836A49",
"7%	c #542F18",
"8%	c #7B6243",
"9%	c #675340",
"0%	c #5B371F",
"a%	c #6B5946",
"b%	c #58331A",
"c%	c #502A14",
"d%	c #59351D",
"e%	c #59351C",
"f%	c #5B4532",
"g%	c #69462A",
"h%	c #5A341B",
"i%	c #786958",
"j%	c #512A14",
"k%	c #81705D",
"l%	c #7F6F5B",
"m%	c #5E3C21",
"n%	c #4F2913",
"o%	c #C7C7C7",
"p%	c #6D4B2D",
"q%	c #532E17",
"r%	c #6A5845",
"s%	c #7F6F5C",
"t%	c #705C47",
"u%	c #715E48",
"v%	c #634E3C",
"w%	c #717171",
"x%	c #828282",
"y%	c #644126",
"z%	c #705C46",
"A%	c #715E49",
"B%	c #705D48",
"C%	c #715D48",
"D%	c #5C3A20",
"E%	c #5A4432",
"F%	c #4F4F4F",
"G%	c #65513F",
"H%	c #6C4A2C",
"I%	c #5B391F",
"J%	c #5C391F",
"K%	c #63503D",
"L%	c #6C4A2D",
"M%	c #664427",
"N%	c #6B4A2C",
"O%	c #69482A",
"P%	c #6A4A2C",
"Q%	c #665240",
"R%	c #64513E",
"S%	c #71604E",
"T%	c #6C4B2D",
"U%	c #725233",
"V%	c #6D4D2E",
"W%	c #7A6142",
"X%	c #715638",
"Y%	c #5B371E",
"Z%	c #CDCECD",
"`%	c #D2D2D1",
" &	c #DBDBD9",
".&	c #65523F",
"+&	c #695744",
"@&	c #806646",
"#&	c #B3B0A9",
"$&	c #CFD0C9",
"%&	c #CECEC8",
"&&	c #CBCCC4",
"*&	c #65503E",
"=&	c #AEAF9C",
"-&	c #AFB09D",
";&	c #7D6F5D",
">&	c #7F6545",
",&	c #8B8D5B",
"'&	c #7D8258",
")&	c #6E5D4A",
"!&	c #776754",
"~&	c #766553",
"{&	c #676E20",
"]&	c #817362",
"^&	c #73614E",
"/&	c #725F4D",
"(&	c #73624F",
"_&	c #6B5846",
":&	c #7E6F5E",
"<&	c #685442",
"[&	c #736350",
"}&	c #7E705F",
"|&	c #6B5845",
"1&	c #72614E",
"2&	c #6A5745",
"3&	c #7D6E5D",
"4&	c #796958",
"                                                                                                                                ",
"                                                                                                                                ",
"                .                                                                                                               ",
"                  . + +   @ @ #                                                                                                 ",
"                  $ $ $ + @ % #                                                                                                 ",
"                    $ $ $                                                                                                       ",
"                  $ $ + & #                                                                                                     ",
"                * * = - ; - > , , , , , , , , , , , , , , , , , , , , , , , , , , , , , , , , , , , , , ' '                     ",
"              ) ! ~ { ] ^ / ( _ _ _ _ _ _ _ _ _ _ _ _ _ _ _ _ _ _ _ _ _ _ _ _ _ _ _ _ _ _ _ _ _ _ : : < [ } |                   ",
"            ' ! 1 2 3 4 5 6 7 8 6 7 7 7 7 7 7 7 7 7 7 7 7 7 7 7 7 7 7 7 7 7 7 7 7 7 7 7 7 7 9 7 7 0 a b 2 1 } '                 ",
"            ' c d e f g h i j k j l i i i i i i i i i i i i i i i i i i i i i i i i i i i i m n o p g q r s s s t               ",
"            u v w x y z A B C D C E B B B B B B B B B B B B B B B B B B B B B B B B B B B B B B B A z F G H I J J s             ",
"            K L M M N O P Q R S T T T T T T T T T T T T T T T T T T T T T T T T T T T T T T S R Q P O z U H V W J s             ",
"          u X Y Y Z N P `  ...+.+.+.+.+.+.+.+.+.+.+.+.+.+.+.+.+.+.+.+.+.+.+.+.+.+.+.+.+.+.+.+... .` P @.#.$.%.V &.&.*.          ",
"          c X =.=.-.N Q  .;.>.,.'.'.'.'.'.'.'.).).!.,.~.~.~.~.~.~.~.~.~.~.~.~.~.~.~.~.~.~.~.{.].^./.T (.l $._.:.<.&.[.          ",
"          c }.=.=.|.1.R ..>.2.3.4.4.4.4.4.4.4.4.3.2.2.2.2.2.2.2.2.2.2.2.2.2.2.2.2.2.2.2.2.2.2.2.5.6.7.8.i 9.0.a.b.c.d.          ",
"        e e.<.f.g.h.i.S +.,.3.j.k.k.k.k.k.k.l.m.n.o.p.q.r.r.r.r.r.r.r.r.r.r.r.r.r.r.r.r.r.r.s.t.u.v.w.x.i y.z.A.b.b.B.C.        ",
"        e D.f.&.E.F.G.T +.'.4.k.H.H.H.H.H.].I.J.K.L.M.N.O.O.N.N.N.N.N.N.N.N.N.N.N.N.N.N.N.N.N.P.Q.R.S.T.i U.z.V.a.b.B.W.        ",
"        X.Y.Z.`.E.E. +T +.'.4.k.H.H.H.H.H.m..+{.++@+T #+$+%+%+%+%+%+%+%+%+%+%+%+%+%+%+%+%+%+%+#+%+&+*+z =+$.z.z.-+;+;+>+        ",
"        ,+'+)+`.E.!+~+T +.'.4.k.H.H.H.H.H.{+]+!.^+/+(+_+:+<+_+_+_+_+_+_+_+_+_+_+_+_+_+_+_+_+_+_+_+:+[+}+=+|+1+1+2+;+;+3+        ",
"        ,+'+4+5+!+6+7+T +.'.4.k.H.H.H.H.H.k.4.).+.S 8+9+0+a+a+a+a+a+a+a+a+a+a+a+a+a+a+a+a+a+a+a+a+a+9+b+=+c+d+1+e+f+f+g+        ",
"      h+'+4+4+4+i+j+k+T +.'.4.k.H.H.H.H.H.k.4.'.+.S 8+9+0+a+a+a+a+a+a+a+a+a+a+a+a+a+a+a+a+a+a+a+a+a+a+b+=+l+d+1+2+m+f+n+o+      ",
"      p+'+4+5+6+q+r+s+T +.'.4.k.H.H.H.H.H.k.4.).t+R u+9+v+a+9+9+9+9+9+9+9+9+9+9+9+9+9+9+9+9+9+9+9+9+9+b+=+$.d+1+w+x+f+y+z+      ",
"      A+'+4+B+C+D+j+E+T +.'.4.k.H.H.H.H.H.k.4.'.+.T 8+a+0+v+v+v+v+v+v+v+v+v+v+v+v+v+v+v+v+v+v+v+v+v+a+b+=+F+G+d+w+x+f+y+H+I+    ",
"      A+J+K+L+E.i+M+N+T +.'.4.k.H.H.H.H.H.k.4.).t+7.O+P+9+Q+Q+Q+Q+Q+Q+Q+Q+Q+Q+Q+Q+Q+Q+Q+Q+Q+Q+Q+Q+Q+R+b+=+F+S+S+T+U+V+`.W+I+    ",
"      A+J+X+L+6+N+Y+N+T +.'.4.k.H.H.].Z+k.`+3. @L..@S.+@@@#@#@#@#@#@#@#@#@#@#@#@#@#@#@#@#@#@#@+@@@u+_+$@=+%@&@*@=@-@V+`.;@      ",
"      A+J+>@,@N+'@N+)@T +.'.4.k.H.H.Z+5.!@2.2.~@{@]@^@/@/+(@(@(@(@(@(@(@(@(@(@(@(@(@(@(@(@(@/@_@/+:@<@[@=+}@|@1@2@3@4@5@6@      ",
"      7@8@9@0@N+a@b@b@T +.'.4.k.].H.>.,.c@d@e@p.f@g@h@/.i@/./././././././././././././././././.t+j@k@#+A i l@m@n@o@p@q@r@s@      ",
"      t@u@u@v@w@b@x@b@T +.'.4.k.{+m.o.y@..M.z@z@z@z@A@A@A@A@A@A@A@A@A@A@A@A@A@A@A@A@A@A@A@A@z@B@P..@C@D@E@F@G@H@I@J@K@L@M@      ",
"      N@O@P@Q@R@b@S@T@T +.'.4.k.~@5.U@V@W@X@Y@Z@`@`@ # # # # # # # # # # # # # # # # # # # # #:@`@S.#@.#=++#@###$#%#&#*#=#      ",
"      -#;#Q@>#b@,#S@T@T +.'.4.k..+~@'#)##+*+!#!#~#~#~#~#~#~#~#~#~#~#~#~#~#~#~#~#~#~#~#~#~#~#~#{#~#_+]#}+=+^#S+/#(#*#&#*#=#      ",
"      _#:#N+N+x@<#[#}#T +.'.4.{+!@j.y@k@&+[+v+a+9+9+9+9+9+9+9+9+9+9+9+9+9+9+9+9+9+9+9+9+9+9+9+a+9+9+9+b+=+^#S+S+|#1#2#3#4#      ",
"      5#6#7#8#<#<#9#}#T +.'.4.{+!@5.y@0#a#b#0+v+v+v+v+v+v+v+v+v+v+v+v+v+v+v+v+v+v+v+v+v+v+v+v+v+v+a+a+b+=+c#d#S+z.e#f#g#h#      ",
"      i#j#k#l#m#n#o#p#T +.'.4.{+!@j.y@k@&+]#v+a+9+9+9+9+9+9+9+9+9+9+9+9+9+9+9+9+9+9+9+9+9+9+9+9+9+9+9+b+=+(#q#r#s#t#u#v#w#      ",
"      x#j#%.k#y#z#A#B#C#+.'.4.{+!@j.y@0#D#b#0+0+v+v+v+v+v+v+v+v+v+v+v+v+v+v+v+v+v+v+v+v+v+v+v+v+v+v+a+b+(#E#F#r#G#H#v#v#N       ",
"      I#J#l#k#K#L#A#M#C#+.'.4.k.N#j.O#P#Q#R#a+9+R+R+R+R+R+R+R+R+R+R+R+R+R+R+R+R+R+R+R+R+R+R+R+R+R+9+9+b+1#S#T#U#V#W#X#Y#Z#      ",
"      `# $.$+$@$#$A#M#C#+.).3.~@$$%$f@&$ #*$8+u+*+*+*+*+*+*+*+*+*+*+*+*+*+*+*+*+*+*+*+*+*+*+*+*+u+=$<+-$T#;$>$,$'$)$0.%.!$      ",
"      ~${$.$+$]$^$A#M#C#+.!.2.2.2.]+/$($_$/+7.:$<$<$<$<$<$<$<$<$<$<$<$<$<$<$<$<$<$<$<$<$<$<$<$[$7.Y@}$|$>$1$2$3$4$<.%.5$~+      ",
"      ~$6$7$8$9$0$C#a$C#+.o.b$c$d$c@e$f$g$ .h$h$j@j@j@j@j@j@j@j@j@j@j@j@j@j@j@j@j@j@j@j@j@j@V@i@]@i$%+A j$k$l$m$n$o$5$p$:#      ",
"      q$r$7$8$s$s$t$u$S /.u.v$w$h$x$h$x$v.M.M.M.M.M.M.M.M.M.M.M.M.M.M.M.M.M.M.M.M.M.M.M.M.M.v.x$y$z$$+D@i A$B$B$C$D$p$E$F$      ",
"      G$H$8$8$I$J$K$C#R  .L$N.M$X@:@X@w.N$Q Q Q Q Q Q Q Q Q Q Q Q Q Q Q Q Q Q Q Q Q Q Q Q Q Q T N$#+*$O$=+Z#P$Q$R$D$E$S$T$      ",
"      U$V$8$8$W$X$Y$C#7.j@i@/@Z$`${#=$`$`$`$`$`$`$`$`$`$`$`$`$`$`$`$`$`$`$`$`$`$`$`$`$`$`$`$`$`$`$~#R#}+=+ %.%+%+%@%S$#%$%      ",
"      U$%%&%*%=%-%=%C#7.h$M.Q `$9+v+9+9+9+9+9+9+9+9+9+9+9+9+9+9+9+9+9+9+9+9+9+9+9+9+9+9+9+9+9+9+9+9+9+b+=+:#;%>%,%=.'%)%$%      ",
"      !%~%*%{%]%^%^%C#7.h$/%w.{#v+0+v+v+v+v+v+v+v+v+v+v+v+v+v+v+v+v+v+v+v+v+v+v+v+v+v+v+v+v+v+v+v+a+a+b+=+N+(%_%:%<%)%[%}%      ",
"      |%k#{%{%1%2%3%C#7.h$M.Q `$9+v+9+9+9+9+9+9+9+9+9+9+9+9+9+9+9+9+9+9+9+9+9+9+9+9+9+9+9+9+9+9+9+9+9+b+=+$%8@4%5%6%[%&%}%      ",
"      7%8%{%{%2%9%}%C#7.h$/%w.{#v+0+v+v+v+v+v+v+v+v+v+v+v+v+v+v+v+v+v+v+v+v+v+v+v+v+v+v+v+v+v+v+v+a+a+b+=+}#0%a%b%6%{%{%c%      ",
"      c%d%d%e%2%f%2%C#7.h$M.Q `$9+v+9+9+9+9+9+9+9+9+9+9+9+9+9+9+9+9+9+9+9+9+9+9+9+9+9+9+9+9+9+9+9+9+9+b+=+}%g%h%i%c%j%c%c%      ",
"      2%k%k%l%9%2%m%n%7.V@/./@o%`${#`$`$`$`$`$`$`$`$`$`$`$`$`$`$`$`$`$`$`$`$`$`$`$`$`$`$`$`$`$`$`$~#R#}+=+c%p%q%r%k%k%s%2%      ",
"      2%t%u%u%f%2%C#v%n%w%++x%/@Q w.Q Q Q Q Q Q Q Q Q Q Q Q Q Q Q Q Q Q Q Q Q Q Q Q Q Q Q Q Q T N$#+*$O$2%i%2%y%b%z%A%u%2%      ",
"      2%t%B%C%C#D%C#E%n%V@F%++/.M./%M.M.M.M.M.M.M.M.M.M.M.M.M.M.M.M.M.M.M.M.M.M.M.M.M.M.M.M.v.x$y$z$$+D@2%G%C#H%b%z%B%B%n%      ",
"      C#C#C#C#I%J%n%E%n%` V@w%V@h$h$h$h$h$h$h$h$h$h$h$h$h$h$h$h$h$h$h$h$h$h$h$h$h$h$h$h$h$h$h$ .v.^@%+A 2%K%n%L%M%n%n%n%n%      ",
"      C#N%O%P%0%n%Q%E%n%P T 7.7.7.7.7.7.7.7.7.7.7.7.7.7.7.7.7.7.7.7.7.7.7.7.7.7.7.7.7.7.7.7.7.:$R Y@}$.#n%R%S%n%T%U%V%V%n%#     ",
"      n%W%X%X%Y%n%E%E%n%A B 8.8.8.8.8.8.8.8.8.8.8.8.8.8.8.8.8.Z%8.8.8.8.8.8.8.8.8.8.8.8.8.8.8.8.B `%.# &n%.&+&n%T%@&X%X%n%#&#   ",
"      n%W%X%X%!%n%E%n%$&%&i i i i i i i i i i i i i i i i m m o i i i i i i i i i i i i i i i i i %&$&&&r n%+&n%T%%%X%X%n%#&#   ",
"      n%W%X%X%n%*&E%n%=&-&7 7 7 7 7 7 7 7 7 7 7 7 7 7 7 7 7 7 7 7 7 7 7 7 7 7 7 7 7 7 7 7 7 7 7 7 -&=&b 2 n%+&;&n%>&X%X%n%      ",
"      n%n%n%n%n%E%E%n%: : _ _ _ _ _ _ _ _ _ _ _ _ _ _ ,&,&'&_ _ _ _ _ _ _ _ _ _ _ _ _ _ _ _ _ _ _ : : < [ n%a%)&n%n%n%n%n%      ",
"      n%!&!&~&Q%E%n%, , , , , , , , , , , , , , , , , = = {&, , , , , , , , , , , , , , , , , , , , , , ' ' n%)&]&^&^&/&n%      ",
"      n%(&_&_&E%E%n%                                . . +                                                   n%)&:&<&<&<&n%      ",
"      n%[&_&_&E%E%n%                                .                                                       n%)&}&<&<&<&n%      ",
"      n%(&_&|&E%n%                                                                                            n%;&<&<&<&n%      ",
"      n%1&_&2&E%n%                                                                                            n%3&<&<&<&n%      ",
"      n%1&_&|&E%n%                                                                                            n%4&<&<&<&n%      ",
"      n%n%n%n%n%                                                                                                n%n%n%n%n%      ",
"                                                                                                                                "};
