/* XPM */
static char * mario_face_xpm[] = {
"64 64 113 2",
"  	c #72751B",
". 	c #A00800",
"+ 	c #7F8226",
"@ 	c #787B21",
"# 	c #3A0002",
"$ 	c #E5251C",
"% 	c #656C17",
"& 	c #BD9842",
"* 	c #A2783C",
"= 	c #636917",
"- 	c #C6A740",
"; 	c #FEFEFE",
"> 	c #FFFFFF",
", 	c #FEF9F8",
"' 	c #FEFDFD",
") 	c #A00801",
"! 	c #784040",
"~ 	c #490002",
"{ 	c #631113",
"] 	c #6A1618",
"^ 	c #6A1518",
"/ 	c #661215",
"( 	c #460002",
"_ 	c #E8B080",
": 	c #681417",
"< 	c #631013",
"[ 	c #681316",
"} 	c #510507",
"| 	c #4B0103",
"1 	c #691417",
"2 	c #6D191A",
"3 	c #510407",
"4 	c #73201F",
"5 	c #6E1A1D",
"6 	c #AD9180",
"7 	c #772627",
"8 	c #6B1619",
"9 	c #7A2825",
"0 	c #83322C",
"a 	c #000000",
"b 	c #701D1D",
"c 	c #6B1719",
"d 	c #782828",
"e 	c #803231",
"f 	c #F8D0B8",
"g 	c #701D1F",
"h 	c #722022",
"i 	c #6E1A1B",
"j 	c #7B2925",
"k 	c #C4C4C3",
"l 	c #15153C",
"m 	c #171741",
"n 	c #742120",
"o 	c #721F1E",
"p 	c #2F2E85",
"q 	c #343289",
"r 	c #FCFCFC",
"s 	c #F6CEB6",
"t 	c #F7CFB7",
"u 	c #323085",
"v 	c #333187",
"w 	c #53352F",
"x 	c #F3CBB4",
"y 	c #F4CCB5",
"z 	c #593932",
"A 	c #040403",
"B 	c #0E0C0A",
"C 	c #52342E",
"D 	c #583831",
"E 	c #181412",
"F 	c #010000",
"G 	c #52352F",
"H 	c #51342E",
"I 	c #D7976F",
"J 	c #0E0A07",
"K 	c #CC906A",
"L 	c #773F3F",
"M 	c #D89870",
"N 	c #F1CAB2",
"O 	c #070605",
"P 	c #0D0907",
"Q 	c #0F0D0B",
"R 	c #DAB7A2",
"S 	c #C78C67",
"T 	c #D6966F",
"U 	c #C4C4C4",
"V 	c #9CA8AD",
"W 	c #1A63B0",
"X 	c #A42821",
"Y 	c #A2814F",
"Z 	c #FCFAFA",
"` 	c #A12821",
" .	c #9E2922",
"..	c #D5D315",
"+.	c #D8D413",
"@.	c #DDD710",
"#.	c #DCD710",
"$.	c #7F8124",
"%.	c #686F16",
"&.	c #6E711A",
"*.	c #5E6115",
"=.	c #6B6D19",
"-.	c #B3B0A9",
";.	c #70731A",
">.	c #535911",
",.	c #2F2E82",
"'.	c #71741B",
").	c #302E81",
"!.	c #312E80",
"~.	c #322F7F",
"{.	c #75333C",
"].	c #696B1C",
"^.	c #63661A",
"                                                                                                                                ",
"                                                                                                                                ",
"                                                                                                                                ",
"                                                                                                                                ",
"                                                                                                                                ",
"                                                                                                                                ",
"                                                                                                                                ",
"                                                . . . . . . . . . . . . . .                                 + +                 ",
"                                                . . . . . . . . . . . . . .                                   + @         +     ",
"                                        # # . . $ $ $ $ $ $ $ $ $ $ $ $ $ $ . . # #                           @ @ @   @ +       ",
"                                        # # . . $ $ $ $ $ $ $ $ $ $ $ $ $ $ . . # #                     + @ @ % @ @ @ @ %       ",
"                                    # # . . $ $ $ $ $ $ $ $ $ $ $ $ $ $ $ $ $ $ . . # #                   @ @ & & % @ @ %       ",
"                                    # # . . $ $ $ $ $ $ $ $ $ $ $ $ $ $ $ $ $ $ . . # #                   % & * * & @ %         ",
"                                    . . $ $ $ $ $ $ $ $ $ $ $ $ $ $ $ $ $ $ $ $ $ $ . .                     = & & =   - -       ",
"                                    . . $ $ $ $ $ $ $ $ $ $ $ $ $ $ $ $ $ $ $ $ $ $ . .                 - -   = =     * -       ",
"                                # # . . $ $ $ $ $ $ $ $ ; > > > > ; ; $ $ $ $ $ $ $ . . # #           - * * -         = =       ",
"                                # # . . $ $ $ $ $ $ $ > > > > > > > > > $ $ $ $ $ $ . . # #           = - - =                   ",
"                                # # . . . . $ $ $ $ > > > $ , > ' $ > > > $ $ $ . . . . # #             = =                     ",
"                                # # . . . . $ $ $ $ > > > $ $ ; $ $ > > > $ $ $ . . . . # #                                     ",
"                                # # . . . . . . . . > > > $ $ $ $ $ > > > . . . . . . . # #                                     ",
"                                # # . . . . . . . . > > > $ > $ > $ > > > . . . . . . . # #                                     ",
"                                # # # # . . . . . . ) > > $ > > > $ > > ) . . . . . # # # #                                     ",
"                            ! ! # # # # . . . . . . . . ; $ > > > $ ; . . . . . . . # # # # ! !                                 ",
"                            ! ! ~ ~ { ] # # . . . . . . . . . . . . . . . . . . # # ^ / ( ( ! !                                 ",
"                            ! ! _ _ : < # # . . . . . . . . . . . . . . . . . . # # : : _ _ ! !                                 ",
"                            ! ! _ _ ^ [ } ^ # # # # $ $ $ $ $ $ $ $ $ $ # # # # ^ | 1 1 _ _ ! !                                 ",
"          + +               ! ! _ _ ] 2 3 { # # # # $ $ $ $ $ $ $ $ $ $ # # # # | | ^ 4 _ _ ! !                                 ",
"            + @ @       + + ! ! _ _ ^ ^ 5 ^ 6 6 # # # # # # # # # # # # # # 6 6 7 8 9 0 _ _ ! !                                 ",
"            % @ @     @ +       a a b c d e f f # # # # # # # # # # # # # # f f g h c i a a                                     ",
"              % %   @ @ @       a a j j f f f f k k l l # # # # # # m m k k f f f f n o a a                                     ",
"                    @ @ %           ! ! f f f f > > p p 6 6 6 6 6 6 p p > > f f f f ! !                                         ",
"                    % %             ! ! f f f f > > q q f f f f f f q q > > f f f f ! !                                         ",
"                                    a a f f f f r r q q s f f t f t q q r r f f f f a a                                         ",
"                                    a a f f f f r r u v w s s x y z q q r r f f f f a a                                         ",
"                                        ! ! f y a a A B C s t t t D E a a a s f ! !                                             ",
"                                        ! ! f f A a a a F G H H w a a a a a s f ! !                                             ",
"                          @ +           p p ! ! I J a a a a a a a a a a a K L ! $ $ a a a a                                     ",
"                            + +         p p ! ! M I N a A O P P Q Q Q R S T L ! $ $ a a a a                                     ",
"                            @ @ @   a a $ $ p p a a ! ! M M M M M M ! ! a a p p $ $ r r U U a a                                 ",
"                            % @ @ % a a $ $ p p a a ! ! M M M M M M ! ! a a p p $ $ r r U U a a                                 ",
"                              V V @ a a $ $ p p W W p p X X X X X X p p W W p p $ $ r r U U a a                                 ",
"                            V Y V @ a a $ $ p p W W p p X X X X X X p p W W p p $ $ Z Z U U a a                                 ",
"                            V V = @ X X $ $ a a W W p p $ $ $ $ $ $ p p W W a a ` ` a a a a                                     ",
"                            = =     X X $ $ a a W W p p $ $ $ $ $ $ p p W W a a  . .a a a a                                     ",
"                                a a > > > > a a W W ..+.W W W W W W @.#.W W a a                                                 ",
"                                a a > > > > a a W W ..+.W W W W W W @.#.W W a a                   $.                            ",
"                                a a U U U U W W W W W W W W W W W W W W W W W W a a             @ @     $.@ @                   ",
"                                a a U U U U W W W W W W W W W W W W W W W W W W a a       $.    @ %.  @ $.$.                    ",
"                                    a a a a p p W W W W W W W W W W W W W W W W a a         $.@ %.  @ @ $.%.                    ",
"                                    a a a a p p W W W W W W W W W W W W W W W W a a &.    %.@ @     @ @ %.@ $.                  ",
"                                      *.*.*.*.*.a a a a W W W W W W W W W W W W a a =.      %.@     -.-.@ @ %.                  ",
"                                  *.*.*.*.*.*.*.a a a a W W W W W W W W W W W W a a *.  ;.    %.  -.Y Y -.%.                    ",
"                                  *.*.*.*.*.*.*.*.*.*.>.a a a a W W W W W W ,.,.*.*.*.'.          = -.-.=                       ",
"                                  *.*.*.*.*.*.*.*.*.*.*.a a a a W W W W W W ,.,.*.*.*.'.      -.Y   = =                         ",
"            + +           +       *.*.*.*.*.*.*.*.*.*.*.*.*.*.*.).,.!.,.~.~.a a *.*.*.=.      -.-.                              ",
"              + @ @   @ +         *.*.*.*.*.*.*.*.*.*.*.*.*.*.*.).,.!.,.~.~.a a *.*.*.*.'.    = =                               ",
"        @ + + % @ % @ @ %         *.*.*.*.*.*.*.*.*.*.*.*.*.*.*.a a {.{.{.{.a a *.*.*.*.&.                                      ",
"          + @ @ V V @ @ %     -.-.    *.*.*.*.*.*.*.*.*.*.*.*.*.a a {.{.{.{.a a *.*.*.                                          ",
"          % @ V Y Y V %       Y -.    *.*.*.*.*.*.*.*.*.*.*.*.*.*.*.a a a a ].].*.*.*.                                          ",
"            % = V V = -.-.    = =         *.*.*.*.*.*.*.*.*.*.*.*.*.a a a a ].^.^.                                              ",
"                = = -.Y -.                                                  %.@ @                                               ",
"                    -.-.=                                                     %.%.                                              ",
"                    = =                                                                                                         ",
"                                                                                                                                "};
