/* XPM */
static char * wall_left_xpm[] = {
"64 64 286 2",
"  	c #72751B",
". 	c #C6C6C6",
"+ 	c #000000",
"@ 	c #1F1F1F",
"# 	c #6F6F6F",
"$ 	c #050505",
"% 	c #030303",
"& 	c #5E5E5E",
"* 	c #C0C1B3",
"= 	c #121212",
"- 	c #020202",
"; 	c #555555",
"> 	c #343434",
", 	c #939393",
"' 	c #232323",
") 	c #7F7F7F",
"! 	c #010101",
"~ 	c #0B0B0B",
"{ 	c #BABABA",
"] 	c #868686",
"^ 	c #1D1D1D",
"/ 	c #626262",
"( 	c #080808",
"_ 	c #242424",
": 	c #C5C5C5",
"< 	c #6A6A6A",
"[ 	c #303030",
"} 	c #0A0A0A",
"| 	c #737373",
"1 	c #8F8F8F",
"2 	c #070707",
"3 	c #D2D2D2",
"4 	c #525252",
"5 	c #5D5D5D",
"6 	c #E3E3E3",
"7 	c #D7D7D7",
"8 	c #090909",
"9 	c #848484",
"0 	c #7F8226",
"a 	c #040404",
"b 	c #2B2B2B",
"c 	c #5C5C5C",
"d 	c #2C2C2C",
"e 	c #787B21",
"f 	c #404040",
"g 	c #212121",
"h 	c #D1D1D1",
"i 	c #8A8A8A",
"j 	c #8E8E8E",
"k 	c #656C17",
"l 	c #6E6E6E",
"m 	c #616161",
"n 	c #BD9842",
"o 	c #9CA8AD",
"p 	c #A8A8A8",
"q 	c #353535",
"r 	c #4B4B4B",
"s 	c #3D3D3D",
"t 	c #A2783C",
"u 	c #A2814F",
"v 	c #7C7C7C",
"w 	c #151515",
"x 	c #060606",
"y 	c #171717",
"z 	c #636917",
"A 	c #C6A740",
"B 	c #B3B0A9",
"C 	c #565656",
"D 	c #0D0D0D",
"E 	c #787878",
"F 	c #8C8E63",
"G 	c #3F3F3F",
"H 	c #989898",
"I 	c #111111",
"J 	c #E1E1E1",
"K 	c #383838",
"L 	c #A7A7A7",
"M 	c #191919",
"N 	c #D3D3D3",
"O 	c #393939",
"P 	c #A4A4A4",
"Q 	c #161616",
"R 	c #3B3B3B",
"S 	c #999999",
"T 	c #DADADA",
"U 	c #4C4C4C",
"V 	c #878787",
"W 	c #60605A",
"X 	c #7B7B7B",
"Y 	c #0E0E0E",
"Z 	c #D9D9D4",
"` 	c #83847D",
" .	c #818181",
"..	c #AFAFAC",
"+.	c #101010",
"@.	c #898989",
"#.	c #D0D0CD",
"$.	c #373737",
"%.	c #636363",
"&.	c #ABAC95",
"*.	c #181818",
"=.	c #686868",
"-.	c #1E1E1E",
";.	c #C2C2C2",
">.	c #999A7F",
",.	c #5F5F5F",
"'.	c #141414",
").	c #747474",
"!.	c #0F0F0F",
"~.	c #A8A996",
"{.	c #848654",
"].	c #80816D",
"^.	c #B2B3AA",
"/.	c #9F9F9E",
"(.	c #313131",
"_.	c #434343",
":.	c #A8A993",
"<.	c #7E7F64",
"[.	c #9C9D84",
"}.	c #B4B4AE",
"|.	c #0B0B01",
"1.	c #56564F",
"2.	c #C7C7C3",
"3.	c #858584",
"4.	c #1A1A1A",
"5.	c #B1B1B1",
"6.	c #BFC0B3",
"7.	c #8C8C88",
"8.	c #242507",
"9.	c #63635D",
"0.	c #C4C5BC",
"a.	c #42423F",
"b.	c #020200",
"c.	c #5C5C58",
"d.	c #C8C8C3",
"e.	c #8C8C8C",
"f.	c #222222",
"g.	c #9C9C9C",
"h.	c #CCCCCA",
"i.	c #B6B7A6",
"j.	c #A4A4A3",
"k.	c #1B1B19",
"l.	c #808077",
"m.	c #9C9D82",
"n.	c #BDBDBD",
"o.	c #9A9A9A",
"p.	c #4A4A4A",
"q.	c #C9C9BF",
"r.	c #2E2E2D",
"s.	c #040500",
"t.	c #39392B",
"u.	c #878884",
"v.	c #B5B5B4",
"w.	c #494949",
"x.	c #D6D6D6",
"y.	c #424242",
"z.	c #0C0C0C",
"A.	c #C0C0C0",
"B.	c #9D9D97",
"C.	c #262625",
"D.	c #2E2E2E",
"E.	c #757575",
"F.	c #333333",
"G.	c #414141",
"H.	c #4D4D4D",
"I.	c #5A5A5A",
"J.	c #4E4E4E",
"K.	c #C7C7C2",
"L.	c #696968",
"M.	c #131313",
"N.	c #3E3E3E",
"O.	c #969696",
"P.	c #AFAFAF",
"Q.	c #C9C9C9",
"R.	c #717171",
"S.	c #B2B2B2",
"T.	c #BEBEBE",
"U.	c #666666",
"V.	c #BBBBBB",
"W.	c #B1B29E",
"X.	c #BFBFBF",
"Y.	c #838383",
"Z.	c #979797",
"`.	c #7E7E7E",
" +	c #9A9A97",
".+	c #131310",
"++	c #828282",
"@+	c #535353",
"#+	c #737552",
"$+	c #1D1E03",
"%+	c #9F9F9F",
"&+	c #9A9B89",
"*+	c #1F2013",
"=+	c #252525",
"-+	c #9D9D9D",
";+	c #808080",
">+	c #82844F",
",+	c #E1E2E0",
"'+	c #A1A1A1",
")+	c #515151",
"!+	c #CCCCCC",
"~+	c #8E8E87",
"{+	c #0F0F0D",
"]+	c #575757",
"^+	c #E6E6E6",
"/+	c #7D7D73",
"(+	c #707070",
"_+	c #757728",
":+	c #C4C4C2",
"<+	c #2A2A29",
"[+	c #7A7A7A",
"}+	c #1C1C1C",
"|+	c #8C8E65",
"1+	c #A2A48A",
"2+	c #B6B7A7",
"3+	c #D8D9D0",
"4+	c #E0E0DF",
"5+	c #DDDDDD",
"6+	c #B1B29F",
"7+	c #B7B8AA",
"8+	c #C8C9BB",
"9+	c #BCBDB2",
"0+	c #464642",
"a+	c #A6A6A6",
"b+	c #6B6B6B",
"c+	c #545454",
"d+	c #B8B8B8",
"e+	c #7F8124",
"f+	c #AEAF9B",
"g+	c #72726E",
"h+	c #161702",
"i+	c #1C1C1B",
"j+	c #B7B7B7",
"k+	c #8F916C",
"l+	c #2A2A2A",
"m+	c #CFCFCF",
"n+	c #686F16",
"o+	c #6C6C6C",
"p+	c #282828",
"q+	c #767676",
"r+	c #323232",
"s+	c #CECECE",
"t+	c #797979",
"u+	c #A0A185",
"v+	c #E2E2E2",
"w+	c #929292",
"x+	c #8D8D8D",
"y+	c #CDCDC5",
"z+	c #585858",
"A+	c #484848",
"B+	c #464646",
"C+	c #E7E7E7",
"D+	c #E4E4E4",
"E+	c #8B8B8B",
"F+	c #D8D8D8",
"G+	c #656561",
"H+	c #45453D",
"I+	c #C4C4BB",
"J+	c #969877",
"K+	c #ADADAD",
"L+	c #262626",
"M+	c #656565",
"N+	c #999B7B",
"O+	c #A8A998",
"P+	c #A0A186",
"Q+	c #363636",
"R+	c #CBCBCB",
"S+	c #9A9C7D",
"T+	c #8E9067",
"U+	c #8C8E64",
"V+	c #E8E8E8",
"W+	c #949494",
"X+	c #C4C4C4",
"Y+	c #696969",
"Z+	c #9B9C7E",
"`+	c #91936D",
" @	c #181817",
".@	c #232416",
"+@	c #C0C1B5",
"@@	c #141509",
"#@	c #C9CAC2",
"$@	c #0D0D01",
"%@	c #C7C8C1",
"&@	c #2F2F2F",
"*@	c #C6C7C0",
"=@	c #CBCBC5",
"                                                        . + + @ # + $ % &                                                       ",
"                                                        * = - ; > % + $ ,                                                       ",
"                                                          ' % ) ! ~ + $ {                                                       ",
"                                                          ] ^ / + ~ ( _                                                         ",
"                                                          : < [ + } + |                                                         ",
"                                                            1 } + % 2 3                                                         ",
"                                                            4 - + + 5 6                                                         ",
"                                                          7 8 % + + 9 1                                     0 0                 ",
"                                                          , + a ! b c d                                       0 e         0     ",
"                                                  0       f 2 2 + < g $ h                                     e e e   e 0       ",
"                                        0 0 e     e e     + + 2 + i % ( j                               0 e e k e e e e k       ",
"                                          0 e e   k e   : + ! + g l % a m                                 e e n n k e e k       ",
"                                          k e e o o   e p + ! ( q r $ + s                                 k n t t n e k         ",
"                                        0 e k e u o   e v + + w ; g x + y                                   z n n z   A A       ",
"                                        k B B k z z   k C - + D E D - + } F                             A A   z z     t A       ",
"                                        B u u B k B B   G ( - + H I + + D J                           A t t A         z z       ",
"                                        z B B z B u B   K 8 ( + L M + + ~ N                           z A A z                   ",
"                                          z z   B B z   O a a + P Q + ! - N                             z z                     ",
"                                                z z     R + + 2 S D + - + T                                                     ",
"                                                        U ! x + V Q + + I *                                                     ",
"                                                        W ! + $ X Y + + g Z                                                     ",
"                                                        ` + + (  .+ a + b                                                       ",
"                                                        ..+ + +.@.+ ! D R                                                       ",
"                                                        #.+ + $.%.+ % ! |         0 0                                           ",
"                                                        &.*.+ =.-.! ( + ;.    e e 0                                             ",
"                                        >.                ,.'.).+ - x !.0 0   e e k     ~.                                      ",
"          0 0                         {.].^.              /.(./ + + + _.0 e e k k     :.<.[.                                    ",
"            0 e e       0 0             }.|.1.2.            3.4.+ Y + 5.k e e     6.7.8.9.                                      ",
"            k e e     e 0               0.a.~ b.c.d.        e.% + ( f.    k     g.-.+ x h.i.                                    ",
"              k k   e e e                 j.+ D ! k.l.m.    x 2 2 + j n.    o.> ! + Y p.                                        ",
"                    e e k                 q.r.+ + % s.t.u.v.'.x 8 2 =.w.x.y.z.+ !.+ + A.                                        ",
"                    k k                     B.C.+ $ + + *.D.E.F.% G.H.g I.( 2 + + w J.                                          ",
"                                              K.L.M.( + + % + N.] H - + O.+ + ! (.P.                                            ",
"                                                  Q.r a x 2 D + + J.).Q R.*.@ S.                                                ",
"                                                      T.N.+ + + Y + !.U.O.V.            W.                                      ",
"                                                      X.Y.Z.M = + % 2 % 2 `.J                                                   ",
"                          e 0               F        +.++ z.) ++D + a + a + @+                                                  ",
"                            0 0                     #+$+} a + z.%+++- + 2 + D                                                   ",
"                            e e e                   &+*++ + a } + =+-+I.I 8 ;+  *                                               ",
"                            k e e k e e 0 0       >+  ,+# + a + ~ + + q n.7                                                     ",
"                              o o e e e               /.=.'+J.+ ( 2 ~ + + )+!+                                                  ",
"                            o u o e e k             ~+{++ y ]+o.$.+ + + ~ + r ^+                                                ",
"                            o o z e k               /+|.! + % a (+-+g $ $ + Y                                                   ",
"                            z z               _+    :+<+a + + + ~ ! Z.[+' }+O.            |+                                    ",
"                                            1+    2+3+4+e.!.Y ~ + !.+ g H 5+            6+                                      ",
"                                                7+8+9+0+a+b+c+!.- + + D + $.d+                    e+                            ",
"                                                f+g+h+i+v + = p H.x D + + + + ; j+    k+        e e     e+e e                   ",
"                                            6+V + $ 2 + c+y.+ X l+i _.8 $ ! = + a I.m+    e+    e n+  e e+e+                    ",
"                                            v 8 ~ !.- 8 =+o+=+E % + p+q+r+( + + Y + '.*     e+e n+  e e e+n+                    ",
"                                          s+~ a + + - t+u+v+5 y } *.- E.  g.^ + + } a w+u+n+e e     e e n+e e+                  ",
"                                    6+  6+v + a z./ T e 0   H '.+ + M.J 6+    x+I + + D     n+e     B B e e n+                  ",
"                                        y+z.+ z+V.    e e   A+- + x B+C+        D+v + + E+    n+  B u u B n+                    ",
"                                        R.$.Q.W.      k k F+= + 2 I ).1               G+H+I+      z B B z                       ",
"                                  J+    K+                e.+ $ + L+M+L+              N+O+P+  B u   z z                         ",
"            0 0           0                               Q++ = + c _ + R+          S+        B B                               ",
"              0 e e   e 0             T+  U+            V+I + + + x++ % W+                    z z                               ",
"        e 0 0 k e k e e k                               X+( a + p+).+ 8 Y+        Z+                                            ",
"          0 e e o o e e k     B B       `+              j + x + H.Q+! + G                                                       ",
"          k e o u u o k       u B                       E.a + I m M z.+  @e e+e+                                                ",
"            k z o o z B B     z z                       I.+ + + ) + - + .@+@e+e e                                               ",
"                z z B u B                               U ! + ! w+8 % + @@#@n+e e                                               ",
"                    B B z                               O - + ! p M.% + $@%@  n+n+                                              ",
"                    z z                                 &@% - + P.M.- ! $@*@                                                    ",
"                                                        Q+% $ + P 8 + x $@=@                                                    "};
