/* XPM */
static char * wall_down_2_xpm[] = {
"64 64 271 2",
"  	c #72751B",
". 	c #7F8226",
"+ 	c #787B21",
"@ 	c #656C17",
"# 	c #BD9842",
"$ 	c #9CA8AD",
"% 	c #A2783C",
"& 	c #A2814F",
"* 	c #636917",
"= 	c #C6A740",
"- 	c #B3B0A9",
"; 	c #A8A992",
"> 	c #BBBCAD",
", 	c #BABBAD",
"' 	c #D4D4CF",
") 	c #888964",
"! 	c #505141",
"~ 	c #B7B8B6",
"{ 	c #787878",
"] 	c #676766",
"^ 	c #C2C3B7",
"/ 	c #6E6E5F",
"( 	c #0D0D01",
"_ 	c #303030",
": 	c #BCBCBC",
"< 	c #8B8D62",
"[ 	c #D8D8D4",
"} 	c #777777",
"| 	c #090909",
"1 	c #070707",
"2 	c #C9C9C8",
"3 	c #C2C3BB",
"4 	c #0E0E02",
"5 	c #0E0E0E",
"6 	c #000000",
"7 	c #2D2D2D",
"8 	c #D5D8D9",
"9 	c #7A7C4D",
"0 	c #313216",
"a 	c #181818",
"b 	c #545454",
"c 	c #80834B",
"d 	c #878786",
"e 	c #010101",
"f 	c #595959",
"g 	c #AEAFA1",
"h 	c #373818",
"i 	c #070700",
"j 	c #181817",
"k 	c #D6D6D2",
"l 	c #D2D3CD",
"m 	c #090A05",
"n 	c #060606",
"o 	c #BABABA",
"p 	c #6A6A66",
"q 	c #020200",
"r 	c #0F0F0F",
"s 	c #6B6C69",
"t 	c #8A8C5F",
"u 	c #A6A6A2",
"v 	c #0D0D0D",
"w 	c #4C4C4C",
"x 	c #A0A185",
"y 	c #B1B29F",
"z 	c #CDCDCD",
"A 	c #080808",
"B 	c #141414",
"C 	c #E4E4E4",
"D 	c #A0A287",
"E 	c #252520",
"F 	c #0A0A0A",
"G 	c #C0C0C0",
"H 	c #BFBFBF",
"I 	c #454545",
"J 	c #5D5D5D",
"K 	c #D0D0D0",
"L 	c #A9A9A9",
"M 	c #393939",
"N 	c #555555",
"O 	c #494949",
"P 	c #020202",
"Q 	c #999999",
"R 	c #9E9F97",
"S 	c #0B0B01",
"T 	c #030303",
"U 	c #2A2A2A",
"V 	c #252525",
"W 	c #040404",
"X 	c #737373",
"Y 	c #DDDDDD",
"Z 	c #121212",
"` 	c #0B0B0B",
" .	c #8C8C8C",
"..	c #343434",
"+.	c #DADADA",
"@.	c #A6A78F",
"#.	c #7F8124",
"$.	c #1D1D1D",
"%.	c #2B2B2B",
"&.	c #404040",
"*.	c #616161",
"=.	c #929292",
"-.	c #B8B8B8",
";.	c #575757",
">.	c #767676",
",.	c #8E8E8E",
"'.	c #979797",
").	c #8D8D8D",
"!.	c #535353",
"~.	c #848484",
"{.	c #9FA084",
"].	c #9D9F86",
"^.	c #AAAA9F",
"/.	c #737368",
"(.	c #5B5B59",
"_.	c #3B3B3B",
":.	c #232323",
"<.	c #151515",
"[.	c #171717",
"}.	c #1F1F1F",
"|.	c #585858",
"1.	c #949494",
"2.	c #CBCBCB",
"3.	c #CECEC5",
"4.	c #909090",
"5.	c #5B5B5B",
"6.	c #0C0C0C",
"7.	c #B2B2B2",
"8.	c #E3E3E3",
"9.	c #B4B4B4",
"0.	c #515151",
"a.	c #6B6B6B",
"b.	c #131313",
"c.	c #939393",
"d.	c #1A1A1A",
"e.	c #8F8F8F",
"f.	c #D9D9D4",
"g.	c #7D7D78",
"h.	c #666925",
"i.	c #353610",
"j.	c #101101",
"k.	c #0D0D03",
"l.	c #9C9C9C",
"m.	c #050505",
"n.	c #101010",
"o.	c #7A7A7A",
"p.	c #6F6F6F",
"q.	c #5E5E5E",
"r.	c #282828",
"s.	c #4E4E4E",
"t.	c #5C5C5C",
"u.	c #7F7F7F",
"v.	c #797979",
"w.	c #444444",
"x.	c #7B7B7B",
"y.	c #6C6C6C",
"z.	c #30311F",
"A.	c #040500",
"B.	c #666666",
"C.	c #525252",
"D.	c #363636",
"E.	c #7E7E7E",
"F.	c #959595",
"G.	c #242424",
"H.	c #424242",
"I.	c #727272",
"J.	c #6E6E6E",
"K.	c #212121",
"L.	c #161616",
"M.	c #111111",
"N.	c #333333",
"O.	c #878787",
"P.	c #5A5A5A",
"Q.	c #222222",
"R.	c #C9C9C9",
"S.	c #ACACAC",
"T.	c #919191",
"U.	c #757575",
"V.	c #3D3D3D",
"W.	c #484848",
"X.	c #818181",
"Y.	c #858585",
"Z.	c #676767",
"`.	c #808080",
" +	c #A7A7A7",
".+	c #B7B7B7",
"++	c #B5B5B5",
"@+	c #AAAAAA",
"#+	c #656565",
"$+	c #1B1B1B",
"%+	c #292929",
"&+	c #5F5F5F",
"*+	c #3A3A3A",
"=+	c #383838",
"-+	c #2C2C2C",
";+	c #34342F",
">+	c #161702",
",+	c #3F3F3F",
"'+	c #3C3C3C",
")+	c #373737",
"!+	c #353535",
"~+	c #464646",
"{+	c #B1B2A7",
"]+	c #7B7B78",
"^+	c #313131",
"/+	c #D5D5D5",
"(+	c #DEDEDE",
"_+	c #191919",
":+	c #A0A0A0",
"<+	c #BBBBBB",
"[+	c #686868",
"}+	c #1C1C1C",
"|+	c #262626",
"1+	c #747474",
"2+	c #A4A4A4",
"3+	c #C6C6C6",
"4+	c #A6A791",
"5+	c #C9CABD",
"6+	c #494945",
"7+	c #1E1E1E",
"8+	c #A5A5A5",
"9+	c #C7C7C7",
"0+	c #C2C2C2",
"a+	c #A1A1A1",
"b+	c #DBDBDB",
"c+	c #B0B0B0",
"d+	c #7C7C7C",
"e+	c #6A6A6A",
"f+	c #505050",
"g+	c #202020",
"h+	c #474747",
"i+	c #CFCFCF",
"j+	c #E7E7E7",
"k+	c #8C8E63",
"l+	c #D4D4D4",
"m+	c #90926B",
"n+	c #A7A7A5",
"o+	c #CFCFC8",
"p+	c #C4C4B9",
"q+	c #AEAEAE",
"r+	c #696969",
"s+	c #BBBCAE",
"t+	c #060605",
"u+	c #4A4A49",
"v+	c #D2D2D2",
"w+	c #CDCDCB",
"x+	c #E2E2E2",
"y+	c #1E160A",
"z+	c #C4C3C1",
"A+	c #CDCDC7",
"B+	c #8A8B4B",
"C+	c #54554C",
"D+	c #E5E5E5",
"E+	c #D1D1CF",
"F+	c #999B84",
"G+	c #DCDCDC",
"H+	c #3C3C39",
"I+	c #D1D1CB",
"J+	c #D2D2CD",
"K+	c #ACACA6",
"L+	c #1C1D12",
"M+	c #686F16",
"N+	c #7B7D3D",
"O+	c #787874",
"P+	c #0A0A08",
"Q+	c #C1C1C1",
"R+	c #C8C8C8",
"S+	c #8A8C60",
"T+	c #B6B7A6",
"U+	c #9FA083",
"V+	c #CBCBC2",
"                                                                                                                                ",
"                                                                                                                                ",
"                                                                                                                                ",
"                                                                                                                                ",
"                                                                                                                                ",
"                                                                                                                                ",
"                                                                                                                                ",
"                                                                                                            . .                 ",
"                                                                                                              . +         .     ",
"                                                  .                                                           + + +   + .       ",
"                                        . . +     + +                                                   . + + @ + + + + @       ",
"                                          . + +   @ +     .                                               + + # # @ + + @       ",
"                                          @ + + $ $   + + @                                               @ # % % # + @         ",
"                                        . + @ + & $   + + @                                                 * # # *   = =       ",
"                                        @ - - @ * *   @ @                                               = =   * *     % =       ",
"                                        - & & - @ - -                                                 = % % =         * *       ",
"                                        * - - * - & -                                                 * = = *                   ",
"                                          * *   - - *                                                   * *                     ",
"                                                * *                                                                             ",
"                                                                                                                                ",
"                                                                                                                                ",
"                                                                                                                                ",
"                                                                                                                                ",
"                                                                                  . .                                           ",
"                                                                      +       + + .                                             ",
"                                                                        . .   + + @                                             ",
"          . .                                                           . + + @ @                                               ",
"            . + +       . .                                             @ + +                                                   ",
"            @ + +     + .                                                 @                                                     ",
"              @ @   + + +                                                                                                       ",
"                    + + @                                                                                                       ",
"                    @ @                                                                                                         ",
"                                                                                                                                ",
"                                                                                                                                ",
"                                                                                                                                ",
"                                                                                                                                ",
"                          + .                                                                                                   ",
"                ;         > . .                                   ,     '                                                       ",
"                  ) ! ~     + + +                                     { ] ^                                                     ",
"                    / ( _ : @ + + @ + + . .               <     [ } | 1 2                                                       ",
"                    3 4 5 6 7 8 $ + + +                       9 0 a 6 b                                                         ",
"                  c   d e 6 6 f $ + + @                     g h i 6 j k                                                         ",
"                      l m 6 5 n o + @                       p q r 6 s                                                           ",
"                t       u 6 v 6 w x               y       z A | 6 B C                                                           ",
"                      D   E 6 F 6 G   H I J K   L M N     O P 6 6 Q                                                             ",
"                          R S T 6 U   V W r X Y Z ` Z  .o 6 | n ..+.          @.                  #.                            ",
"r $.%...&.*.=.-.  x         ;.>.,.'.).A 6 v J !.6 6 A ~.I T 6 P =.C       {.].^./.(._.:.<.Z [.}.U ..|.1.2.3.+             K 4.5.",
"T e 6 6 e W 1 A 6.N 7.8.  9.0.r e a.P P 6 b.c.v n | d.4.T 6 F V e.f.  K g.h.i.j.k.6 6 6 6 6 6 6 A 6.5 P 6 F !.l.y   G 0.A n v 6 ",
"6 T m.6 6 6 6 P n.P 6 <.o.p.q.m.r.s.A <.6 t.w 6 6 T u.:.6 6 F v.6 1 w.x.y.z.A.W W T P W A 1 6 6 6 6 P ` n 6 6 A Z B.).C.F 6 6 6 ",
"e P W W W W n A 6 T r n 6 n.D.E.F.G.6 6 B ).P W 6 r. .6 6 6 ..H.6.| A 6 r.I.E.J.K.L.m.6 6 P m.P A 6 6 6 6 W W P M.6 T N.X O.P.Q.",
"R.S.T.).,.U.V.` W 6 6 m.6 F 6 W.C.6 b.6 v.7 n 6 | X.` L.6 6 Y.6 6 6 n A 6 P W }.Z.I.`.=. +.+++@+`.e.Y.C.a 6 6 6 6 6 A ` P | ..#+",
"6 W v P 6 n.W.o. .N 5 1 T T | B.m.6 T $+{ n m.6 %+} 6.6 T &+o.Y.*+T 6 6 6 A 6 W 6 6 6 6 T | P 6 6 6 v =+} ,.P.b.W e 6 6 6 W P 6 ",
"6 6 e e 6 6 6 e A -+U.x.;+>+,+'+` 6 6 Y.<.n.6 1  .M.A 6 Z Z.| ` &+O.!.Z 6 6 1 6 6 e P W m.P 6 6 6 6 n ` 6 e )+v.U.!+6 6 1 5 P 6 ",
"6 T 1 W 6 6 6 T F ~+K     {+]+6 6 T :.v.A 6 m.=+#+6 6 6 P.^+6 M v./+  (+} _.A T m.6 6 6 6 P ` n.n.P 6 6 6 _+&+:+    <+[+}+6 6 r ",
"Q.|+-+D.w 1+2+3+        4+5+6+6 6 7+8+Z Z 6 A 9+5 6 1 5 0+`.x.q.a+          b+c+d+e+f+)+r.K.g+K.%.h+>.L i+j+            k+l+:+p.",
"              . + + m++ . n+q 6 1 G.  !+6 6 I.  B 6 b.{ <+6 b.6 Z     o+  p+                  * *                               ",
"        + . . @ + @ + + @ 7+6 6 m.q+  z f r+Y   c+W.5.    &+6 6 6 '.          s+                                                ",
"      x   . + + $ $ + + u.6 n.t+u+                x       v+1 | 6 P w+                                              k+          ",
"          @ + $ & & $ x+_+6 P y+z+A+                  k+    q.W 7+6 1+    + #.B+                                                ",
"            @ * $ $ * a.` 6 L.C+*                           D+M.6 A m.E+    #.+ +                                               ",
"                * F+G+n.6 1 H+I+                            J+K+L+m.| w.    M++ +                                               ",
"                    P.6 _ o                                   N+  O+P+[.Q+    M+M+                                              ",
"                  z I R+                                        S+  T+X e+                                                      ",
"                              U+                                            V+                                                  "};
