/* XPM */
static char * wall_down_1_xpm[] = {
"64 64 197 2",
"  	c #72751B",
". 	c #555555",
"+ 	c #000000",
"@ 	c #060606",
"# 	c #888888",
"$ 	c #0B0B0B",
"% 	c #010101",
"& 	c #080808",
"* 	c #E3E3E3",
"= 	c #737623",
"- 	c #3B3B3B",
"; 	c #9B9B9B",
"> 	c #0A0A0A",
", 	c #101010",
"' 	c #D4D4D4",
") 	c #383838",
"! 	c #030303",
"~ 	c #040404",
"{ 	c #A4A4A4",
"] 	c #151515",
"^ 	c #050505",
"/ 	c #CDCDCD",
"( 	c #363636",
"_ 	c #A5A5A5",
": 	c #171717",
"< 	c #070707",
"[ 	c #3C3C3C",
"} 	c #090909",
"| 	c #9A9A9A",
"1 	c #E7E7E7",
"2 	c #535353",
"3 	c #8E8E8E",
"4 	c #020202",
"5 	c #0D0D0D",
"6 	c #A0A185",
"7 	c #7A7A7A",
"8 	c #1C1C1C",
"9 	c #C0C1B3",
"0 	c #A7A7A7",
"a 	c #7F7F7F",
"b 	c #373737",
"c 	c #8E9067",
"d 	c #7F8226",
"e 	c #C5C5C5",
"f 	c #141414",
"g 	c #767676",
"h 	c #515151",
"i 	c #787B21",
"j 	c #484848",
"k 	c #2B2B2B",
"l 	c #111111",
"m 	c #999999",
"n 	c #747730",
"o 	c #8C8C8C",
"p 	c #121212",
"q 	c #D3D3D3",
"r 	c #656C17",
"s 	c #7A7C4B",
"t 	c #74761F",
"u 	c #828282",
"v 	c #161616",
"w 	c #797979",
"x 	c #242424",
"y 	c #BD9842",
"z 	c #676E20",
"A 	c #757820",
"B 	c #6D701E",
"C 	c #9CA8AD",
"D 	c #696969",
"E 	c #232323",
"F 	c #838383",
"G 	c #A2783C",
"H 	c #636A16",
"I 	c #A2814F",
"J 	c #DADADA",
"K 	c #636917",
"L 	c #C6A740",
"M 	c #6D7337",
"N 	c #B3B0A9",
"O 	c #B1AEA7",
"P 	c #656C1D",
"Q 	c #4B4B4B",
"R 	c #0F0F0F",
"S 	c #A28150",
"T 	c #CBCBCB",
"U 	c #7B7B7B",
"V 	c #939393",
"W 	c #E3E4E2",
"X 	c #656B23",
"Y 	c #0E0E0E",
"Z 	c #6A6A6A",
"` 	c #B9BAB3",
" .	c #313131",
"..	c #1D1D1D",
"+.	c #D0D0D0",
"@.	c #C5C6BB",
"#.	c #848484",
"$.	c #878882",
"%.	c #DCDCDC",
"&.	c #414140",
"*.	c #C1C1C1",
"=.	c #2E2E2E",
"-.	c #5F5F5F",
";.	c #BBBBBB",
">.	c #353535",
",.	c #BFBFBF",
"'.	c #C0C0C0",
").	c #333333",
"!.	c #585858",
"~.	c #0C0C0C",
"{.	c #D1D1D1",
"].	c #202020",
"^.	c #878787",
"/.	c #393939",
"(.	c #DFDFDF",
"_.	c #B8B8B8",
":.	c #222222",
"<.	c #B1B1B1",
"[.	c #C1C1C0",
"}.	c #5E5E5E",
"|.	c #444444",
"1.	c #858683",
"2.	c #949494",
"3.	c #727272",
"4.	c #595959",
"5.	c #B1B29F",
"6.	c #DEDEDB",
"7.	c #464646",
"8.	c #8D8D8D",
"9.	c #D0D0CD",
"0.	c #626262",
"a.	c #252525",
"b.	c #B4B4B0",
"c.	c #848653",
"d.	c #323232",
"e.	c #5B5B5B",
"f.	c #969695",
"g.	c #D5D5D5",
"h.	c #1B1B1B",
"i.	c #717171",
"j.	c #A3A3A3",
"k.	c #858585",
"l.	c #3F3F3F",
"m.	c #E0E0E0",
"n.	c #E5E5E5",
"o.	c #777777",
"p.	c #646464",
"q.	c #E1E1E1",
"r.	c #131313",
"s.	c #B3B3B3",
"t.	c #8C8E63",
"u.	c #505050",
"v.	c #656565",
"w.	c #E6E6E6",
"x.	c #7C7C7C",
"y.	c #BEBEBE",
"z.	c #D6D6D6",
"A.	c #929292",
"B.	c #5C5C5C",
"C.	c #5D5D5D",
"D.	c #E2E2E2",
"E.	c #BDBDBD",
"F.	c #1E1E1E",
"G.	c #616161",
"H.	c #2A2A2A",
"I.	c #787878",
"J.	c #1A1A1A",
"K.	c #262626",
"L.	c #686868",
"M.	c #B7B7B7",
"N.	c #2F2F2F",
"O.	c #AAAAAA",
"P.	c #D8D8D8",
"Q.	c #404040",
"R.	c #7D7D7D",
"S.	c #343434",
"T.	c #CFCFCF",
"U.	c #818181",
"V.	c #606060",
"W.	c #CDCDC5",
"X.	c #272727",
"Y.	c #969696",
"Z.	c #A6A6A6",
"`.	c #D9D9D9",
" +	c #808080",
".+	c #3A3A3A",
"++	c #181818",
"@+	c #424242",
"#+	c #686F16",
"$+	c #B3B49F",
"%+	c #B2B2B2",
"&+	c #6D6D6D",
"*+	c #6E6E6E",
"=+	c #3D3D3D",
"-+	c #ADADAD",
";+	c #494949",
">+	c #7F8124",
"                                                        . + @ + # $ % & $ *                                                     ",
"                                              =         - + + & ; > + + , '                                                     ",
"                                                        ) ! + ~ { ] ~ + ^ /                                                     ",
"                                                        ( @ ^ + _ : < ~ + '                                                     ",
"                                                        [ ~ } + | $ + ~ ~ 1                                                     ",
"                                                        2 + @ + 3 ~ + 4 5 6                                                     ",
"                                                        7 + + + # @ + + 8 9                                                     ",
"                                                        0 + + > a ! % % b                 c                 d d                 ",
"                                                        e + % f g + + ! h                                     d i         d     ",
"                                                  d       @ ! j k l + + m                                     i i i   i d       ",
"                                        d d i n   i i     b % o p + > + q                               d i i r i i i i r       ",
"                                          d s t   r i     u v w + + > x                                   i i y y r i i r       ",
"                                          z A B C C   i i / D E + % + F                                   r y G G y i r         ",
"                                        d i H A I C   i i r ; ^ 4 + > J                                     K y y K   L L       ",
"                                        M N O P K K   r r   Q R + + h 1                                 L L   K K     G L       ",
"                                        O I S N r N N     T + ^ + } U V                               L G G L         K K       ",
"                                  W     X N N K N I N     V < + Y ] Z k                   `           K L L K                   ",
"                                          K K   N N K      .+ + ! Z ..+ +.                              K K                     ",
"                                          @.    K K       < @ + ~ #.+ 4 $.                                                      ",
"                                                      6 %.4 + R ! 7 & + &.                                                      ",
"                                                        *.% 4 % =.-.! $ +                                                       ",
"                                                        ;.+ + } >.h > + % ,.                                                    ",
"                                                        '.+ + $ ).!.~.+ < g                                                     ",
"                                                        {.+ + 4 ].^.+ + ~./.      d d                                           ",
"                                                        (.^ + + } _.+ % < p   i i d                                             ",
"                                                        1 :.> + + <., @ + + [.i i r                                             ",
"          d d                                             }.$ + + D |.^ + % 1.r r                                               ",
"            d i i       d d                               2.^ + 4 ].3.! + & 4.                                                  ",
"            r i i     i d                                 5., + + , 7 ~ 4 ! ].6.                                                ",
"              r r   i i i                                   7.p ^ + 8.+ + & f 9.                                                ",
"                    i i r                                   ;.+ p + 0.a.+ + + b.        c.                                      ",
"                    r r                                       - + & d.e.% + + f.                                                ",
"                                                              g.f + h.i.^ @ ~.-.                                                ",
"                                                                j.> + k.+ ^ + l.                                                ",
"                                                              m.  U Y 8.% + + d.6 n.                                            ",
"                                                                    u w ] + % ~ o.p.q.                                          ",
"                          i d                                           v + % + 8.+ r.s.t.                                      ",
"                            d d                                         u.+ + 5 v.a.+ + . w.  9       t.                        ",
"                            i i i                                       ; + + @ @ x.+ ~ ^ E y.                                  ",
"                            r i i r i i d d                             z.l + $ + w > % ! + Y A.                                ",
"                              C C i i i                                   B.v + & % o + ^ 4 ~ + C.D.                            ",
"                            C I C i i r                                   E.+ 5 + F.d.G.5 + + p + H.+.  6                       ",
"                            C C K i r                                       I.~.+ + } D 3.$ + + p ~.R V                         ",
"                            K K                                         t.  W  .+ J.+ + 7.<.K.Y + + + @ L.                      ",
"                                                                              M.N.< + + + ) O.h + + > + + u.                    ",
"                                                                                E.! v + > + + e.D J.+ + l & /.                  ",
"                                                      d                     1     P.h.} + < h.+ Q.R.p > + + ~ S.T._.U.V.4.).H.:.",
"                                                    d                               W.7.^ + + % + x D J.J.+ + + X.Y.x + 5 + + + ",
"                                                  i i                               t.  Z.h.+ r.% + 8 U.K.! @ ^ > + a -.+ + < ~ ",
"                                                  i i r                     5.            `. +..~ } 4 } i..++ 4 + +++ @+A.3.l , ",
"                                                  r r i d                     t.      9     #+$+%+&+:.f f *+=+} } + } 4 + R G.I.",
"                                                      i i                                     #+  N I I w.n.  B.+ , + + , + ! ! ",
"                                                      r r                                         K N N K       *.- + + Y + + + ",
"                                                                                              N I   K K             -+( + } ~.^ ",
"            d d           d                                                                   N N                       / Y.2 ;+",
"              d i i   i d                                                                     K K                               ",
"        i d d r i r i i r                                                                                             9 W.      ",
"          d i i C C i i r     N N                                                                                               ",
"          r i C I I C r       I N                                         i >+>+                                      5.        ",
"            r K C C K N N     K K                                           >+i i                                               ",
"                K K N I N                                                   #+i i                                               ",
"                    N N K                                                     #+#+                                              ",
"                    K K                                                                                                         ",
"                                                                                                                                "};
