/* XPM */
static char * ea_xpm[] = {
"32 32 793 2",
"  	c #5E7A5F",
". 	c #5D795F",
"+ 	c #5D785E",
"@ 	c #5F6E58",
"# 	c #5C7D63",
"$ 	c #598267",
"% 	c #5A8167",
"& 	c #5A8066",
"* 	c #5A7F66",
"= 	c #5A7E65",
"- 	c #5B7D64",
"; 	c #557259",
"> 	c #67725D",
", 	c #5C7B61",
"' 	c #5B7B5F",
") 	c #5B7A60",
"! 	c #5C795F",
"~ 	c #5A775E",
"{ 	c #5C785F",
"] 	c #5E785F",
"^ 	c #5B6E57",
"/ 	c #598166",
"( 	c #5A8166",
"_ 	c #598165",
": 	c #597F64",
"< 	c #597E63",
"[ 	c #5A7D62",
"} 	c #5C6651",
"| 	c #60775D",
"1 	c #5B7D61",
"2 	c #5A7C5F",
"3 	c #4B7654",
"4 	c #4A7453",
"5 	c #44714F",
"6 	c #3E6344",
"7 	c #567758",
"8 	c #4F7958",
"9 	c #4E7957",
"0 	c #4C7655",
"a 	c #4E7856",
"b 	c #4F7857",
"c 	c #426E4D",
"d 	c #5F7157",
"e 	c #4B7755",
"f 	c #4C7855",
"g 	c #4C7754",
"h 	c #4E7857",
"i 	c #507A5A",
"j 	c #4F7A58",
"k 	c #466549",
"l 	c #4F7A57",
"m 	c #4D7856",
"n 	c #4B7854",
"o 	c #4E7855",
"p 	c #4F7855",
"q 	c #4E7955",
"r 	c #4E6249",
"s 	c #557656",
"t 	c #487552",
"u 	c #487351",
"v 	c #49674C",
"w 	c #4A684E",
"x 	c #506951",
"y 	c #5A6652",
"z 	c #67705B",
"A 	c #586851",
"B 	c #576751",
"C 	c #57684F",
"D 	c #546A51",
"E 	c #516A51",
"F 	c #516A52",
"G 	c #516951",
"H 	c #66725D",
"I 	c #4E684F",
"J 	c #4B694F",
"K 	c #4A674C",
"L 	c #51674F",
"M 	c #4C6A50",
"N 	c #4B634C",
"O 	c #5A614D",
"P 	c #50624B",
"Q 	c #51624A",
"R 	c #50614A",
"S 	c #53634C",
"T 	c #526B52",
"U 	c #536B52",
"V 	c #536B51",
"W 	c #5A6550",
"X 	c #5B6B54",
"Y 	c #4D684F",
"Z 	c #4C694F",
"` 	c #517C5B",
" .	c #507C5A",
"..	c #527E5C",
"+.	c #527E5D",
"@.	c #537F5D",
"#.	c #537F5E",
"$.	c #4F6C51",
"%.	c #53765B",
"&.	c #4E7A59",
"*.	c #507C5C",
"=.	c #4D7957",
"-.	c #507C5B",
";.	c #517C5C",
">.	c #477253",
",.	c #527C5C",
"'.	c #4F7C5B",
").	c #517D5B",
"!.	c #547D5D",
"~.	c #537D5D",
"{.	c #547D5E",
"].	c #4F6B51",
"^.	c #4A7758",
"/.	c #527D5B",
"(.	c #517B5A",
"_.	c #4F7A59",
":.	c #4E7A58",
"<.	c #4E7958",
"[.	c #486649",
"}.	c #537053",
"|.	c #3C6C4B",
"1.	c #447150",
"2.	c #477553",
"3.	c #497655",
"4.	c #467251",
"5.	c #467352",
"6.	c #3A6848",
"7.	c #556A51",
"8.	c #447251",
"9.	c #43704F",
"0.	c #43714F",
"a.	c #416E4D",
"b.	c #3F6D4C",
"c.	c #3F6E4C",
"d.	c #3D6E4C",
"e.	c #496045",
"f.	c #396A49",
"g.	c #3F6E4D",
"h.	c #457351",
"i.	c #487553",
"j.	c #497654",
"k.	c #477552",
"l.	c #63735C",
"m.	c #60725D",
"n.	c #5B705A",
"o.	c #5C6A54",
"p.	c #596B57",
"q.	c #526F57",
"r.	c #56705A",
"s.	c #657562",
"t.	c #687662",
"u.	c #657561",
"v.	c #647461",
"w.	c #667361",
"x.	c #676856",
"y.	c #62745B",
"z.	c #64755D",
"A.	c #65745F",
"B.	c #687561",
"C.	c #5F735D",
"D.	c #58725B",
"E.	c #517058",
"F.	c #52624B",
"G.	c #516E54",
"H.	c #506E54",
"I.	c #526D54",
"J.	c #616F59",
"K.	c #64735C",
"L.	c #66745E",
"M.	c #66735D",
"N.	c #646F58",
"O.	c #646E57",
"P.	c #61735D",
"Q.	c #62745F",
"R.	c #4D7955",
"S.	c #446748",
"T.	c #597458",
"U.	c #4B7956",
"V.	c #4B7856",
"W.	c #467452",
"X.	c #40704D",
"Y.	c #3E6E4B",
"Z.	c #4D664B",
"`.	c #507A59",
" +	c #507A57",
".+	c #4F7956",
"++	c #497652",
"@+	c #477551",
"#+	c #476348",
"$+	c #4D7755",
"%+	c #4C7856",
"&+	c #4B7855",
"*+	c #4A7854",
"=+	c #497753",
"-+	c #386846",
";+	c #507456",
">+	c #4D7956",
",+	c #4D7855",
"'+	c #376645",
")+	c #396747",
"!+	c #386545",
"~+	c #435C41",
"{+	c #5B6E56",
"]+	c #45694B",
"^+	c #426A4B",
"/+	c #416B4B",
"(+	c #406B4B",
"_+	c #3B6848",
":+	c #3A6747",
"<+	c #396545",
"[+	c #5C624D",
"}+	c #416447",
"|+	c #3F6446",
"1+	c #3D6445",
"2+	c #3B6344",
"3+	c #3C6344",
"4+	c #3C6345",
"5+	c #4B5D44",
"6+	c #46684A",
"7+	c #42694A",
"8+	c #416A4A",
"9+	c #406B4C",
"0+	c #3D6A4B",
"a+	c #3A6849",
"b+	c #375D40",
"c+	c #4F694E",
"d+	c #466C4D",
"e+	c #406A49",
"f+	c #58785E",
"g+	c #58795E",
"h+	c #5A785E",
"i+	c #5D7A5D",
"j+	c #607D61",
"k+	c #647F65",
"l+	c #647E64",
"m+	c #62735E",
"n+	c #627861",
"o+	c #5C785D",
"p+	c #617B63",
"q+	c #658067",
"r+	c #637F65",
"s+	c #5F775D",
"t+	c #697660",
"u+	c #627F64",
"v+	c #608064",
"w+	c #627E63",
"x+	c #5F7B60",
"y+	c #5E785E",
"z+	c #5E775D",
"A+	c #5C765A",
"B+	c #5B6A52",
"C+	c #5D795E",
"D+	c #5B785C",
"E+	c #5D775C",
"F+	c #5D795D",
"G+	c #5F7A5F",
"H+	c #5D7860",
"I+	c #5B7960",
"J+	c #4D7857",
"K+	c #487453",
"L+	c #497653",
"M+	c #4A7654",
"N+	c #497553",
"O+	c #426547",
"P+	c #4F7155",
"Q+	c #477352",
"R+	c #447250",
"S+	c #437150",
"T+	c #4C7756",
"U+	c #456F4F",
"V+	c #5A6E55",
"W+	c #4A7856",
"X+	c #4A7655",
"Y+	c #4A7554",
"Z+	c #41704F",
"`+	c #426248",
" @	c #477351",
".@	c #477251",
"+@	c #4D7656",
"@@	c #4F684D",
"#@	c #4D684D",
"$@	c #4C674D",
"%@	c #4A634A",
"&@	c #49644B",
"*@	c #46674B",
"=@	c #47674B",
"-@	c #5A6952",
";@	c #4B644B",
">@	c #4F654D",
",@	c #4C6950",
"'@	c #4C6A51",
")@	c #4C674E",
"!@	c #5F6951",
"~@	c #516A50",
"{@	c #4C694D",
"]@	c #4A664B",
"^@	c #4A6248",
"/@	c #49654D",
"(@	c #48664B",
"_@	c #47664B",
":@	c #59644E",
"<@	c #4E674E",
"[@	c #4D674F",
"}@	c #4C684F",
"|@	c #4C6247",
"1@	c #4B674D",
"2@	c #4A6B51",
"3@	c #4C6B51",
"4@	c #507B5A",
"5@	c #476A4E",
"6@	c #597F63",
"7@	c #528163",
"8@	c #518162",
"9@	c #518062",
"0@	c #518061",
"a@	c #507F61",
"b@	c #517E62",
"c@	c #437153",
"d@	c #61745B",
"e@	c #517B59",
"f@	c #517A59",
"g@	c #4F7C5A",
"h@	c #507D5B",
"i@	c #4C6E53",
"j@	c #558165",
"k@	c #538163",
"l@	c #528160",
"m@	c #51805F",
"n@	c #518060",
"o@	c #507F5F",
"p@	c #517E5F",
"q@	c #52634A",
"r@	c #58795A",
"s@	c #507B59",
"t@	c #42714F",
"u@	c #406F4E",
"v@	c #3A6B4A",
"w@	c #3D5E42",
"x@	c #537355",
"y@	c #437250",
"z@	c #41724F",
"A@	c #40704E",
"B@	c #487353",
"C@	c #3E6C4B",
"D@	c #5B6C55",
"E@	c #3E6E4C",
"F@	c #41704E",
"G@	c #487754",
"H@	c #447450",
"I@	c #466045",
"J@	c #44704F",
"K@	c #43724F",
"L@	c #42724F",
"M@	c #447350",
"N@	c #457451",
"O@	c #467553",
"P@	c #4F6047",
"Q@	c #507152",
"R@	c #3B6C49",
"S@	c #3D6E4B",
"T@	c #537056",
"U@	c #557257",
"V@	c #577359",
"W@	c #657760",
"X@	c #697B65",
"Y@	c #617661",
"Z@	c #626B56",
"`@	c #5E6F58",
" #	c #5A735B",
".#	c #5B735C",
"+#	c #5A745D",
"@#	c #667A64",
"##	c #5A725B",
"$#	c #57715A",
"%#	c #5E6E57",
"&#	c #527056",
"*#	c #526F56",
"=#	c #556F57",
"-#	c #5F715A",
";#	c #5C7159",
">#	c #5B7058",
",#	c #5C7058",
"'#	c #5C644E",
")#	c #587257",
"!#	c #59745A",
"~#	c #5C745B",
"{#	c #5C755B",
"]#	c #577259",
"^#	c #557258",
"/#	c #507A58",
"(#	c #4F7957",
"_#	c #507B58",
":#	c #49694D",
"<#	c #4F7253",
"[#	c #477452",
"}#	c #4D7756",
"|#	c #457150",
"1#	c #5A7156",
"2#	c #4C7654",
"3#	c #487452",
"4#	c #477451",
"5#	c #487753",
"6#	c #486548",
"7#	c #406E4D",
"8#	c #4F7B58",
"9#	c #4F7B57",
"0#	c #4E7A55",
"a#	c #4D7954",
"b#	c #4E6A4E",
"c#	c #4C6A4E",
"d#	c #486C4E",
"e#	c #476C4D",
"f#	c #466C4B",
"g#	c #436948",
"h#	c #426548",
"i#	c #51604A",
"j#	c #5F6D55",
"k#	c #486248",
"l#	c #496349",
"m#	c #4F684E",
"n#	c #50694F",
"o#	c #516B50",
"p#	c #4D634C",
"q#	c #5E6A54",
"r#	c #4B694C",
"s#	c #45664A",
"t#	c #3F6447",
"u#	c #3B6345",
"v#	c #396344",
"w#	c #3B6244",
"x#	c #535C45",
"y#	c #486247",
"z#	c #4B654A",
"A#	c #506A4E",
"B#	c #4E694D",
"C#	c #5F7F62",
"D#	c #617F62",
"E#	c #607C61",
"F#	c #5F725B",
"G#	c #637960",
"H#	c #5A7D5F",
"I#	c #5A7D60",
"J#	c #5E7E62",
"K#	c #5F7C60",
"L#	c #637E63",
"M#	c #627C62",
"N#	c #5F7A61",
"O#	c #616D56",
"P#	c #587C5E",
"Q#	c #587D60",
"R#	c #597E62",
"S#	c #577D60",
"T#	c #597C60",
"U#	c #56795D",
"V#	c #576850",
"W#	c #5B7A5F",
"X#	c #597B60",
"Y#	c #5F7D62",
"Z#	c #627E64",
"`#	c #5F7C62",
" $	c #5B755B",
".$	c #61755C",
"+$	c #5D7D61",
"@$	c #5F7E61",
"#$	c #487451",
"$$	c #406446",
"%$	c #587458",
"&$	c #4D7858",
"*$	c #4C7755",
"=$	c #4B7754",
"-$	c #3E6D4D",
";$	c #3E6C4C",
">$	c #4E644A",
",$	c #4B7655",
"'$	c #497554",
")$	c #457251",
"!$	c #466348",
"~$	c #4B7555",
"{$	c #477453",
"]$	c #416F4E",
"^$	c #3D6D4B",
"/$	c #366645",
"($	c #507455",
"_$	c #4E7755",
":$	c #48694D",
"<$	c #48684D",
"[$	c #4A664C",
"}$	c #57634D",
"|$	c #666F5B",
"1$	c #5C6C57",
"2$	c #5A6C56",
"3$	c #586B54",
"4$	c #4E664C",
"5$	c #496951",
"6$	c #4C6C53",
"7$	c #516D57",
"8$	c #6A7262",
"9$	c #5A6D5B",
"0$	c #596D58",
"a$	c #5B6953",
"b$	c #5B6955",
"c$	c #596D59",
"d$	c #5B6C59",
"e$	c #5A6B57",
"f$	c #5D6451",
"g$	c #55644F",
"h$	c #53644E",
"i$	c #52634C",
"j$	c #51614A",
"k$	c #4C684E",
"l$	c #486A50",
"m$	c #4B6B50",
"n$	c #4E654D",
"o$	c #5A6954",
"p$	c #536A53",
"q$	c #506750",
"r$	c #517C5D",
"s$	c #517E5E",
"t$	c #527E5F",
"u$	c #537D5F",
"v$	c #4E6D54",
"w$	c #567B5D",
"x$	c #4D7B5A",
"y$	c #4E7B58",
"z$	c #4F7B59",
"A$	c #467150",
"B$	c #5E7157",
"C$	c #517C5A",
"D$	c #4D7A58",
"E$	c #4F7D5C",
"F$	c #4F7E5C",
"G$	c #4F7D5B",
"H$	c #4D7A59",
"I$	c #486B4F",
"J$	c #507D5C",
"K$	c #4F7E5B",
"L$	c #4E7A5A",
"M$	c #4E7959",
"N$	c #42704D",
"O$	c #40704F",
"P$	c #427050",
"Q$	c #417050",
"R$	c #3E6F4E",
"S$	c #3C5F42",
"T$	c #4A6B4E",
"U$	c #3C6C4A",
"V$	c #3B6D4B",
"W$	c #3B6B49",
"X$	c #447351",
"Y$	c #3E6A4A",
"Z$	c #57694F",
"`$	c #477252",
" %	c #42704E",
".%	c #426045",
"+%	c #3A6C4B",
"@%	c #3B6C4B",
"#%	c #3A6A4A",
"$%	c #406E4E",
"%%	c #467152",
"&%	c #487252",
"*%	c #597259",
"=%	c #557256",
"-%	c #527055",
";%	c #4F654C",
">%	c #51765A",
",%	c #4F7B5F",
"'%	c #567A60",
")%	c #577B62",
"!%	c #52775E",
"~%	c #52765E",
"{%	c #4E6B53",
"]%	c #5C6B55",
"^%	c #517459",
"/%	c #517359",
"(%	c #547357",
"_%	c #5D755A",
":%	c #567156",
"<%	c #4D664F",
"[%	c #4D7C61",
"}%	c #4E7B61",
"|%	c #4F7B60",
"1%	c #587B63",
"2%	c #537860",
"3%	c #51775F",
"4%	c #51765D",
"5%	c #54614C",
"6%	c #586F54",
"7%	c #507458",
"8%	c #527357",
"9%	c #406347",
"0%	c #557659",
"a%	c #426D4D",
"b%	c #607159",
"c%	c #4C7957",
"d%	c #507959",
"e%	c #517A58",
"f%	c #507958",
"g%	c #4F6147",
"h%	c #557958",
"i%	c #3F6346",
"j%	c #45644A",
"k%	c #56604C",
"l%	c #65705B",
"m%	c #52674F",
"n%	c #4F654A",
"o%	c #4D684E",
"p%	c #4A6C51",
"q%	c #47684E",
"r%	c #646F5C",
"s%	c #47644B",
"t%	c #446349",
"u%	c #446347",
"v%	c #48674B",
"w%	c #46684C",
"x%	c #476346",
"y%	c #565D46",
"z%	c #4C6346",
"A%	c #4B6245",
"B%	c #4A6044",
"C%	c #4B6548",
"D%	c #4A6B4D",
"E%	c #496C50",
"F%	c #496C51",
"G%	c #55634D",
"H%	c #556B51",
"I%	c #46654A",
"J%	c #456449",
"K%	c #547D5C",
"L%	c #547E5E",
"M%	c #567D5E",
"N%	c #567D62",
"O%	c #587D62",
"P%	c #587E62",
"Q%	c #597E61",
"R%	c #576F54",
"S%	c #587B5F",
"T%	c #517E60",
"U%	c #538062",
"V%	c #528060",
"W%	c #507E5F",
"X%	c #538060",
"Y%	c #538061",
"Z%	c #4C7657",
"`%	c #667860",
" &	c #557E60",
".&	c #567D60",
"+&	c #577C60",
"@&	c #577C5F",
"#&	c #577D5F",
"$&	c #587C5F",
"%&	c #576C52",
"&&	c #507C5F",
"*&	c #557F60",
"=&	c #558061",
"-&	c #537F5F",
";&	c #527E5E",
">&	c #4E7858",
",&	c #4B7756",
"'&	c #49674B",
")&	c #527354",
"!&	c #42704F",
"~&	c #4A7555",
"{&	c #406D4D",
"]&	c #576E53",
"^&	c #3F704E",
"/&	c #486147",
"(&	c #3D6D4C",
"_&	c #467351",
":&	c #4C7656",
"<&	c #607059",
"[&	c #5E6F59",
"}&	c #5B6F57",
"|&	c #546B52",
"1&	c #526D53",
"2&	c #536D54",
"3&	c #626E59",
"4&	c #69705C",
"5&	c #636C58",
"6&	c #636D58",
"7&	c #646F5A",
"8&	c #636654",
"9&	c #616D57",
"0&	c #617059",
"a&	c #61715B",
"b&	c #68735F",
"c&	c #5B6F59",
"d&	c #576C55",
"e&	c #536952",
"f&	c #4F624A",
"g&	c #4F6A51",
"h&	c #506950",
"i&	c #616853",
"j&	c #606B55",
"k&	c #656C5A",
"l&	c #5E6854",
"m&	c #5C6E56",
"n&	c #5F6E57",
"o&	c #486B4C",
"p&	c #5B7559",
"q&	c #4D7758",
"r&	c #487555",
"s&	c #457253",
"t&	c #50664D",
"u&	c #4B7858",
"v&	c #4A7757",
"w&	c #486549",
"x&	c #4C7857",
"y&	c #4C7858",
"z&	c #467454",
"A&	c #427152",
"B&	c #3A6A48",
"C&	c #527457",
"D&	c #3C6D4B",
"E&	c #3F6F4D",
"F&	c #577155",
"G&	c #45704F",
"H&	c #3E6F4D",
"I&	c #3C6D4C",
"J&	c #386948",
"K&	c #53624B",
"L&	c #3D6B49",
"M&	c #3D6B4A",
"N&	c #3C6B48",
"O&	c #376946",
"P&	c #376846",
"Q&	c #376747",
"R&	c #366846",
"S&	c #465F46",
"T&	c #436E4D",
"U&	c #426E4F",
"V&	c #437050",
"W&	c #3D6E4D",
"X&	c #3B6A4C",
"Y&	c #336141",
"Z&	c #4B6E50",
"`&	c #567357",
" *	c #557357",
".*	c #577357",
"+*	c #5F745B",
"@*	c #667960",
"#*	c #657860",
"$*	c #63775E",
"%*	c #5C6E57",
"&*	c #576D54",
"**	c #596F55",
"=*	c #5F725A",
"-*	c #697B64",
";*	c #647760",
">*	c #61715C",
",*	c #6A715F",
"'*	c #617963",
")*	c #617962",
"!*	c #637963",
"~*	c #62765F",
"{*	c #5F735B",
"]*	c #5D7159",
"^*	c #586E56",
"/*	c #566D53",
"(*	c #5C6F55",
"_*	c #5F7359",
":*	c #5C7258",
"<*	c #597256",
"[*	c #456F4E",
"}*	c #5B7056",
"|*	c #497555",
"1*	c #4E7854",
"2*	c #486245",
"3*	c #446247",
"4*	c #426247",
"5*	c #416246",
"6*	c #3F6246",
"7*	c #3E6146",
"8*	c #3F6145",
"9*	c #4B5A40",
"0*	c #53634B",
"a*	c #446146",
"b*	c #466246",
"c*	c #496347",
"d*	c #4A6548",
"e*	c #476045",
"f*	c #5A624D",
"g*	c #4E664D",
"h*	c #436347",
"i*	c #406346",
"j*	c #3D6346",
"k*	c #416146",
"l*	c #525C48",
"m*	c #466147",
"n*	c #456145",
"o*	c #476148",
"p*	c #466248",
"q*	c #476548",
"r*	c #48664A",
"  . + @ # $ % & * = - ; > , ' ) ! ~ { ] ^ / ( _ _ : < [ } | 1 2 ",
"3 4 5 6 7 8 9 0 a b b c d e f g a h i j k 8 l m n o p q r s t u ",
"v w x y z A B C D E F G H I J K L M J N O P Q R S T U V W X Y Z ",
"`  .` ..+.@.#.$.%.&.*. .=.-.;.>.| ,.` '.).!.~.{.].^.;./.(._._.j ",
"e =.:.<.h h a [.}.|.1.2.3.4.5.6.7.8.9.0.a.b.c.d.e.f.g.h.i.j.t k.",
"l.m.n.o.p.q.r.s.t.u.v.w.x.y.z.A.B.C.D.E.F.G.H.I.J.K.L.M.N.O.P.Q.",
"R.q q S.T.=.U.V.V.W.X.Y.Z.`. +.+f ++@+5 #+$+%+&+*+=+0.c.-+;+>+,+",
"'+)+!+~+{+]+^+/+(+_+:+<+[+}+|+1+2+3+4+2+5+6+7+8+9+0+a+)+b+c+d+e+",
"f+g+h+i+j+k+l+m+n+o+. p+q+r+r+s+t+u+v+w+x+y+z+A+B+C+D+E+F+G+H+I+",
"J+K+t L+M+N+L+O+P+Q+Q+R+S+T+`.U+V+T+e W+M+X+Y+Z+`+5.Q+ @5 .@+@,+",
"@@#@$@%@&@*@=@F.-@I Y ;@>@,@'@)@!@~@{@]@^@/@(@_@:@<@[@}@|@1@2@3@",
" .4@_.5@6@7@8@9@0@a@b@c@d@e@f@(. .=.g@h@i@j@k@l@m@n@o@p@q@r@s@j ",
"t@u@v@w@x@y@z@A@.@Q+B@C@D@E@A@F@k.*+G@H@I@J@K@F@L@M@N@O@P@Q@R@S@",
"T@U@V@W@X@Y@Q.Z@`@ #.#+#@###$#E %#&#*#=#-#;#>#,#'#)#!#!#~#{#]#^#",
"/# +(# +.+l _#:#<#[#8 `.}#T+/#|#1#h 2#3#4#t L+5#6#7#&+8#9#0#a#R.",
"b#c#d#e#f#g#h#i#j#k#l#m#n#o#n#p#q#r#s#h#t#u#v#w#x#y#y#z#A#B#@@@@",
"C#D#E#F#G#H#I#J#K#L#M#N#O#P#Q#R#S#Q#T#U#V#W#X#) ) Y#Z#`# $.$+$@$",
"h.t #$$$%$&$T+*$=$0.-$;$>$e ,$'$)$t@F@d.!$0 0 ~$,${$]$^$/$($_$*$",
":$<$[$}$|$1$2$3$4$5$6$7$8$9$0$a$b$c$d$e$f$g$h$i$j$k$l$m$n$o$p$q$",
"` ;.r$s$p@t$u$v$w$).-.-.x$y$z$A$B$C$D$g@E$F$G$H$I$J$K$E$'.L$M$L$",
"N$E@g.O$P$Q$R$S$T$U$V$W$|.X$K+Y$Z$`${$8. %t@t@W$.%+%V$@%#%$%%%&%",
"*%=%-%;%>%,%,%'%)%!%~%{%]%^%/%(%_%:%T@&#<%[%}%|%1%2%3%4%5%6%7%8%",
"q g h.9%0%`./#a a b b a%b%c%:.a q }#_#_#_@d%e%f%_$o p q g%h%=$i.",
"i%9%j%k%l%m%;%n%o%m$p%q%r%s%t%u%v%w%=@x%y%z%A%B%C%D%E%F%G%H%I%J%",
"K%L%M%N%O%P%Q%R%S%T%U%V%W%X%Y%Z%`% &.&+&@&M%#&$&%&&&*&=&-&;&;&;&",
"8#_#/#f%>&,&,$'&)&!&~&<.M$,$T+{&]&Y+Q+|#F@^&F@Z+/&(&_&:&8 8 a }#",
"<&[&}&o.|&1&2&3&4&5&6&7&8&9&0&a&b&c&d&e&f&g&g&h&i&j&9&3&k&l&m&n&",
"&.d%_.o&p&a q&&$&$r&s&!&t&(.s@/#<.u&v&3#w&x&y&x&y&v&z&A&B&C&m q&",
"D&E&U$w@F&G&1.8.)$H&I&J&K&L&M&N&O&P&Q&R&S&T&U&V&R+t@W&X&Y&Z&_&!&",
"`& *.*+*@*#*$*J.%*&***=*-*#*;*>*,*'*)*!*~*{*]*>#W ^*/*&*(*_*:*<*",
"(#*$*$,+_$_$$+S.;+X+Y+{$Q+m 8 [*}*J+,&x&m a _$0.h#|*L+N+5.3#,$1*",
"2*3*4*5*6*7*8*9*0*a*a*b*b*c*d*e*f*g*]@h*i*j*j*k*l*m*n*m*o*p*q*r*"};
