/* XPM */
static char * no_xpm[] = {
"32 32 769 2",
"  	c #B5BAB6",
". 	c #B3B6B3",
"+ 	c #B0B2AF",
"@ 	c #9C9A95",
"# 	c #C0C7C4",
"$ 	c #BCC7C2",
"% 	c #BCC6C3",
"& 	c #BDC4C3",
"* 	c #BDC3C0",
"= 	c #BCC2C0",
"- 	c #BAC1C0",
"; 	c #908E89",
"> 	c #B3B5B0",
", 	c #B8BEBB",
"' 	c #B7BEBA",
") 	c #B7BDB7",
"! 	c #B7BAB5",
"~ 	c #AFB3AD",
"{ 	c #B2B6B1",
"] 	c #B3B7B3",
"^ 	c #A0A19A",
"/ 	c #BFC8C2",
"( 	c #BDC6C3",
"_ 	c #BDC7C4",
": 	c #BCC3C2",
"< 	c #BDC3C2",
"[ 	c #BCC2C1",
"} 	c #BAC1BE",
"| 	c #8F8D83",
"1 	c #AAABA5",
"2 	c #B8BEBE",
"3 	c #B8BEBD",
"4 	c #B5B6B8",
"5 	c #B1B2B4",
"6 	c #AEB0B2",
"7 	c #959490",
"8 	c #BBC3C2",
"9 	c #BDC4C4",
"0 	c #BAC1BF",
"a 	c #B8BFBE",
"b 	c #BAC1C1",
"c 	c #BBC2C2",
"d 	c #BAC2C1",
"e 	c #95948F",
"f 	c #B1B4AF",
"g 	c #B9BEBD",
"h 	c #B9BFBD",
"i 	c #BAC0BE",
"j 	c #B9C0BE",
"k 	c #BCC3C1",
"l 	c #C0C7C5",
"m 	c #9B9A96",
"n 	c #BCC2BF",
"o 	c #BDC4C2",
"p 	c #BAC0C0",
"q 	c #B9BFBF",
"r 	c #BBC1C0",
"s 	c #BBC2C1",
"t 	c #93918C",
"u 	c #B3B7B4",
"v 	c #B6BABB",
"w 	c #B2B6B5",
"x 	c #A09F9B",
"y 	c #9D9B97",
"z 	c #95938D",
"A 	c #88847A",
"B 	c #919089",
"C 	c #928F8B",
"D 	c #908E86",
"E 	c #8F8D87",
"F 	c #A0A29E",
"G 	c #A2A39F",
"H 	c #A3A5A1",
"I 	c #999992",
"J 	c #9F9E98",
"K 	c #9D9E99",
"L 	c #9FA19B",
"M 	c #999894",
"N 	c #9E9E9A",
"O 	c #A4A4A0",
"P 	c #9D9D99",
"Q 	c #94928E",
"R 	c #847C74",
"S 	c #8F8B84",
"T 	c #8D8A83",
"U 	c #8E8B85",
"V 	c #A1A29D",
"W 	c #A2A39E",
"X 	c #A3A7A1",
"Y 	c #94958D",
"Z 	c #9A9A92",
"` 	c #9E9E99",
" .	c #A0A09B",
"..	c #BCC4C4",
"+.	c #BBC5C3",
"@.	c #BDC8C5",
"#.	c #C0CACA",
"$.	c #C2CBCB",
"%.	c #C2CBCC",
"&.	c #C0CAC9",
"*.	c #989691",
"=.	c #B4BBB9",
"-.	c #BDC5C3",
";.	c #C0CAC7",
">.	c #BEC7C4",
",.	c #BBC2BF",
"'.	c #C0CAC6",
").	c #A2A6A2",
"!.	c #BDC2C0",
"~.	c #C0C7C9",
"{.	c #BCC6C5",
"].	c #BBC4C3",
"^.	c #BEC8C5",
"/.	c #C1CAC9",
"(.	c #B6BBB9",
"_.	c #BEC5C3",
":.	c #C0C9C8",
"<.	c #BDC7C6",
"[.	c #B6BBBC",
"}.	c #B4BAB9",
"|.	c #BDC2C2",
"1.	c #B5BBBA",
"2.	c #B5BAB9",
"3.	c #B4BBBA",
"4.	c #8C8880",
"5.	c #A9ADAB",
"6.	c #ACAFAD",
"7.	c #B3B7B5",
"8.	c #B8BCBA",
"9.	c #B8BBB9",
"0.	c #B5B8B6",
"a.	c #B4B8B5",
"b.	c #94958F",
"c.	c #ACAEA9",
"d.	c #B0B1B2",
"e.	c #B1B1B1",
"f.	c #AFB1B0",
"g.	c #B0AFAF",
"h.	c #AFAFAF",
"i.	c #ADAFB0",
"j.	c #ADAEAE",
"k.	c #8F8A85",
"l.	c #ABACAB",
"m.	c #ADAFAD",
"n.	c #B3B7B6",
"o.	c #B8BCBB",
"p.	c #B7BBBB",
"q.	c #B3B6B5",
"r.	c #B0B3B2",
"s.	c #9EA09A",
"t.	c #9FA29C",
"u.	c #9FA09B",
"v.	c #8F8B82",
"w.	c #A5A7A2",
"x.	c #A6A8A2",
"y.	c #A3A59F",
"z.	c #A1A29A",
"A.	c #9B9D96",
"B.	c #9D9D97",
"C.	c #9C9C96",
"D.	c #95928B",
"E.	c #89857C",
"F.	c #9DA098",
"G.	c #9FA29A",
"H.	c #A0A39B",
"I.	c #A2A59E",
"J.	c #A1A49D",
"K.	c #A1A59E",
"L.	c #A2A29D",
"M.	c #8E8B83",
"N.	c #A5A6A1",
"O.	c #A6A6A2",
"P.	c #A3A29F",
"Q.	c #9C9B97",
"R.	c #9B9E9A",
"S.	c #9B9E98",
"T.	c #9B9C98",
"U.	c #95918B",
"V.	c #928F87",
"W.	c #A0A39D",
"X.	c #B6BDBC",
"Y.	c #B5BCBC",
"Z.	c #B2B7B8",
"`.	c #92908C",
" +	c #BCC2C2",
".+	c #B9C1C1",
"++	c #B1B4B6",
"@+	c #A9A9A8",
"#+	c #A3A5A2",
"$+	c #BEC7C6",
"%+	c #BCC5C4",
"&+	c #B9C2C1",
"*+	c #B6BDBD",
"=+	c #B5B9BA",
"-+	c #AFB2B3",
";+	c #97968F",
">+	c #B9BEBC",
",+	c #B7BCBA",
"'+	c #B5BBB9",
")+	c #B6BCBA",
"!+	c #B5BAB8",
"~+	c #B1B4B3",
"{+	c #AEB0B0",
"]+	c #A9A8A6",
"^+	c #ADB2AE",
"/+	c #BAC3C0",
"(+	c #A5A5A4",
"_+	c #A3A4A2",
":+	c #9D9E9A",
"<+	c #89847B",
"[+	c #A4A6A3",
"}+	c #A4A8A5",
"|+	c #A6A9A6",
"1+	c #A6A9A7",
"2+	c #A5A7A8",
"3+	c #A5A6A6",
"4+	c #A3A3A2",
"5+	c #979491",
"6+	c #8E8983",
"7+	c #9C9D9A",
"8+	c #9B9D9A",
"9+	c #9B9C99",
"0+	c #9E9C9C",
"a+	c #9E9C9A",
"b+	c #9D9C9B",
"c+	c #89847D",
"d+	c #A09F9D",
"e+	c #A2A19F",
"f+	c #A4A4A1",
"g+	c #A6A6A5",
"h+	c #A5A7A6",
"i+	c #A4A6A5",
"j+	c #A2A4A1",
"k+	c #969590",
"l+	c #A4A7A3",
"m+	c #B6BBB6",
"n+	c #B3B9B5",
"o+	c #B2B8B3",
"p+	c #B4B9B5",
"q+	c #B3BAB4",
"r+	c #B4BAB6",
"s+	c #B1B8B3",
"t+	c #929089",
"u+	c #AEB2AE",
"v+	c #B4B8B3",
"w+	c #B5BBB5",
"x+	c #B5BAB4",
"y+	c #B1B5B0",
"z+	c #B2B6B0",
"A+	c #97958D",
"B+	c #B7BFBA",
"C+	c #B8BDB9",
"D+	c #B5B9B5",
"E+	c #B1B5B1",
"F+	c #AEB4B0",
"G+	c #ABAFAC",
"H+	c #A8ACA6",
"I+	c #93918A",
"J+	c #AEB1B0",
"K+	c #B1B5B5",
"L+	c #B1B7B5",
"M+	c #B1B8B6",
"N+	c #B0B6B3",
"O+	c #ADB2AF",
"P+	c #A9ACAA",
"Q+	c #B7BCBB",
"R+	c #B7BDBB",
"S+	c #B8BDBC",
"T+	c #93938F",
"U+	c #B2B6B3",
"V+	c #B1B4B2",
"W+	c #B2B7B4",
"X+	c #999B97",
"Y+	c #B4B7B3",
"Z+	c #B8BEBC",
"`+	c #B6BEBC",
" @	c #AFB2B1",
".@	c #B1B4B4",
"+@	c #B0B4B2",
"@@	c #999892",
"#@	c #9A9B96",
"$@	c #9A9A96",
"%@	c #91908B",
"&@	c #8B857D",
"*@	c #9A9993",
"=@	c #999993",
"-@	c #908E87",
";@	c #9E9E98",
">@	c #A1A29F",
",@	c #A0A19C",
"'@	c #8E8E86",
")@	c #96948E",
"!@	c #9C9E98",
"~@	c #9C9995",
"{@	c #95918D",
"]@	c #9D9C97",
"^@	c #9C9B96",
"/@	c #8D8881",
"(@	c #9A9994",
"_@	c #908D88",
":@	c #989791",
"<@	c #BBC1BF",
"[@	c #B8BEBA",
"}@	c #C0C9C6",
"|@	c #BFC8C6",
"1@	c #BFC8C5",
"2@	c #BFC7C5",
"3@	c #BFC7C8",
"4@	c #BDC6C4",
"5@	c #B8BCB9",
"6@	c #BEC8C8",
"7@	c #BEC7C7",
"8@	c #B8C0BD",
"9@	c #C0C8C5",
"0@	c #C1C9C5",
"a@	c #A4A6A1",
"b@	c #C1C8C8",
"c@	c #BFC8C8",
"d@	c #BFC8C9",
"e@	c #BFC7C7",
"f@	c #BDC5C5",
"g@	c #94908C",
"h@	c #B4B9B4",
"i@	c #ADB2B1",
"j@	c #ADAFAE",
"k@	c #ABABAA",
"l@	c #908D89",
"m@	c #B2B8B6",
"n@	c #B3B9B7",
"o@	c #B0B6B4",
"p@	c #B0B5B3",
"q@	c #B3B8B6",
"r@	c #B5BDBA",
"s@	c #959491",
"t@	c #AAAAA8",
"u@	c #AFB3B1",
"v@	c #B0B5B2",
"w@	c #BCC1BE",
"x@	c #94918D",
"y@	c #B4B8BA",
"z@	c #B1B5B3",
"A@	c #B3B8B8",
"B@	c #B4BABA",
"C@	c #92928C",
"D@	c #ABAEAA",
"E@	c #ACAEAD",
"F@	c #A8ADA8",
"G@	c #A8ADA9",
"H@	c #A4A8A4",
"I@	c #A4A8A2",
"J@	c #A0A49F",
"K@	c #9FA49D",
"L@	c #847E74",
"M@	c #95948C",
"N@	c #9B9C94",
"O@	c #9C9E99",
"P@	c #9D9D98",
"Q@	c #A4A5A1",
"R@	c #A3A4A1",
"S@	c #95948D",
"T@	c #A5A59F",
"U@	c #AAACA7",
"V@	c #ABABA7",
"W@	c #A2A59F",
"X@	c #9EA29B",
"Y@	c #9DA198",
"Z@	c #9C9F97",
"`@	c #868177",
" #	c #96958E",
".#	c #989B94",
"+#	c #9B9F98",
"@#	c #9B9B97",
"##	c #9B9995",
"$#	c #9D9C98",
"%#	c #9FA09C",
"&#	c #BAC3C2",
"*#	c #BCC5C5",
"=#	c #93928C",
"-#	c #AEB0AD",
";#	c #B6BCB9",
">#	c #BEC4C6",
",#	c #BFC6C7",
"'#	c #B7BEBB",
")#	c #BDC2C3",
"!#	c #C0C6C8",
"~#	c #9DA19D",
"{#	c #B7BBB7",
"]#	c #BABFBF",
"^#	c #B7BABC",
"/#	c #B3B8B9",
"(#	c #B2B9B9",
"_#	c #B4BBBB",
":#	c #B7BDBE",
"<#	c #B7BDBD",
"[#	c #999792",
"}#	c #AFB0AF",
"|#	c #B1B6B7",
"1#	c #B1B6B6",
"2#	c #A3A7A4",
"3#	c #A5AAA7",
"4#	c #A6AAA7",
"5#	c #A7A9A8",
"6#	c #A0A4A3",
"7#	c #9FA0A0",
"8#	c #9D9E9D",
"9#	c #847F76",
"0#	c #969692",
"a#	c #959591",
"b#	c #999996",
"c#	c #9D9E9C",
"d#	c #9D9E9B",
"e#	c #9E9F9C",
"f#	c #9A9C99",
"g#	c #88847D",
"h#	c #9A9892",
"i#	c #9D9B9A",
"j#	c #A09E9D",
"k#	c #A09F9F",
"l#	c #9E9F9F",
"m#	c #9D9F9E",
"n#	c #9E9E9E",
"o#	c #9B9B9A",
"p#	c #807970",
"q#	c #979591",
"r#	c #979592",
"s#	c #999997",
"t#	c #999A97",
"u#	c #B7BDB9",
"v#	c #B5BBB7",
"w#	c #B1B6B2",
"x#	c #949289",
"y#	c #B8C0BB",
"z#	c #B6BDB9",
"A#	c #B5BCB7",
"B#	c #B0B4B0",
"C#	c #A7A7A2",
"D#	c #A4A7A1",
"E#	c #BBC4C1",
"F#	c #BBC4C2",
"G#	c #BBC5C1",
"H#	c #BBC4C0",
"I#	c #BBC3C1",
"J#	c #BAC2BE",
"K#	c #96968F",
"L#	c #B5BBB8",
"M#	c #B6BCB8",
"N#	c #B1B5AF",
"O#	c #A7A9A3",
"P#	c #B2B4B4",
"Q#	c #B1B3B4",
"R#	c #B0B2B2",
"S#	c #BAC0BF",
"T#	c #B7BEBC",
"U#	c #B2B7B5",
"V#	c #AFB0B0",
"W#	c #AEAFAE",
"X#	c #A9A8A8",
"Y#	c #9E9F9B",
"Z#	c #B6BDBB",
"`#	c #B5B9B8",
" $	c #AFB1B1",
".$	c #AEAFAF",
"+$	c #969390",
"@$	c #B5B8B7",
"#$	c #B2B5B5",
"$$	c #B3B5B5",
"%$	c #AEB0AF",
"&$	c #AFAFAE",
"*$	c #B0B5B1",
"=$	c #9C9C97",
"-$	c #92918A",
";$	c #898278",
">$	c #918F87",
",$	c #93918B",
"'$	c #94928D",
")$	c #A3A39E",
"!$	c #9B9C97",
"~$	c #999890",
"{$	c #9D9E98",
"]$	c #9C9A97",
"^$	c #908C88",
"/$	c #9B9994",
"($	c #999893",
"_$	c #94938E",
":$	c #857E78",
"<$	c #8D8A86",
"[$	c #8F8B88",
"}$	c #918E8C",
"|$	c #93908D",
"1$	c #A3A3A0",
"2$	c #A4A4A2",
"3$	c #999895",
"4$	c #989690",
"5$	c #BFC9C8",
"6$	c #C0C9C9",
"7$	c #C2CBCA",
"8$	c #C1CACA",
"9$	c #C2CBC8",
"0$	c #A1A29C",
"a$	c #BEC9C7",
"b$	c #BEC8C6",
"c$	c #BDC6C5",
"d$	c #C0C8C7",
"e$	c #B9BEBA",
"f$	c #C0C7C8",
"g$	c #B8BDBB",
"h$	c #A6A7A2",
"i$	c #C1C9C8",
"j$	c #BEC6C5",
"k$	c #BCC4C5",
"l$	c #BAC0C1",
"m$	c #AFB1B3",
"n$	c #ADAFB1",
"o$	c #B0B4B5",
"p$	c #B0B5B5",
"q$	c #AFB4B5",
"r$	c #ACB1B0",
"s$	c #8B8882",
"t$	c #ABAFAE",
"u$	c #AEAEAF",
"v$	c #AEAEB0",
"w$	c #ADADB0",
"x$	c #B0B3B4",
"y$	c #B6BCBB",
"z$	c #B8BFBD",
"A$	c #969592",
"B$	c #ADAEAA",
"C$	c #B5BCB8",
"D$	c #ACAEB0",
"E$	c #ACAFAB",
"F$	c #ACAFAC",
"G$	c #ABAEAB",
"H$	c #B0B2B4",
"I$	c #B0B3B5",
"J$	c #A8ACAA",
"K$	c #A7A9A6",
"L$	c #93948D",
"M$	c #B0B8B3",
"N$	c #AEB6B1",
"O$	c #ADB5B0",
"P$	c #AAB1AC",
"Q$	c #ADB4AF",
"R$	c #ACB4AE",
"S$	c #8C8C86",
"T$	c #A7AAA4",
"U$	c #ABB2AD",
"V$	c #ABB1AD",
"W$	c #A9ADA8",
"X$	c #A8ACA8",
"Y$	c #A5A9A3",
"Z$	c #A8ABA7",
"`$	c #A8ABA8",
" %	c #9A9995",
".%	c #B0B6B2",
"+%	c #ABB1AB",
"@%	c #AEB4AF",
"#%	c #ADB3AE",
"$%	c #AEB3AE",
"%%	c #8D8A82",
"&%	c #9FA09A",
"*%	c #ABB2AE",
"=%	c #AAB1AE",
"-%	c #B2B6B7",
";%	c #989793",
">%	c #BCC6C4",
",%	c #B9C3C1",
"'%	c #BAC3C1",
")%	c #BCC4C2",
"!%	c #BCC5C3",
"~%	c #BAC4C2",
"{%	c #B9C1BF",
"]%	c #BFC6C9",
"^%	c #9D9F9B",
"/%	c #B9C2C2",
"(%	c #B4BBB6",
"_%	c #9B9998",
":%	c #989593",
"<%	c #868278",
"[%	c #979793",
"}%	c #999995",
"|%	c #9A9D99",
"1%	c #9C9E9A",
"2%	c #88857E",
"3%	c #94918C",
"4%	c #949291",
"5%	c #969593",
"6%	c #9B9C9A",
"7%	c #A1A4A2",
"8%	c #A2A5A3",
"9%	c #A0A0A0",
"0%	c #999794",
"a%	c #827B70",
"b%	c #969490",
"c%	c #949290",
"d%	c #9C9C9A",
"e%	c #9D9D9B",
"f%	c #837F79",
"g%	c #908F88",
"h%	c #95928F",
"i%	c #969591",
"j%	c #BEC4BF",
"k%	c #BEC3C0",
"l%	c #BEC4C2",
"m%	c #BDC5C1",
"n%	c #BCC4C1",
"o%	c #BDC4C1",
"p%	c #949088",
"q%	c #B4B6B3",
"r%	c #C0C6C2",
"s%	c #C2CAC5",
"t%	c #BFC6C2",
"u%	c #BEC4C0",
"v%	c #C1C8C4",
"w%	c #A2A6A0",
"x%	c #BBBEBA",
"y%	c #C1C7C6",
"z%	c #BEC6C3",
"A%	c #BCC3C0",
"B%	c #BBC2C0",
"C%	c #9A9791",
"D%	c #B5B5B1",
"E%	c #C1C6C3",
"F%	c #C3C9C8",
"G%	c #C0C6C3",
"H%	c #B9BDB8",
"I%	c #B8BBB6",
"J%	c #B8BAB6",
"K%	c #B7BFBD",
"L%	c #999B96",
"M%	c #B1B4B0",
"N%	c #B3B8B5",
"O%	c #B2B3B3",
"P%	c #AFB0B2",
"Q%	c #B0B3B3",
"R%	c #93908B",
"S%	c #B0B4B3",
"T%	c #BCC4C3",
"U%	c #B9C0BF",
"V%	c #B4B9B8",
"W%	c #9A9690",
"X%	c #9B9992",
"Y%	c #9B9891",
"Z%	c #928F8A",
"`%	c #A0A29C",
" &	c #9C9B95",
".&	c #918D84",
"+&	c #959088",
"@&	c #95908A",
"#&	c #949189",
"$&	c #8A887D",
"%&	c #9A9B94",
"&&	c #9B9B95",
"*&	c #96968C",
"=&	c #9C9B94",
"-&	c #9C9D97",
";&	c #9D9D96",
">&	c #938F8A",
",&	c #9FA099",
"'&	c #9A9A93",
")&	c #8B867D",
"!&	c #959089",
"~&	c #94928A",
"{&	c #94918A",
"]&	c #918C85",
"^&	c #908C84",
"/&	c #B9C2C0",
"(&	c #B7BEBD",
"_&	c #95938E",
":&	c #BBC3C0",
"<&	c #BAC2C0",
"[&	c #BAC2BF",
"}&	c #B8C1BF",
"|&	c #B5BBBB",
"1&	c #B2B7B7",
"2&	c #ABAEAD",
"3&	c #A5AAA5",
"4&	c #B8C0BE",
"5&	c #B9C1C0",
"6&	c #ACB1AC",
"7&	c #AEB0AE",
"8&	c #ABACAA",
"9&	c #8F8C85",
"0&	c #B5BAB7",
"a&	c #B4B9B7",
"b&	c #B1B3B3",
"c&	c #ADAFAF",
"d&	c #ACAEAE",
"e&	c #A1A2A2",
"f&	c #95958E",
"g&	c #AFB1AE",
"h&	c #ACABAB",
"i&	c #ACAAAC",
"j&	c #ABABAC",
"k&	c #AAABAC",
"l&	c #AAAAAD",
"m&	c #B1B0B0",
"n&	c #B0B1B0",
"o&	c #B1B2B0",
"p&	c #B1B1B0",
"q&	c #AFAEAF",
"r&	c #AEADAE",
"s&	c #A3A3A1",
"t&	c #A9AAA8",
"u&	c #AAADA9",
"v&	c #AAACA8",
"w&	c #A6A7A4",
"x&	c #A6A9A2",
"y&	c #A3A59E",
"z&	c #A1A49E",
"A&	c #8E8D84",
"B&	c #A5AAA2",
"C&	c #A5ABA3",
"D&	c #A6ACA5",
"E&	c #A9ADA6",
"F&	c #A6AAA4",
"G&	c #A4A7A2",
"H&	c #8C8B81",
"I&	c #A3A39D",
"J&	c #A9ACA8",
"K&	c #A7AAA6",
"L&	c #A4A5A2",
"M&	c #9A9C96",
"N&	c #908D85",
"O&	c #A8A8A3",
"P&	c #A8A9A4",
"Q&	c #A4A59F",
"R&	c #A4A6A0",
"S&	c #A4A7A0",
"T&	c #A3A49D",
"U&	c #BCC1C1",
"V&	c #BBC1C1",
"W&	c #969792",
"X&	c #B5BCBB",
"Y&	c #B6BCBC",
"Z&	c #B5BBBC",
"`&	c #B5B8BA",
" *	c #B6BBBB",
".*	c #BFC5C5",
"+*	c #9A9A97",
"@*	c #B6BAB8",
"#*	c #B8BFBF",
"$*	c #B9C0C0",
"%*	c #B8C0C0",
"&*	c #B5BCBA",
"**	c #B4BAB8",
"=*	c #B2B7B6",
"-*	c #999795",
";*	c #9C9A98",
">*	c #9C9C98",
",*	c #9C9D99",
"'*	c #7F7770",
")*	c #959693",
"!*	c #979892",
"~*	c #979893",
"{*	c #999793",
"]*	c #999A95",
"^*	c #9B9D9B",
"/*	c #9EA19D",
"(*	c #85827B",
"_*	c #92908A",
":*	c #A0A09F",
"<*	c #9EA09D",
"[*	c #9C9E9B",
"}*	c #9E9E9C",
"|*	c #9A9A98",
"1*	c #837D76",
"2*	c #979693",
"3*	c #989794",
"4*	c #9A9996",
"  . + @ # $ % & * = - ; > , ' ) ! ~ { ] ^ / ( _ : < [ } | 1 2 3 ",
"4 5 6 7 8 9 0 a b c d e f g h i j k l < m n o p q r [ s t u v w ",
"x y z A B C D E F G H I J K L M N O P Q R S T T U V W X Y Z `  .",
"..+.@.#.$.%.&.*.=.-.;.>.,.'.;.).!.~.{.].-.^././.^ (._.:.<.[.}.}.",
"s |.r 3 1.2.3.4.5.6.7.8.9.0.a.b.c.d.e.f.g.h.i.j.k.l.m.n.o.p.q.r.",
"s.t.u.v.w.x.y.z.A.B.C.D.E.F.G.H.I.J.K.L.M.N.O.P.Q.R.S.T.U.V.W.W.",
"X.Y.Z.`. +b .+.+Y.++6 @+#+$+%+&+*+=+Z.-+;+>+,+'+)+!+~+{+]+^+/+j ",
"(+_+:+<+[+}+|+1+2+3+4+5+6+7+8+9+7+0+a+b+c+d+e+f+g+h+i+j+k+m |+l+",
"m+n+o+p+q+r+s+t+u+{ v+w+x+y+z+A+f B+C+D+E+F+G+H+I+J+K+L+M+N+O+P+",
"Q+!+'+R+S+R+2.T+L+L+U+V+W+[ $+X+Y+j >+Z+)+R+`+ @@ q.w w .@+@w n.",
"@@#@$@%@Q.P $@&@*@=@=@-@;@>@,@'@)@!@@ ~@{@]@` ^@/@(@M (@_@:@L.L.",
"9 <@[@B.}@|@1@l 2@3@4@Q 5@6@7@7@4@8@9@0@a@b@c@d@c@e@e@f@g@h@7@].",
"i@j@k@l@m@n@o@p@q@}.r@s@t@u@v@W+,+w@h n@x@n.y@K+z@A@B@X.C@D@6.E@",
"F@G@H@I@J@K@L L@M@N@O@P@Q@R@l+S@T@U@V@W@X@Y@Y@Z@`@ #.#+#@###$#%#",
"8 &#/+d ..*#%+=#-#;#>#,#'#)#!#~#{#]#^#/#(#_#:#<#[#}#)+f@e@*+|#1#",
"2#3#4#5#6#7#8#9#0#a#b#c#d#e#f#g#h#i#j#k#l#m#n#o#p#q#r#s#d#d#d#t#",
"u#v#w#x#B+y#' z#A#n+B#C#D#E#F#G#H#I#J#;#K#[@, )+L#M#h@N#O#C#h h ",
"P#Q#R#t+J#S#2 T#U#V#W#X#Y#j Z#`#.@ $ $.$+$@$q.#$$$.@%$&$]+*$s Q+",
"P =$-$;$>$,$'$)@)$O Q@!$~${$]$^$)@/$($_$:$<$[$}$|$1$2$2$3$4$$#P ",
"5$:.6$7$8$/.9$0$a$b$$+c$9 & d$d#e$f$c ,#f$d$& g$h$i$e@$+j$k$l$Z#",
"m$n$-+o$p$q$r$s$t$u$v$w$x$y$z$A$B$L#C$7.5 P#o$D$t E$F$E$G${+H$I$",
"G@J$K$L$M$N$O$P$Q$R$Q$S$T$U$V$W$X$Y$Z$`$ %U+.%F++%@%#%$%%%&%*%=%",
"y$-%m$;%4@@.>%,%'%'%- Q Y+)%!%~%{%b ]%f@^%j$7@{./%/%/%r %@(%8@=.",
"]$_%:%<%[%[%7 }%|%1%^%2%3%4%5%6%7%8%9%0%a%7 b%c%3$d%e%e#f%g%h%i%",
"j%k%l%m%n%o%} p%q%r%s%t%u%v%# w%x%y%z%A%0 B%A%} C%D%E%F%G%H%I%J%",
"2@_.[ 0 Z#Z#h -@.$~+Z+)%K%K%i L%M%N%O%R#6 P%r.Q%R%-#S%z$T%U%V%w ",
"W%X%Y%Z%`%L  &.&+&@&#&| $&%&&&*&=&-&{$;&>&,&,&'&)&!&~&{&]&^&Z I ",
"B%/&(&_&:&<&[&I#}&|&1&2&3&7@<.% c 4&`+m@:@8 5&8@{%4&'+m@E$6&b d ",
"&$7&8&9&0&0&!+a&b&c&d&e&f&g&j@h&i&j&k&l&>&V#m&n&o&p&q&r&s&t&p.w ",
"u&v&w&x&y&I.z&A&B&C&D&C&E&F&G&H&I&J&J&K&L&t.M&M&N&O&P&P&Q&R&S&T&",
"U&]#- s s V&]#W&X&Y&Z&`& *c .*+*@*c q 5&#*$*%*Q%:+,+'+&***`#=*=*",
"-*;*>*1%d#,*}%'*)*!*~*{*]*^*/*(*_*:*<*7+[*}*d%|*1*A$2*;%3*4*@#!$"};
