/* XPM */
static char * so_xpm[] = {
"32 32 810 2",
"  	c #976953",
". 	c #876654",
"+ 	c #9D6C54",
"@ 	c #9E6C53",
"# 	c #9E6B54",
"$ 	c #9C6B54",
"% 	c #9C6A53",
"& 	c #88614E",
"* 	c #906C57",
"= 	c #996A53",
"- 	c #996A52",
"; 	c #986951",
"> 	c #986851",
", 	c #966752",
"' 	c #936751",
") 	c #966853",
"! 	c #866451",
"~ 	c #9C6C53",
"{ 	c #9F6A55",
"] 	c #9E6A55",
"^ 	c #9D6A55",
"/ 	c #9C6954",
"( 	c #7B614F",
"_ 	c #936A55",
": 	c #9C6A54",
"< 	c #9A6B54",
"[ 	c #955339",
"} 	c #915137",
"| 	c #8D4E34",
"1 	c #784D39",
"2 	c #96563A",
"3 	c #99573A",
"4 	c #985639",
"5 	c #955437",
"6 	c #965538",
"7 	c #965638",
"8 	c #985538",
"9 	c #814C33",
"0 	c #8F6049",
"a 	c #965537",
"b 	c #975538",
"c 	c #975638",
"d 	c #99583A",
"e 	c #7E4E37",
"f 	c #99563C",
"g 	c #99573D",
"h 	c #97553B",
"i 	c #96543A",
"j 	c #96553B",
"k 	c #74513C",
"l 	c #955940",
"m 	c #935238",
"n 	c #915037",
"o 	c #7B5139",
"p 	c #7B523D",
"q 	c #7B5440",
"r 	c #796050",
"s 	c #7B5D49",
"t 	c #795945",
"u 	c #785844",
"v 	c #795744",
"w 	c #81573E",
"x 	c #835840",
"y 	c #845941",
"z 	c #7B5842",
"A 	c #866852",
"B 	c #7E563F",
"C 	c #7E543F",
"D 	c #7C513C",
"E 	c #7E513B",
"F 	c #81523C",
"G 	c #784E39",
"H 	c #705542",
"I 	c #754F3A",
"J 	c #764E39",
"K 	c #764F39",
"L 	c #78523C",
"M 	c #815740",
"N 	c #825941",
"O 	c #835943",
"P 	c #795B46",
"Q 	c #815B46",
"R 	c #7E5640",
"S 	c #7F553C",
"T 	c #9C5D3F",
"U 	c #9C5E40",
"V 	c #9E6042",
"W 	c #A06145",
"X 	c #9F6145",
"Y 	c #9E6245",
"Z 	c #825743",
"` 	c #996146",
" .	c #9C5F43",
"..	c #A05F45",
"+.	c #9E5C42",
"@.	c #9C5C42",
"#.	c #9F5E44",
"$.	c #9F5F43",
"%.	c #8C553D",
"&.	c #97674F",
"*.	c #9E5D41",
"=.	c #9E5E42",
"-.	c #9D5F43",
";.	c #9D6043",
">.	c #9E6144",
",.	c #9E6244",
"'.	c #9D6143",
").	c #815842",
"!.	c #975D43",
"~.	c #9E5F45",
"{.	c #A05F46",
"].	c #9E5E44",
"^.	c #9B5B42",
"/.	c #9B5B41",
"(.	c #985739",
"_.	c #7D5644",
":.	c #864F35",
"<.	c #894C30",
"[.	c #8F5036",
"}.	c #945339",
"|.	c #925137",
"1.	c #925237",
"2.	c #7E4932",
"3.	c #89573D",
"4.	c #8F5034",
"5.	c #8E4F33",
"6.	c #8E4E33",
"7.	c #8C4D32",
"8.	c #8B4C32",
"9.	c #8A4C32",
"0.	c #734D37",
"a.	c #864B31",
"b.	c #8A4E33",
"c.	c #915138",
"d.	c #95533A",
"e.	c #945239",
"f.	c #935138",
"g.	c #925038",
"h.	c #886652",
"i.	c #88634F",
"j.	c #86624C",
"k.	c #7A5F4C",
"l.	c #855B46",
"m.	c #875C47",
"n.	c #865F49",
"o.	c #8B6C57",
"p.	c #886753",
"q.	c #876852",
"r.	c #866752",
"s.	c #846652",
"t.	c #755F4C",
"u.	c #85644E",
"v.	c #88654F",
"w.	c #8A6650",
"x.	c #8B6751",
"y.	c #87614B",
"z.	c #875F49",
"A.	c #845B46",
"B.	c #745541",
"C.	c #865B46",
"D.	c #865A44",
"E.	c #835B45",
"F.	c #86614C",
"G.	c #886551",
"H.	c #876753",
"I.	c #7F6450",
"J.	c #80624D",
"K.	c #89644F",
"L.	c #896550",
"M.	c #96553A",
"N.	c #975439",
"O.	c #965439",
"P.	c #7A503B",
"Q.	c #95593C",
"R.	c #97553C",
"S.	c #98543B",
"T.	c #98543A",
"U.	c #975438",
"V.	c #915033",
"W.	c #8C4E31",
"X.	c #894C31",
"Y.	c #7E543D",
"Z.	c #99573C",
"`.	c #9A573C",
" +	c #99563B",
".+	c #955439",
"++	c #935337",
"@+	c #925236",
"#+	c #794D37",
"$+	c #975437",
"%+	c #965339",
"&+	c #95523A",
"*+	c #96523A",
"=+	c #955238",
"-+	c #904F33",
";+	c #8B4E30",
">+	c #7D482E",
",+	c #92573D",
"'+	c #94543A",
")+	c #824830",
"!+	c #7E482F",
"~+	c #715342",
"{+	c #85533C",
"]+	c #854D36",
"^+	c #864C35",
"/+	c #874D33",
"(+	c #864C31",
"_+	c #834A2F",
":+	c #81492F",
"<+	c #7B462E",
"[+	c #765947",
"}+	c #7D4A31",
"|+	c #7D492F",
"1+	c #7C482F",
"2+	c #7B482D",
"3+	c #7B482E",
"4+	c #7B472F",
"5+	c #714D39",
"6+	c #844B33",
"7+	c #834C33",
"8+	c #854B33",
"9+	c #844A30",
"0+	c #834A30",
"a+	c #814930",
"b+	c #72442F",
"c+	c #81523A",
"d+	c #854E35",
"e+	c #834C34",
"f+	c #936147",
"g+	c #936146",
"h+	c #946247",
"i+	c #97664E",
"j+	c #986750",
"k+	c #9B6B55",
"l+	c #976A53",
"m+	c #836551",
"n+	c #8F6048",
"o+	c #916048",
"p+	c #94634B",
"q+	c #96674F",
"r+	c #986C55",
"s+	c #956951",
"t+	c #946850",
"u+	c #87634D",
"v+	c #916A54",
"w+	c #9A6A52",
"x+	c #996951",
"y+	c #96654E",
"z+	c #94634C",
"A+	c #91624B",
"B+	c #8F624A",
"C+	c #7E5A46",
"D+	c #906049",
"E+	c #926146",
"F+	c #926248",
"G+	c #95634A",
"H+	c #95634B",
"I+	c #926049",
"J+	c #905F46",
"K+	c #935639",
"L+	c #915336",
"M+	c #935237",
"N+	c #945338",
"O+	c #955338",
"P+	c #794D39",
"Q+	c #905236",
"R+	c #915134",
"S+	c #8F4F32",
"T+	c #8E5033",
"U+	c #965639",
"V+	c #98583B",
"W+	c #834E36",
"X+	c #8F5C43",
"Y+	c #955539",
"Z+	c #945438",
"`+	c #945539",
" @	c #935438",
".@	c #7C4D38",
"+@	c #905135",
"@@	c #905134",
"#@	c #8F5133",
"$@	c #8E4F32",
"%@	c #905034",
"&@	c #945237",
"*@	c #955337",
"=@	c #7E553E",
"-@	c #7C523A",
";@	c #784E37",
">@	c #7A4F37",
",@	c #7C5038",
"'@	c #7C513A",
")@	c #765844",
"!@	c #7F5841",
"~@	c #7F543E",
"{@	c #79503C",
"]@	c #845840",
"^@	c #845940",
"/@	c #7B543F",
"(@	c #7E5C47",
"_@	c #82573F",
":@	c #7F543C",
"<@	c #7C5139",
"[@	c #774E38",
"}@	c #7A5038",
"|@	c #7D503B",
"1@	c #7F5540",
"2@	c #7E533E",
"3@	c #774F3C",
"4@	c #7E5540",
"5@	c #845844",
"6@	c #855844",
"7@	c #9C5B40",
"8@	c #9B5B3F",
"9@	c #9A593E",
"0@	c #7F553E",
"a@	c #9B5E44",
"b@	c #9A5B40",
"c@	c #995A3E",
"d@	c #9A5A3F",
"e@	c #9A5B3F",
"f@	c #824F39",
"g@	c #91634B",
"h@	c #98593C",
"i@	c #995A3D",
"j@	c #9A5B3E",
"k@	c #9C5B3F",
"l@	c #97593C",
"m@	c #9A5C3F",
"n@	c #9D5E41",
"o@	c #84563F",
"p@	c #9A5D41",
"q@	c #9A5A3E",
"r@	c #9B5A3E",
"s@	c #75523E",
"t@	c #955F44",
"u@	c #99593D",
"v@	c #8C4E34",
"w@	c #8A4D31",
"x@	c #884A30",
"y@	c #754E3A",
"z@	c #8C5137",
"A@	c #8E5037",
"B@	c #8D4E36",
"C@	c #915035",
"D@	c #925036",
"E@	c #925136",
"F@	c #7F4A34",
"G@	c #865D46",
"H@	c #8A4D34",
"I@	c #8C4E33",
"J@	c #8E5034",
"K@	c #925337",
"L@	c #925438",
"M@	c #905036",
"N@	c #764C35",
"O@	c #8C5035",
"P@	c #8E5035",
"Q@	c #8C4F33",
"R@	c #8D4F34",
"S@	c #8F5136",
"T@	c #905136",
"U@	c #915237",
"V@	c #734F3B",
"W@	c #8C553C",
"X@	c #874B30",
"Y@	c #8A4B31",
"Z@	c #8A5B45",
"`@	c #8B5D46",
" #	c #8B624E",
".#	c #906D57",
"+#	c #8F6A55",
"@#	c #8C6750",
"##	c #8B674F",
"$#	c #795F4D",
"%#	c #7F5A46",
"&#	c #835A45",
"*#	c #845D48",
"=#	c #8C6852",
"-#	c #885F47",
";#	c #885D45",
">#	c #7D5742",
",#	c #84604B",
"'#	c #885C44",
")#	c #8B5E46",
"!#	c #8D634C",
"~#	c #8B6149",
"{#	c #8A6048",
"]#	c #765846",
"^#	c #805944",
"/#	c #825B44",
"(#	c #835B44",
"_#	c #865D47",
":#	c #885F48",
"<#	c #865C44",
"[#	c #875B44",
"}#	c #98553C",
"|#	c #97563B",
"1#	c #96563B",
"2#	c #98553B",
"3#	c #9A563C",
"4#	c #7D5440",
"5#	c #8C5037",
"6#	c #97573B",
"7#	c #98583C",
"8#	c #864E35",
"9#	c #905C42",
"0#	c #935339",
"a#	c #915135",
"b#	c #7A4F38",
"c#	c #945538",
"d#	c #935338",
"e#	c #82513C",
"f#	c #834F3A",
"g#	c #854E38",
"h#	c #854E36",
"i#	c #844C35",
"j#	c #824933",
"k#	c #765B4B",
"l#	c #7A4C37",
"m#	c #7D4E39",
"n#	c #80523E",
"o#	c #81533D",
"p#	c #81563F",
"q#	c #7F563F",
"r#	c #765442",
"s#	c #805D49",
"t#	c #7E4F3A",
"u#	c #7D4C34",
"v#	c #7C4A32",
"w#	c #7C4931",
"x#	c #7C462F",
"y#	c #7B462F",
"z#	c #7A4730",
"A#	c #6F523D",
"B#	c #794E37",
"C#	c #794E39",
"D#	c #7C503A",
"E#	c #815340",
"F#	c #7E503B",
"G#	c #7E513A",
"H#	c #9C6951",
"I#	c #9A6951",
"J#	c #986850",
"K#	c #826551",
"L#	c #96634B",
"M#	c #9B644C",
"N#	c #9B664D",
"O#	c #9C684E",
"P#	c #9A664E",
"Q#	c #9A6A53",
"R#	c #966952",
"S#	c #916751",
"T#	c #85644F",
"U#	c #9E674E",
"V#	c #9D674E",
"W#	c #9C674D",
"X#	c #9D674D",
"Y#	c #9C664C",
"Z#	c #99644A",
"`#	c #9A6349",
" $	c #9A6449",
".$	c #996348",
"+$	c #986448",
"@$	c #9A684E",
"#$	c #9A6952",
"$$	c #966950",
"%$	c #8B644E",
"&$	c #90664E",
"*$	c #9B684F",
"=$	c #764D38",
"-$	c #95583E",
";$	c #95543A",
">$	c #935239",
",$	c #7B533E",
"'$	c #8E4F35",
")$	c #8D4E33",
"!$	c #8C4D33",
"~$	c #774D36",
"{$	c #945337",
"]$	c #935436",
"^$	c #925335",
"/$	c #915334",
"($	c #905133",
"_$	c #8B4F30",
":$	c #884D2D",
"<$	c #7E482E",
"[$	c #815640",
"}$	c #81553F",
"|$	c #7C553E",
"1$	c #7C614D",
"2$	c #7E5E4A",
"3$	c #7F5D4B",
"4$	c #7E5B47",
"5$	c #7B5946",
"6$	c #835843",
"7$	c #845942",
"8$	c #865B44",
"9$	c #855E47",
"0$	c #8A6E59",
"a$	c #86624F",
"b$	c #84614D",
"c$	c #7D5D4B",
"d$	c #7E5E4C",
"e$	c #83614C",
"f$	c #83604C",
"g$	c #805D4C",
"h$	c #785A48",
"i$	c #7A5542",
"j$	c #7A5441",
"k$	c #78533D",
"l$	c #79523C",
"m$	c #855940",
"n$	c #855B42",
"o$	c #7F5943",
"p$	c #845F48",
"q$	c #815942",
"r$	c #9B593E",
"s$	c #9C593F",
"t$	c #9E5C41",
"u$	c #9F5D42",
"v$	c #835842",
"w$	c #9D6145",
"x$	c #9C5C3F",
"y$	c #9B5B3E",
"z$	c #9A5B3D",
"A$	c #995A3C",
"B$	c #9A5A40",
"C$	c #9A5A41",
"D$	c #85523B",
"E$	c #926047",
"F$	c #97583D",
"G$	c #9A5C40",
"H$	c #9B5D41",
"I$	c #97593E",
"J$	c #865741",
"K$	c #9D5E44",
"L$	c #9C5B41",
"M$	c #98593F",
"N$	c #98583F",
"O$	c #985940",
"P$	c #8A4D32",
"Q$	c #884B31",
"R$	c #8B4D32",
"S$	c #8D4D33",
"T$	c #894D32",
"U$	c #724A35",
"V$	c #864D34",
"W$	c #874B2F",
"X$	c #864B30",
"Y$	c #854A2F",
"Z$	c #874C31",
"`$	c #7D4A32",
" %	c #865740",
".%	c #8E5136",
"+%	c #8C4F32",
"@%	c #8D4F33",
"#%	c #8C4E32",
"$%	c #754B36",
"%%	c #864A2E",
"&%	c #894C33",
"*%	c #8C4F34",
"=%	c #8D5034",
"-%	c #8F5F49",
";%	c #8D5E47",
">%	c #8C5C43",
",%	c #775440",
"'%	c #905F47",
")%	c #905E46",
"!%	c #915E47",
"~%	c #93634B",
"{%	c #91604A",
"]%	c #916049",
"^%	c #7E5740",
"/%	c #885F49",
"(%	c #905E45",
"_%	c #8F5F47",
":%	c #90644A",
"<%	c #8B5D44",
"[%	c #8D5C44",
"}%	c #7C5641",
"|%	c #915D48",
"1%	c #93634C",
"2%	c #916145",
"3%	c #906145",
"4%	c #725542",
"5%	c #895E48",
"6%	c #905D45",
"7%	c #955438",
"8%	c #8D4F32",
"9%	c #794E38",
"0%	c #95563A",
"a%	c #98573B",
"b%	c #975539",
"c%	c #985539",
"d%	c #804C32",
"e%	c #8F6147",
"f%	c #98563A",
"g%	c #99583B",
"h%	c #99573B",
"i%	c #7F4E36",
"j%	c #98553A",
"k%	c #75503B",
"l%	c #965C40",
"m%	c #7B4B32",
"n%	c #7B4C34",
"o%	c #7B513A",
"p%	c #785F4E",
"q%	c #7E5A47",
"r%	c #7A5540",
"s%	c #79533F",
"t%	c #7B533F",
"u%	c #7E5139",
"v%	c #76523D",
"w%	c #80624F",
"x%	c #784D35",
"y%	c #7A4D36",
"z%	c #7F4F39",
"A%	c #7F4F35",
"B%	c #7F4E34",
"C%	c #794C37",
"D%	c #794D38",
"E%	c #784D38",
"F%	c #774C36",
"G%	c #7C4F39",
"H%	c #7E5039",
"I%	c #71533D",
"J%	c #7D563F",
"K%	c #784C36",
"L%	c #9C6047",
"M%	c #9D6148",
"N%	c #9C6248",
"O%	c #9E6449",
"P%	c #9E6549",
"Q%	c #9D654A",
"R%	c #9C6549",
"S%	c #7F5D48",
"T%	c #955D45",
"U%	c #9A6045",
"V%	c #A06146",
"W%	c #9D5D42",
"X%	c #9A5E42",
"Y%	c #9E5F44",
"Z%	c #9C6045",
"`%	c #895841",
" &	c #9D6248",
".&	c #9D6247",
"+&	c #9C6146",
"@&	c #9C6348",
"#&	c #9B6447",
"$&	c #9C6447",
"%&	c #9C6347",
"&&	c #815944",
"*&	c #955B41",
"=&	c #9D6045",
"-&	c #A06045",
";&	c #9E6046",
">&	c #9B5D44",
",&	c #995D41",
"'&	c #98573A",
")&	c #975639",
"!&	c #7C5644",
"~&	c #8A5038",
"{&	c #97553A",
"]&	c #945439",
"^&	c #935439",
"/&	c #814B32",
"(&	c #8B5740",
"_&	c #935137",
":&	c #8F5033",
"<&	c #8C4F31",
"[&	c #8B4E31",
"}&	c #8B4E33",
"|&	c #764D37",
"1&	c #884D31",
"2&	c #98563B",
"3&	c #84664F",
"4&	c #846450",
"5&	c #85614E",
"6&	c #7C5E4D",
"7&	c #845B44",
"8&	c #865D48",
"9&	c #876C57",
"0&	c #856753",
"a&	c #856652",
"b&	c #866753",
"c&	c #846753",
"d&	c #78604D",
"e&	c #856350",
"f&	c #876450",
"g&	c #866550",
"h&	c #896853",
"i&	c #835E49",
"j&	c #76553F",
"k&	c #835A42",
"l&	c #825B43",
"m&	c #825B45",
"n&	c #81634D",
"o&	c #836451",
"p&	c #846653",
"q&	c #846754",
"r&	c #7F6554",
"s&	c #7C604D",
"t&	c #83624E",
"u&	c #955638",
"v&	c #7C523D",
"w&	c #97583C",
"x&	c #915234",
"y&	c #8D5031",
"z&	c #8B4E2F",
"A&	c #7F5440",
"B&	c #98573D",
"C&	c #9A553C",
"D&	c #784E38",
"E&	c #965437",
"F&	c #955537",
"G&	c #945436",
"H&	c #8E4F31",
"I&	c #80492E",
"J&	c #92583D",
"K&	c #874930",
"L&	c #874A31",
"M&	c #84492E",
"N&	c #73513D",
"O&	c #8A543C",
"P&	c #8A4F35",
"Q&	c #8C4F35",
"R&	c #8C4E35",
"S&	c #80472C",
"T&	c #775643",
"U&	c #854A32",
"V&	c #844A31",
"W&	c #824930",
"X&	c #80472E",
"Y&	c #80482E",
"Z&	c #81482E",
"`&	c #80472D",
" *	c #724C36",
".*	c #874C33",
"+*	c #884D32",
"@*	c #894D33",
"#*	c #85492F",
"$*	c #76442C",
"%*	c #875239",
"&*	c #8D5036",
"**	c #8E6047",
"=*	c #8F6149",
"-*	c #926750",
";*	c #926A52",
">*	c #926A54",
",*	c #8F6751",
"'*	c #806351",
")*	c #895C46",
"!*	c #8C5A45",
"~*	c #8E5E47",
"{*	c #91634C",
"]*	c #976B55",
"^*	c #926751",
"/*	c #84624E",
"(*	c #8C6A56",
"_*	c #946A54",
":*	c #916650",
"<*	c #8E644D",
"[*	c #8A6249",
"}*	c #8A5F47",
"|*	c #7C5944",
"1*	c #8B5C44",
"2*	c #8B5B43",
"3*	c #8C5C44",
"4*	c #8D5E46",
"5*	c #90614A",
"6*	c #8E6048",
"7*	c #95553B",
"8*	c #7B4E3A",
"9*	c #935236",
"0*	c #98573C",
"a*	c #8D5D45",
"b*	c #95543B",
"c*	c #8D4D34",
"d*	c #7E4F38",
"e*	c #925138",
"f*	c #925238",
"g*	c #904F36",
"h*	c #915338",
"i*	c #764F3B",
"j*	c #764F3A",
"k*	c #784C37",
"l*	c #784A35",
"m*	c #774A35",
"n*	c #764C37",
"o*	c #6B5240",
"p*	c #78523E",
"q*	c #774E3A",
"r*	c #794F3B",
"s*	c #7B513D",
"t*	c #704E3C",
"u*	c #775947",
"v*	c #7C513F",
"w*	c #7C503E",
"x*	c #7A4C3A",
"y*	c #794B38",
"z*	c #784A37",
"A*	c #784A36",
"B*	c #784B39",
"C*	c #6E5341",
"D*	c #754E3D",
"E*	c #754E3C",
"F*	c #764E3C",
"G*	c #764E3B",
"H*	c #764F3D",
"I*	c #78503D",
"      . + @ # # $ $ % & * = - ; > , ' ) ! ~ # { { ] ^ / ( _ : < ",
"[ } | 1 2 3 4 5 6 7 8 9 0 a b b 8 c d 3 e f g h i j h j k l m n ",
"o p q r s t u v w x y z A B C D E F E G H I J K L M N O P Q R S ",
"T U V W X Y Y Z `  ...+.@.#.$.%.&.*.=.-.;.>.,.'.).!.~.{.].^.^./.",
"6 (.4 8 6 b 6 _.:.<.[.[ }.|.1.2.3.4.5.6.7.8.7.9.0.a.b.c.d.e.f.g.",
"h.i.j.k.l.m.n.o.p.q.r.s.t.u.v.w.x.y.z.A.B.C.D.E.F.G.p.H.I.J.K.L.",
"M.N.O.P.Q.R.S.T.U.V.W.X.Y.Z.`. +.+++@+5.#+$+%+&+*+=+-+;+>+,+j '+",
")+)+!+~+{+]+^+/+(+_+:+<+[+}+|+1+2+3+3+4+5+6+6+7+8+9+0+a+b+c+d+e+",
"f+g+h+i+j+k+l+m+n+o+p+q+r+s+t+u+v+- w+x+y+z+A+B+C+D+E+F+G+H+I+J+",
"K+L+M+N+}.O+++P+Q+R+R+S+T+U+V+W+X+Y+Z+`+ @ @N+7..@+@@@#@$@%@&@*@",
"=@Y.-@;@>@,@'@)@!@~@Y.{@=@]@^@/@(@_@:@<@[@}@'@|@u 1@2@2@3@4@5@6@",
"7@8@9@0@a@b@c@d@d@d@e@f@g@h@i@j@k@l@m@n@o@p@j@q@r@q@e@j@s@t@u@h@",
"v@w@x@y@z@A@B@| C@D@E@F@G@H@I@J@K@`+L@M@N@O@P@Q@R@S@T@U@V@W@X@Y@",
"Z@`@ #.#+#@###$#%#&#&#*#=#-#;#>#,#'#'#)#!#~#~#{#]#^#/#(#_#:#<#[#",
"f }#|#1#2#3#Z.4#5#1.6#7#Y+Y+7#8#9#j 0#} a#M+N+O+b#;+c#V+7#Y+d#d#",
"e#f#g#h#i#j#}+k#4#l#m#n#o#p#q#r#s#t#u#v#w#x#y#z#A#B#C#D#E#n#F#G#",
"H#I#J#K#L#M#N#O#P#Q#R#S#T#U#V#W#X#Y#X#Z#C+`# $.$+$@$#$$$%$&$N#*$",
"T@a#%@=$-$h ;$i >$| 9.X@,$d.[ U@'$)$!$9.~${$]$^$/$($_$:$<$,+h }.",
"[$}$|$1$2$3$4$5$6$7$8$9$0$a$b$c$d$e$f$g$h$i$j$k$l$y m$n$o$p$(#q$",
"r$s$7@t$t$u$ .v$w$x$y$z$A$B$C$D$E$c@F$e@G$H$G$I$J$K$@.L$B$M$N$O$",
"P$Q$R$S$| )$T$U$V$W$X$Y$Z$M@U@`$ %.%1.J@+%@%#%X@$%a.X$X$%%&%*%=%",
"-%;%>%,%'%)%!%~%~%{%]%^%/%(%)%_%:%)#<%[%}%|%|%!%1%2%2%3%4%5%6%(%",
"7%@+8%9%0%V+a%b%c%c%c%d%e%c%f%b%b%Y+g%h%i%3#`. +N.j%j%j%k%l%O+E@",
"m%n%o%p%q%r%s%t%E u%u%v%w%;@x%y%z%A%B%C%A#D%E%F%G%H%u%u%I%J%K%l#",
"L%M%N%O%P%Q%R%S%T%U%V%W%X%Y%Z%`%R# &.&+&@&#&$&%&&&*&=&-&;&>&p@,&",
"'&3 4 )&6 *@7%!&~&6.d#|#{&]&^&/&(&_&:&<&[&}&W.)$|&1&J@O+2&{&%+=+",
"3&4&5&6&7&8&*#9&0&a&b&c&d&e&f&g&h&F.i&/#j&k&l&m&n&o&p&q&r&s&t&e&",
"b 7 u&v&w&8 b b 5 x&y&z&A&B&g C&S.%+{$R+D&b%$+E&F&G&V.H&I&J&j%$+",
"K&L&M&N&O&P&Q&R&}&W$%%S&T&U&V&W&X&Y&Z&`& *.*+*9.@*T$X$#*$*%*&*b.",
"****=*-*;*>*,*'*)*!*~*{*]*' ^*/*(*_*_*_*:*<*[*}*|*1*2*3*4*5*6*4*",
"U+0#'+'+7*'+'+8* @M+9*a#E@{&0*W+a*b*;$h [ ;$'+c*d*e*f*e*g*} h*d#",
"i*j*E%k*l*m*n*o*p*q*q*i*q*r*s*t*u*v*w*x*y*z*A*B*C*D*E*F*G*F*H*I*"};
