/* XPM */
static char * we_xpm[] = {
"32 32 795 2",
"  	c #5C757F",
". 	c #5C757D",
"+ 	c #5C767B",
"@ 	c #5E6E70",
"# 	c #5D7983",
"$ 	c #567E8D",
"% 	c #577E8D",
"& 	c #587E8D",
"* 	c #587D8C",
"= 	c #587C8A",
"- 	c #5A7B89",
"; 	c #58737C",
"> 	c #666E6E",
", 	c #5B7683",
"' 	c #5A7683",
") 	c #5A7682",
"! 	c #5B767F",
"~ 	c #5C757C",
"{ 	c #5E747B",
"] 	c #5F747C",
"^ 	c #5F6E6F",
"/ 	c #577E8E",
"( 	c #567D8D",
"_ 	c #597D8B",
": 	c #587B89",
"< 	c #616A6C",
"[ 	c #627071",
"} 	c #597581",
"| 	c #467483",
"1 	c #447282",
"2 	c #406E80",
"3 	c #3C616E",
"4 	c #4F737E",
"5 	c #4A7683",
"6 	c #497683",
"7 	c #467485",
"8 	c #477584",
"9 	c #477583",
"0 	c #3F6C7B",
"a 	c #5C6F73",
"b 	c #447485",
"c 	c #457586",
"d 	c #457485",
"e 	c #457585",
"f 	c #457484",
"g 	c #497784",
"h 	c #497785",
"i 	c #43656D",
"j 	c #487684",
"k 	c #497684",
"l 	c #487584",
"m 	c #467383",
"n 	c #477483",
"o 	c #477484",
"p 	c #4D6169",
"q 	c #54727B",
"r 	c #447283",
"s 	c #427182",
"t 	c #46616D",
"u 	c #46626F",
"v 	c #4D646D",
"w 	c #586162",
"x 	c #676F6E",
"y 	c #576669",
"z 	c #556668",
"A 	c #53676B",
"B 	c #4F676D",
"C 	c #50676E",
"D 	c #4F656A",
"E 	c #676E6E",
"F 	c #4E646B",
"G 	c #4A646B",
"H 	c #49646C",
"I 	c #4C646B",
"J 	c #48666F",
"K 	c #48656E",
"L 	c #476169",
"M 	c #585C59",
"N 	c #516164",
"O 	c #4D5F65",
"P 	c #4D5F64",
"Q 	c #516165",
"R 	c #4F676B",
"S 	c #4F686E",
"T 	c #4F686F",
"U 	c #576162",
"V 	c #5A6667",
"W 	c #4D636A",
"X 	c #48656C",
"Y 	c #4C7A8B",
"Z 	c #4C798B",
"` 	c #4D7A8C",
" .	c #4E7B8C",
"..	c #4F7B8B",
"+.	c #4F7A8B",
"@.	c #506E77",
"#.	c #557681",
"$.	c #4A798A",
"%.	c #4C7B8B",
"&.	c #4B7A8A",
"*.	c #487888",
"=.	c #4B7B8B",
"-.	c #4B7A8B",
";.	c #477585",
">.	c #5F7579",
",.	c #4C7A8A",
"'.	c #4D7A8B",
").	c #507A8B",
"!.	c #546C73",
"~.	c #467687",
"{.	c #4B7B89",
"].	c #497889",
"^.	c #4A7988",
"/.	c #497685",
"(.	c #497686",
"_.	c #487585",
":.	c #487683",
"<.	c #42656E",
"[.	c #567078",
"}.	c #396B7C",
"|.	c #416F7F",
"1.	c #447281",
"2.	c #437180",
"3.	c #437181",
"4.	c #3B6879",
"5.	c #51686C",
"6.	c #427080",
"7.	c #406F80",
"8.	c #3E6E80",
"9.	c #3A6C7F",
"0.	c #396B7E",
"a.	c #3C6B7F",
"b.	c #3B6C7E",
"c.	c #495D65",
"d.	c #38697A",
"e.	c #3C6D7D",
"f.	c #417180",
"g.	c #457382",
"h.	c #457282",
"i.	c #617074",
"j.	c #5E7074",
"k.	c #5B6F74",
"l.	c #5B6A6B",
"m.	c #576B6D",
"n.	c #506E79",
"o.	c #546E78",
"p.	c #607176",
"q.	c #6A7575",
"r.	c #647174",
"s.	c #617073",
"t.	c #627173",
"u.	c #676963",
"v.	c #5F7176",
"w.	c #607378",
"x.	c #607276",
"y.	c #657375",
"z.	c #5C7175",
"A.	c #586E77",
"B.	c #536B76",
"C.	c #526365",
"D.	c #4F6C75",
"E.	c #4E6B76",
"F.	c #516A74",
"G.	c #5F6C71",
"H.	c #626E75",
"I.	c #627073",
"J.	c #636E71",
"K.	c #616A6B",
"L.	c #5E7077",
"M.	c #617278",
"N.	c #457686",
"O.	c #467685",
"P.	c #457684",
"Q.	c #406572",
"R.	c #56727B",
"S.	c #467484",
"T.	c #467585",
"U.	c #457486",
"V.	c #417183",
"W.	c #3D6C7F",
"X.	c #3B6A7D",
"Y.	c #4B6368",
"Z.	c #477887",
"`.	c #477786",
" +	c #427282",
".+	c #3F6F80",
"++	c #446169",
"@+	c #457482",
"#+	c #447383",
"$+	c #457483",
"%+	c #447482",
"&+	c #3F6F7F",
"*+	c #3D6B7E",
"=+	c #366677",
"-+	c #4A6F7A",
";+	c #366474",
">+	c #376675",
",+	c #376473",
"'+	c #3E5961",
")+	c #5C6D70",
"!+	c #406874",
"~+	c #3F6975",
"{+	c #3E6976",
"]+	c #3D6978",
"^+	c #396676",
"/+	c #386676",
"(+	c #366372",
"_+	c #5A605E",
":+	c #3E626F",
"<+	c #3D6271",
"[+	c #3B616F",
"}+	c #3A606D",
"|+	c #3B616D",
"1+	c #3B606E",
"2+	c #3B5F6E",
"3+	c #4A5B5E",
"4+	c #446870",
"5+	c #406774",
"6+	c #3F6874",
"7+	c #3B6977",
"8+	c #3A6776",
"9+	c #396576",
"0+	c #355E6B",
"a+	c #4D656A",
"b+	c #436A76",
"c+	c #3E6875",
"d+	c #55777E",
"e+	c #537680",
"f+	c #567680",
"g+	c #5A767F",
"h+	c #5F7982",
"i+	c #617B83",
"j+	c #617A83",
"k+	c #617276",
"l+	c #61757C",
"m+	c #597480",
"n+	c #58747F",
"o+	c #5C7882",
"p+	c #637D85",
"q+	c #617C85",
"r+	c #607C86",
"s+	c #5F787E",
"t+	c #6A7373",
"u+	c #5D7C86",
"v+	c #5E7B86",
"w+	c #5A757F",
"x+	c #59747E",
"y+	c #59737B",
"z+	c #5D6A6D",
"A+	c #5B7681",
"B+	c #57757F",
"C+	c #5B7580",
"D+	c #5C7780",
"E+	c #5B7680",
"F+	c #587681",
"G+	c #487483",
"H+	c #437281",
"I+	c #447382",
"J+	c #437282",
"K+	c #3E636F",
"L+	c #4C6D7A",
"M+	c #427081",
"N+	c #417181",
"O+	c #3E6E7E",
"P+	c #477788",
"Q+	c #426E7D",
"R+	c #596B6F",
"S+	c #467583",
"T+	c #467382",
"U+	c #477382",
"V+	c #447381",
"W+	c #3D6D7E",
"X+	c #41616A",
"Y+	c #417080",
"Z+	c #3E6F7F",
"`+	c #467384",
" @	c #487384",
".@	c #4F656B",
"+@	c #4D656E",
"@@	c #4B656D",
"#@	c #496369",
"$@	c #48636A",
"%@	c #46646C",
"&@	c #48646D",
"*@	c #526064",
"=@	c #5B686B",
"-@	c #4E666F",
";@	c #4D666F",
">@	c #4C646C",
",@	c #4E6368",
"'@	c #4C6874",
")@	c #4B6974",
"!@	c #4D676E",
"~@	c #5E6769",
"{@	c #516870",
"]@	c #4B6570",
"^@	c #4A616A",
"/@	c #47646F",
"(@	c #466470",
"_@	c #47646E",
":@	c #576363",
"<@	c #4E666E",
"[@	c #4C666F",
"}@	c #4B676F",
"|@	c #4E6167",
"1@	c #4E6369",
"2@	c #4C6974",
"3@	c #4C6873",
"4@	c #487889",
"5@	c #497989",
"6@	c #487789",
"7@	c #456A77",
"8@	c #547A8A",
"9@	c #4C7E92",
"0@	c #4B7D90",
"a@	c #4B7C90",
"b@	c #4C7C8F",
"c@	c #4C7B8C",
"d@	c #5D7173",
"e@	c #487786",
"f@	c #497787",
"g@	c #487887",
"h@	c #477886",
"i@	c #497A88",
"j@	c #4B6E76",
"k@	c #4F7F92",
"l@	c #4C7D8E",
"m@	c #4C7C8D",
"n@	c #4C7C8E",
"o@	c #4C7B8D",
"p@	c #4B7B8D",
"q@	c #50666D",
"r@	c #55767E",
"s@	c #477785",
"t@	c #3D6D7F",
"u@	c #36697B",
"v@	c #3B5B69",
"w@	c #546F76",
"x@	c #3F6F7A",
"y@	c #3D6D7B",
"z@	c #3C6C7D",
"A@	c #406F7F",
"B@	c #3C6978",
"C@	c #596A6C",
"D@	c #3A6A79",
"E@	c #3C6C7B",
"F@	c #3C6D7C",
"G@	c #427181",
"H@	c #437383",
"I@	c #427382",
"J@	c #3F707E",
"K@	c #445F64",
"L@	c #3F6D7C",
"M@	c #3E6D7C",
"N@	c #3D6D7D",
"O@	c #4B6167",
"P@	c #506E75",
"Q@	c #386977",
"R@	c #396979",
"S@	c #506D79",
"T@	c #526F7B",
"U@	c #58727C",
"V@	c #61767C",
"W@	c #687980",
"X@	c #63747E",
"Y@	c #60737B",
"Z@	c #626C6C",
"`@	c #5F6E71",
" #	c #56727C",
".#	c #55727D",
"+#	c #57727C",
"@#	c #647A81",
"##	c #58717C",
"$#	c #567079",
"%#	c #526D75",
"&#	c #5F6B6D",
"*#	c #506F79",
"=#	c #4E7079",
"-#	c #536E78",
";#	c #5C7177",
">#	c #5B7077",
",#	c #5A6E76",
"'#	c #5B6E77",
")#	c #5F6664",
"!#	c #587078",
"~#	c #57727B",
"{#	c #5A727A",
"]#	c #5C737A",
"^#	c #59707A",
"/#	c #556E78",
"(#	c #487685",
"_#	c #497584",
":#	c #497586",
"<#	c #487586",
"[#	c #487686",
"}#	c #446772",
"|#	c #51717C",
"1#	c #407081",
"2#	c #477686",
"3#	c #4A7685",
"4#	c #487385",
"5#	c #43707F",
"6#	c #576C73",
"7#	c #417182",
"8#	c #437381",
"9#	c #47646B",
"0#	c #3C6B7C",
"a#	c #457383",
"b#	c #50686F",
"c#	c #4E6870",
"d#	c #496870",
"e#	c #486772",
"f#	c #466772",
"g#	c #446570",
"h#	c #42636D",
"i#	c #515F61",
"j#	c #646D6D",
"k#	c #4B6169",
"l#	c #4D6167",
"m#	c #52666B",
"n#	c #54686E",
"o#	c #546A70",
"p#	c #536A70",
"q#	c #52646A",
"r#	c #606866",
"s#	c #4E676E",
"t#	c #47646D",
"u#	c #43636F",
"v#	c #3F626F",
"w#	c #3D606E",
"x#	c #3E606C",
"y#	c #3F5F69",
"z#	c #555A58",
"A#	c #4E6068",
"B#	c #4C6069",
"C#	c #52686F",
"D#	c #4E676D",
"E#	c #51676B",
"F#	c #5A7C88",
"G#	c #587B87",
"H#	c #5D7279",
"I#	c #61777D",
"J#	c #537987",
"K#	c #547988",
"L#	c #567A88",
"M#	c #567A86",
"N#	c #5A7D88",
"O#	c #5A7A86",
"P#	c #587884",
"Q#	c #5F6C6B",
"R#	c #517886",
"S#	c #517A88",
"T#	c #507A89",
"U#	c #507987",
"V#	c #507986",
"W#	c #517683",
"X#	c #55686B",
"Y#	c #517988",
"Z#	c #517986",
"`#	c #537887",
" $	c #587A88",
".$	c #577A87",
"+$	c #59747A",
"@$	c #537A88",
"#$	c #547A88",
"$$	c #416E80",
"%$	c #437083",
"&$	c #427082",
"*$	c #3D616E",
"=$	c #55727A",
"-$	c #467684",
";$	c #3B6C7D",
">$	c #3A6B7D",
",$	c #4F6367",
"'$	c #447182",
")$	c #3C6D7E",
"!$	c #3A6B7C",
"~$	c #446168",
"{$	c #447483",
"]$	c #437382",
"^$	c #356677",
"/$	c #4B6F7C",
"($	c #4B6873",
"_$	c #4A6973",
":$	c #4C6871",
"<$	c #586568",
"[$	c #687272",
"}$	c #5C6E71",
"|$	c #5A6D70",
"1$	c #5C696C",
"2$	c #51686D",
"3$	c #4B6A74",
"4$	c #4D6D76",
"5$	c #536F79",
"6$	c #5B7175",
"7$	c #5B6F73",
"8$	c #5D6C6F",
"9$	c #5F6A6C",
"0$	c #5A6F76",
"a$	c #5A6E75",
"b$	c #5C6D73",
"c$	c #5F6968",
"d$	c #576768",
"e$	c #54666A",
"f$	c #52656A",
"g$	c #536165",
"h$	c #4D6872",
"i$	c #4B6A75",
"j$	c #4C6B76",
"k$	c #506870",
"l$	c #5A6B6E",
"m$	c #546B73",
"n$	c #477787",
"o$	c #497687",
"p$	c #4A768A",
"q$	c #4A778A",
"r$	c #4B7889",
"s$	c #4A788A",
"t$	c #466D78",
"u$	c #527582",
"v$	c #497888",
"w$	c #477586",
"x$	c #426F7E",
"y$	c #5A6D72",
"z$	c #487687",
"A$	c #4B7787",
"B$	c #497788",
"C$	c #486873",
"D$	c #487788",
"E$	c #487787",
"F$	c #467787",
"G$	c #457685",
"H$	c #467586",
"I$	c #3B6A7A",
"J$	c #38677A",
"K$	c #396878",
"L$	c #3A6A7B",
"M$	c #3B6A7B",
"N$	c #3A5C66",
"O$	c #4A676F",
"P$	c #366777",
"Q$	c #366478",
"R$	c #37677A",
"S$	c #3D6C7D",
"T$	c #3F6E7F",
"U$	c #3A6777",
"V$	c #55646A",
"W$	c #3F6D7E",
"X$	c #416E81",
"Y$	c #3B6B7C",
"Z$	c #3B6B7B",
"`$	c #366679",
" %	c #445C64",
".%	c #366678",
"+%	c #356678",
"@%	c #356676",
"#%	c #386878",
"$%	c #3E6C7B",
"%%	c #56737C",
"&%	c #54727D",
"*%	c #53707D",
"=%	c #4E7A8D",
"-%	c #4E7B8E",
";%	c #517A8A",
">%	c #547A89",
",%	c #507888",
"'%	c #4F7785",
")%	c #4F6F7C",
"!%	c #5E6A6C",
"~%	c #4F747F",
"{%	c #52727D",
"]%	c #54717D",
"^%	c #51717D",
"/%	c #53686D",
"(%	c #4D7B8D",
"_%	c #537988",
":%	c #517787",
"<%	c #4F7784",
"[%	c #566769",
"}%	c #5A6E74",
"|%	c #4F7480",
"1%	c #4F7380",
"2%	c #3C616F",
"3%	c #50737D",
"4%	c #487785",
"5%	c #3E6C7C",
"6%	c #5D6F72",
"7%	c #467584",
"8%	c #4A6167",
"9%	c #54737D",
"0%	c #46616C",
"a%	c #48636D",
"b%	c #4D656D",
"c%	c #576061",
"d%	c #676F6D",
"e%	c #556669",
"f%	c #536569",
"g%	c #516B73",
"h%	c #4B6F7B",
"i%	c #4B6C75",
"j%	c #647378",
"k%	c #496772",
"l%	c #47656E",
"m%	c #4D646C",
"n%	c #4A6570",
"o%	c #49646F",
"p%	c #486169",
"q%	c #595D58",
"r%	c #516066",
"s%	c #4E6065",
"t%	c #4F5E64",
"u%	c #516267",
"v%	c #4D6D78",
"w%	c #4C6E7C",
"x%	c #4B6E7B",
"y%	c #54676E",
"z%	c #586D74",
"A%	c #486872",
"B%	c #4E7A8A",
"C%	c #4D7989",
"D%	c #4D7B8B",
"E%	c #4D7C8B",
"F%	c #4D7C8A",
"G%	c #506D78",
"H%	c #547680",
"I%	c #47798A",
"J%	c #4B798C",
"K%	c #4B788B",
"L%	c #477689",
"M%	c #4C798C",
"N%	c #487383",
"O%	c #4C798A",
"P%	c #4D798A",
"Q%	c #4C7C8A",
"R%	c #4E7C8A",
"S%	c #4E7B8A",
"T%	c #536C73",
"U%	c #457587",
"V%	c #487A8B",
"W%	c #497B8B",
"X%	c #487A89",
"Y%	c #49788A",
"Z%	c #477684",
"`%	c #427381",
" &	c #556F76",
".&	c #396B7A",
"+&	c #416F80",
"@&	c #457384",
"#&	c #437081",
"$&	c #3B6B7E",
"%&	c #3C6C7F",
"&&	c #485D64",
"*&	c #39697A",
"=&	c #3C6C7E",
"-&	c #447481",
";&	c #626F72",
">&	c #5F6D71",
",&	c #5C6E72",
"'&	c #5D6A6A",
")&	c #586A6F",
"!&	c #526D77",
"~&	c #546C74",
"{&	c #607074",
"]&	c #6A7476",
"^&	c #666F74",
"/&	c #667075",
"(&	c #657174",
"_&	c #686A64",
":&	c #637274",
"<&	c #647478",
"[&	c #667579",
"}&	c #5C6F74",
"|&	c #5A6C71",
"1&	c #546971",
"2&	c #556365",
"3&	c #4F6B74",
"4&	c #4E6C75",
"5&	c #516A6F",
"6&	c #5F6B6E",
"7&	c #646F72",
"8&	c #657074",
"9&	c #676F72",
"0&	c #61696B",
"a&	c #5F6E76",
"b&	c #5F7075",
"c&	c #426672",
"d&	c #56717A",
"e&	c #487486",
"f&	c #477485",
"g&	c #447585",
"h&	c #407181",
"i&	c #3C6E7D",
"j&	c #3B6A7E",
"k&	c #4C6368",
"l&	c #487885",
"m&	c #457284",
"n&	c #3F7081",
"o&	c #457582",
"p&	c #457584",
"q&	c #447484",
"r&	c #447384",
"s&	c #3F6F82",
"t&	c #3C6C80",
"u&	c #356679",
"v&	c #366576",
"w&	c #376676",
"x&	c #376474",
"y&	c #3E5A61",
"z&	c #5C6D72",
"A&	c #406876",
"B&	c #3F6978",
"C&	c #3E6A7A",
"D&	c #3D6B78",
"E&	c #386776",
"F&	c #376776",
"G&	c #376273",
"H&	c #5A6260",
"I&	c #3D6470",
"J&	c #3B636F",
"K&	c #3A6270",
"L&	c #396070",
"M&	c #396171",
"N&	c #396071",
"O&	c #396170",
"P&	c #495B5E",
"Q&	c #406974",
"R&	c #3E6975",
"S&	c #3D6A78",
"T&	c #3A6A78",
"U&	c #386779",
"V&	c #396578",
"W&	c #4E666D",
"X&	c #436A75",
"Y&	c #3D6976",
"Z&	c #567482",
"`&	c #557483",
" *	c #557581",
".*	c #607982",
"+*	c #627B83",
"@*	c #607A83",
"#*	c #627378",
"$*	c #607175",
"%*	c #567179",
"&*	c #56727A",
"**	c #637A81",
"=*	c #5E7A82",
"-*	c #5F777C",
";*	c #697372",
">*	c #5D7D87",
",*	c #5C7C86",
"'*	c #5E7C86",
")*	c #5D7882",
"!*	c #5B7480",
"~*	c #5B696A",
"{*	c #57717B",
"]*	c #557179",
"^*	c #58727A",
"/*	c #59747D",
"(*	c #59737D",
"_*	c #57747E",
":*	c #447183",
"<*	c #457183",
"[*	c #467284",
"}*	c #3F6370",
"|*	c #4C6F7B",
"1*	c #417081",
"2*	c #3E6E7F",
"3*	c #416F7D",
"4*	c #467385",
"5*	c #457285",
"6*	c #3E6D7E",
"7*	c #42616B",
"8*	c #646E70",
"9*	c #636F72",
"0*	c #5E6F73",
"a*	c #5D6F75",
"b*	c #5E6E72",
"c*	c #656A6A",
"d*	c #6C7170",
"e*	c #626E74",
"f*	c #626F73",
"g*	c #626F71",
"h*	c #636F71",
"i*	c #637073",
"j*	c #626E6F",
"k*	c #707069",
"l*	c #667173",
"m*	c #616F72",
"n*	c #5E6F74",
"o*	c #5E6F75",
"p*	c #5F6E72",
"q*	c #6A6C67",
"r*	c #636E6F",
"s*	c #626E72",
"t*	c #637172",
"  . + @ # $ % & * = - ; > , ' ) ! ~ { ] ^ & / ( % _ = : < [ } } ",
"| 1 2 3 4 5 6 7 8 9 9 0 a b c d e f g h i j k l m n 9 o p q r s ",
"t u v w x y z y A B C D E F G H I J K L M N O P Q R S T U V W X ",
"Y Z `  . ...+.@.#.$.%.&.*.=.-.;.>.,.-.` '.+.).).!.~.{.%.-.$.].^.",
"8 /.(._._.l :.<.[.}.|.1.| 2.3.4.5.6.7.8.9.0.a.b.c.d.e.f.g.m h.1.",
"i.j.k.l.m.n.o.p.q.r.s.t.u.v.w.x.y.z.A.B.C.D.E.F.G.H.i.I.J.K.L.M.",
"N.O.P.Q.R.S.T.T.U.V.W.X.Y.Z.`.~.U.r  +.+++@+S.#+$+%+&+*+=+-+T.| ",
";+>+,+'+)+!+~+{+]+^+/+(+_+:+<+[+}+|+1+2+3+4+5+6+{+7+8+9+0+a+b+c+",
"d+e+f+g+h+i+j+k+l+m+n+o+p+q+r+s+t+u+v+v+o+w+x+y+z+A+m+B+C+D+E+F+",
"G+ +H+I+1 J+J+K+L+M+N+&+O+U.P+Q+R+S+T+U+g.V+#+W+X+6.6.Y+Z+7.`+ @",
".@+@@@#@$@%@&@*@=@-@;@>@,@'@)@!@~@{@-@]@^@/@(@_@:@<@[@}@|@1@2@3@",
"4@5@6@7@8@9@0@a@b@c@%.1.d@e@e@f@g@P.h@i@j@k@l@l@m@n@o@p@q@r@g@s@",
"t@b.u@v@w@x@y@z@A@A@|.B@C@D@E@F@G@H@I@J@K@L@M@E@N@A@|.Y+O@P@Q@R@",
"S@T@U@V@W@X@Y@Z@`@ #.#+#@###$#%#&#*#=#-#;#>#,#'#)#!#~#R.{#]#^#/#",
"(#_#_#:#<#<#[#}#|#1#2#3#4#m /.5#6#o I+f.Y+7# +8#9#0#a#/./.l n n ",
"b#c#d#e#f#g#h#i#j#k#l#m#n#o#p#q#r#s#t#u#v#w#x#y#z#A#B#W C#C D#E#",
"F#F#G#H#I#J#K#L#M#N#O#P#Q#R#S#T#T#U#V#W#X#K#Y#Z#`# $- .$x++$@$#$",
"$$%$&$*$=$-$S.| g.O+;$>$,$'$'$3.&+)$;$!$~${$@+I+]$f.W+>$^$/$;.@+",
"($_$:$<$[$}$|$1$2$3$4$5$q.6$7$8$9$0$a$b$c$d$e$f$g$h$i$j$k$l$m$b#",
"n$`.o$p$q$r$s$t$u$v$f@<#d w$w$x$y$z$7 k A$B$f@d C$f@D$E$F$G$H$8 ",
"I$J$K$L$M$L$d.N$O$P$P$Q$R$S$T$U$V$W$X$S$Y$Z$Z$`$ %=+.%+%@%#%$%L@",
"%%&%*%C#u$=%-%;%>%,%'%)%!%~%~%{%x+]%|#^%/%=%(%+.>%_%:%<%[%}%|%1%",
"o a#7.2%3%4%(#f 9 l l 5%6%$+o | 7%d E$o$i /.[#8 | 9 8 l 8%9%J+N+",
"0%a%b%c%d%e%f%y g%h%h%i%j%3@k%l%m%n%o%p%q%r%s%t%u%v%w%x%y%z%)@A%",
"B%C%,.D%E%%.F%G%H%I%J%K%L%M%Z N%{ Y O%P%%.Q%R%S%T%U%V%W%X%4@Y%].",
"_./.(#Z%-$%+`%h# &.&+&r @&#&3.B@b#Y+A@O+;$$&%&a.&&*&=&7#I+-&I+1.",
";&>&,&'&)&!&~&{&]&^&/&(&_&J.:&<&[&}&|&1&2&3&4&5&6&J.7&8&9&0&a&b&",
"T.l _.c&d&e&f&e g&h&i&j&k&l&(.(.f&m&1 n&++o&p&q&f r&s&t&u&-+e e ",
"v&w&x&y&z&A&B&C&D&E&F&G&H&I&J&K&L&M&N&O&P&}#Q&R&S&T&U&V&0+W&X&Y&",
"Z&`& *w+.*+*@*#*$*%*&*. **j+=*-*;*>*,*'*)*!*x+; ~*{*]*%*^*/*(*_*",
"o '$:*<*[*<*:*}*|*1*1*&+2*b n$3*R+p&$+f&@&4*5*6*7*N+N+Y+&+1#b e ",
"8*9*s.0*a*}&b*c*d*J.e*f*g*h*i*j*k*l*i*m*n*o*n*p*q*r*s*;&m*;&;&t*"};
