/* XPM */
static char * wall_up3_xpm[] = {
"64 64 179 2",
"  	c #72751B",
". 	c #7F8226",
"+ 	c #787B21",
"@ 	c #E5E5E5",
"# 	c #656C17",
"$ 	c #B8B8B8",
"% 	c #989898",
"& 	c #6F6F6F",
"* 	c #4E4E4E",
"= 	c #373737",
"- 	c #272727",
"; 	c #202020",
"> 	c #1F1F1F",
", 	c #404040",
"' 	c #2E2E2E",
") 	c #303030",
"! 	c #5F5F5F",
"~ 	c #A4A4A4",
"{ 	c #DCDCDC",
"] 	c #BD9842",
"^ 	c #090909",
"/ 	c #080808",
"( 	c #060606",
"_ 	c #000000",
": 	c #0D0D0D",
"< 	c #020202",
"[ 	c #4F4F4F",
"} 	c #9B9B9B",
"| 	c #9CA8AD",
"1 	c #A2783C",
"2 	c #010101",
"3 	c #0A0A0A",
"4 	c #0C0C0C",
"5 	c #A2A2A2",
"6 	c #A2814F",
"7 	c #636917",
"8 	c #C6A740",
"9 	c #7E7E7E",
"0 	c #4C4C4C",
"a 	c #141414",
"b 	c #030303",
"c 	c #040404",
"d 	c #737373",
"e 	c #DFDFDF",
"f 	c #B3B0A9",
"g 	c #101010",
"h 	c #414141",
"i 	c #878787",
"j 	c #888888",
"k 	c #939393",
"l 	c #A9A9A9",
"m 	c #BABABA",
"n 	c #A8A8A8",
"o 	c #A6A6A6",
"p 	c #8B8B8B",
"q 	c #555555",
"r 	c #242424",
"s 	c #070707",
"t 	c #727272",
"u 	c #1B1B1B",
"v 	c #383838",
"w 	c #686868",
"x 	c #C7C7C7",
"y 	c #050505",
"z 	c #151515",
"A 	c #292929",
"B 	c #626262",
"C 	c #444444",
"D 	c #2D2D2D",
"E 	c #262626",
"F 	c #797979",
"G 	c #111111",
"H 	c #474747",
"I 	c #787878",
"J 	c #2A2A2A",
"K 	c #7B7B7B",
"L 	c #0F0F0F",
"M 	c #232323",
"N 	c #858585",
"O 	c #1A1A1A",
"P 	c #7A7A7A",
"Q 	c #0E0E0E",
"R 	c #B6B6B6",
"S 	c #676767",
"T 	c #464646",
"U 	c #343434",
"V 	c #333333",
"W 	c #424242",
"X 	c #696969",
"Y 	c #919191",
"Z 	c #DBDBDB",
"` 	c #3C3C3C",
" .	c #323232",
"..	c #191919",
"+.	c #CBCBCB",
"@.	c #6E6E6E",
"#.	c #2F2F2F",
"$.	c #C0C0C0",
"%.	c #595959",
"&.	c #171717",
"*.	c #4B4B4B",
"=.	c #1D1D1D",
"-.	c #434343",
";.	c #C2C2C2",
">.	c #848484",
",.	c #131313",
"'.	c #9E9E9E",
").	c #616161",
"!.	c #DDDDDD",
"~.	c #979797",
"{.	c #121212",
"].	c #606060",
"^.	c #D4D4D4",
"/.	c #5B5B5B",
"(.	c #4A4A4A",
"_.	c #0B0B0B",
":.	c #CFCFCF",
"<.	c #D8D8D8",
"[.	c #717171",
"}.	c #212121",
"|.	c #646464",
"1.	c #8D8D8D",
"2.	c #DADADA",
"3.	c #D1D1D1",
"4.	c #181818",
"5.	c #5A5A5A",
"6.	c #A0A0A0",
"7.	c #E7E7E7",
"8.	c #838383",
"9.	c #777777",
"0.	c #666666",
"a.	c #828282",
"b.	c #252525",
"c.	c #CACACA",
"d.	c #929292",
"e.	c #5E5E5E",
"f.	c #BEBEBE",
"g.	c #282828",
"h.	c #B9B9B9",
"i.	c #E1E1E1",
"j.	c #7D7D7D",
"k.	c #575757",
"l.	c #2C2C2C",
"m.	c #808080",
"n.	c #9D9D9D",
"o.	c #818181",
"p.	c #B5B5B5",
"q.	c #1E1E1E",
"r.	c #B2B2B2",
"s.	c #E0E0E0",
"t.	c #3B3B3B",
"u.	c #5D5D5D",
"v.	c #BCBCBC",
"w.	c #545454",
"x.	c #E8E8E8",
"y.	c #6C6C6C",
"z.	c #C9C9C9",
"A.	c #7F8124",
"B.	c #E2E2E2",
"C.	c #9A9A9A",
"D.	c #686F16",
"E.	c #BFBFBF",
"F.	c #222222",
"G.	c #CCCCCC",
"H.	c #313131",
"I.	c #949494",
"J.	c #ACACAC",
"K.	c #A5A5A5",
"L.	c #6A6A6A",
"M.	c #525252",
"N.	c #B4B4B4",
"O.	c #898989",
"P.	c #6B6B6B",
"Q.	c #959595",
"R.	c #515151",
"S.	c #3E3E3E",
"T.	c #D9D9D9",
"U.	c #3A3A3A",
"V.	c #CECECE",
"                                                                                                                                ",
"                                                                                                                                ",
"                                                                                                                                ",
"                                                                                                                                ",
"                                                                                                                                ",
"                                                                                                                                ",
"                                                                                                                                ",
"                                                                                                                                ",
"                                                                                                                                ",
"                                                                                                            . .                 ",
"                                                                                                              . +         .     ",
"                                                  .                                                           + + +   + .       ",
"                @                       . . +     + +                                                   . + + # + + + + #       ",
"$ % & * = - ; > , ' ) ! ~ {               . + +   # +     .                                               + + ] ] # + + #       ",
"^ / / ( _ _ _ ^ _ _ : < _ < [ }           # + + | |   + + #                                               # ] 1 1 ] + #         ",
"_ _ _ _ 2 _ _ _ 3 _ _ < 4 ( _ _ ) 5     . + # + 6 |   + + #                                                 7 ] ] 7   8 8       ",
"9 0 a _ b / < _ b _ _ c 2 _ _ ^ < a d e # f f # 7 7   # #                                               8 8   7 7     1 8       ",
"g h d i j k l m n o p q r ^ _ _ _ _ s , t u _ v w x f                                                 8 1 1 8         7 7       ",
"_ c c < y 4 : / z < 2 A B t C 4 _ ^ _ a D & > _ g _ E F                                               7 8 8 7                   ",
"_ _ _ _ _ _ _ _ _ _ y _ _ G H I z c y _ < J K z 2 L y _ M 5                                             7 7                     ",
"s / s b _ 2 b y : c 2 ( s b / a N O _ c _ 4 u P ( Q _ 4 _ y q                                                                   ",
"R k S T U E z ^ ^ g > D V W X Y $ Z ` _ L 2 _ M i  ._ _ .._ _ a +.                                                              ",
"                                      v c _ _ _ y I @.3 2 _ _ G #.$.                                                            ",
"                                        %._ _ &.b _ *.$ =._ / _ _ -.;.                                                          ",
"                                          >.,._ _ 4 _ ; '.)._ _ ,._ C !.                                                        ",
"                                            ~.{._ Q _ _ r d q < b _ a ].          . .                                           ",
"                                              ^.U _ s ^ _ c /.(._ _._ {.:.    + + .                                             ",
"                                                <.[._ 3 _ 2 G @.}.Q _ _ |..   + + #                                             ",
"          . .                                       1._ L _ s &.X _ L _ : 2.+ # #                                               ",
"            . + +       . .                           3.{._ _._ P 4.b y _ % +                                                   ",
"            # + +     + .                                 5._ 4 M w _ y _ T                                                     ",
"              # #   + + +                                   6.a _ P _ 2 ^ u 7.                                                  ",
"                    + + #                                     Z ).8.4 2 _ b j p                                                 ",
"                    # #                                              ._ _ L 9./ 9.                                              ",
"                                                                    C b _ b 8.b G %                                             ",
"                                                                    0.4 ( _ a.4 _ b.c.                                          ",
"                                                                    d._ / _ e.#.4 _ *                                           ",
"                                                                    f._ c c g.e.^ _ / h.                                        ",
"                          + .                                       i._ _ ^ 2 j._ b _ k.                                        ",
"                            . .                                       l._ b _ m.c / _ L 2.                                      ",
"                            + + +                                     k._ _ ( 9...3 _ _ n.                                      ",
"                            # + + # + + . .                           o.: 2 _ h P _ 2 _ 0                                       ",
"                              | | + + +                               p.c _ _ q.5 _ b _ l.                                      ",
"                            | 6 | + + #                                 Q _ y _ r._ ( _ : s.                                    ",
"                            | | 7 + #                                   t._ L _ 1.z / _ y +.                                    ",
"                            7 7                                         9 _ 3 _ u.v / _ c h.                                    ",
"                                                                        v._ _ _ w.C y _ _ p.                                    ",
"                                                                        x.O _ _ y.b.b _ _ z.      A.                            ",
"                                                      .                   V < 2 a._ 2 _._ B.    + +     A.+ +                   ",
"                                                    .                     C._ ( 9 < y _ _ A.    + D.  + A.A.                    ",
"                                                  + +                     E._.F.w _ _ / H   A.+ D.  + + A.D.                    ",
"                                                  + + # B.G.                A H.y _ _ I.N D.+ +     + + D.+ A.                  ",
"              f f                                 # # + .                   J._ _ b _.I.    D.+     f f + + D.                  ",
"                                                      + +                   (._ / ( 5.= K.    D.  f 6 6 f D.                    ",
"                                                      # #                   g _ _ _ j L 0         7 f f 7                       ",
"                                                                          } _._ b F.L._ u     f 6   7 7                         ",
"            . .           .                                               d _ 2 _ L.r _ ^ ^.  f f                               ",
"              . + +   + .                                                 M._ 2 2 9.&._ _ N.  7 7                               ",
"        + . . # + # + + #                                                 E _ _ c 8.( _ _ p                                     ",
"          . + + | | + + #     f f                                         c 2 _ _ O._ c _ P.                                    ",
"          # + | 6 6 | #       6 f                                         _ / _ _ Q._ _.c R.                                    ",
"            # 7 | | 7 f f     7 7                                       7._ 3 _ g ~ _ ( _ S.                                    ",
"                7 7 f 6 f                                               T.b ( _ &.l 2 _ _ U.                                    ",
"                    f f 7                                               V.( _ _ g ~ c _ _ S.                                    "};
